{
.appVersion = "3151";
.formatVersion = 3;
customParameters = (
{
name = vendorID;
value = "1BOU";
},
{
name = panose;
value = (
0,
0,
9,
0,
0,
0,
0,
0,
0,
0
);
},
{
name = unicodeRanges;
value = (
0,
1,
2,
3,
5,
13,
31,
33,
35,
38,
45,
60,
63,
67
);
},
{
name = codePageRanges;
value = (
"1252",
"1256"
);
},
{
name = fsType;
value = (
);
},
{
name = glyphOrder;
value = (
.notdef,
uni000D,
space,
exclam,
quotedbl,
numbersign,
dollar,
percent,
ampersand,
quotesingle,
parenleft,
parenright,
asterisk,
plus,
comma,
hyphen,
period,
slash,
zero,
one,
two,
three,
four,
five,
six,
seven,
eight,
nine,
colon,
semicolon,
less,
equal,
greater,
question,
at,
A,
B,
C,
D,
E,
F,
G,
H,
I,
J,
K,
L,
M,
N,
O,
P,
Q,
R,
S,
T,
U,
V,
W,
X,
Y,
Z,
bracketleft,
backslash,
bracketright,
asciicircum,
underscore,
grave,
a,
b,
c,
d,
e,
f,
g,
h,
i,
j,
k,
l,
m,
n,
o,
p,
q,
r,
s,
t,
u,
v,
w,
x,
y,
z,
braceleft,
bar,
braceright,
asciitilde,
exclamdown,
cent,
sterling,
yen,
brokenbar,
section,
dieresis,
copyright,
ordfeminine,
guillemotleft,
uni00AD,
registered,
macron,
degree,
plusminus,
twosuperior,
threesuperior,
acute,
paragraph,
periodcentered,
cedilla,
onesuperior,
ordmasculine,
guillemotright,
onequarter,
onehalf,
threequarters,
questiondown,
Agrave,
Aacute,
Acircumflex,
Atilde,
Adieresis,
Aring,
AE,
Ccedilla,
Egrave,
Eacute,
Ecircumflex,
Edieresis,
Igrave,
Iacute,
Icircumflex,
Idieresis,
Eth,
Ntilde,
Ograve,
Oacute,
Ocircumflex,
Otilde,
Odieresis,
multiply,
Oslash,
Ugrave,
Uacute,
Ucircumflex,
Udieresis,
Yacute,
Thorn,
germandbls,
agrave,
aacute,
acircumflex,
atilde,
adieresis,
aring,
ae,
ccedilla,
egrave,
eacute,
ecircumflex,
edieresis,
igrave,
iacute,
icircumflex,
idieresis,
eth,
ntilde,
ograve,
oacute,
ocircumflex,
otilde,
odieresis,
divide,
oslash,
ugrave,
uacute,
ucircumflex,
udieresis,
yacute,
thorn,
ydieresis,
dotlessi,
Lslash,
lslash,
OE,
oe,
Scaron,
scaron,
Ydieresis,
Zcaron,
zcaron,
florin,
circumflex,
caron,
breve,
dotaccent,
ring,
ogonek,
tilde,
hungarumlaut,
uni03BC,
uni060C,

glyphs = (
{
glyphname = .notdef;
layers = (
{
layerId = m01;
shapes = (
{
closed = 1;
nodes = (
(211,-3,o),
(225,14,o),
(249,14,cs),
(273,14,o),
(294,-4,o),
(298,-29,cs),
(303,-54,o),
(289,-72,o),
(265,-72,cs),
(240,-72,o),
(221,-56,o),
(214,-29,c)
);
},
{
closed = 1;
nodes = (
(210,88,ls),
(205,114,o),
(215,134,o),
(248,165,cs),
(282,197,o),
(292,218,o),
(287,247,cs),
(281,284,o),
(250,306,o),
(205,307,cs),
(167,308,o),
(146,302,o),
(99,277,c),
(90,294,ls),
(87,300,o),
(85,307,o),
(83,312,cs),
(79,328,o),
(86,338,o),
(108,347,cs),
(136,360,o),
(163,365,o),
(197,365,cs),
(285,365,o),
(343,327,o),
(355,262,cs),
(366,207,o),
(350,176,o),
(275,112,cs),
(263,101,o),
(259,91,o),
(262,75,cs),
(264,67,l),
(213,67,l)
);
},
{
closed = 1;
nodes = (
(400,545,l),
(541,-254,l),
(80,-254,l),
(-61,545,l)
);
},
{
closed = 1;
nodes = (
(120,-206,l),
(485,-206,l),
(361,497,l),
(-5,497,l)
);
}
);
width = 531;
}
);
note = ".notdef";
},
{
glyphname = exclam;
layers = (
{
layerId = m01;
shapes = (
{
closed = 1;
nodes = (
(85,146,ls),
(91,146,o),
(93,148,o),
(94,154,cs),
(158,485,ls),
(168,533,o),
(149,556,o),
(111,556,cs),
(105,556,ls),
(99,556,o),
(96,553,o),
(95,547,cs),
(33,154,l),
(31,148,o),
(34,146,o),
(39,146,cs)
);
},
{
closed = 1;
nodes = (
(73,-10,o),
(94,20,o),
(94,49,cs),
(94,73,o),
(79,91,o),
(53,91,cs),
(21,91,o),
(-3,63,o),
(-3,34,cs),
(-3,9,o),
(13,-10,o),
(40,-10,cs)
);
}
);
width = 153;
}
);
note = exclam;
unicode = 33;
},
{
glyphname = quotedbl;
layers = (
{
layerId = m01;
shapes = (
{
closed = 1;
nodes = (
(25,374,o),
(26,371,o),
(32,371,cs),
(67,371,ls),
(73,371,o),
(74,374,o),
(74,379,cs),
(63,488,ls),
(58,539,o),
(39,556,o),
(-4,556,cs),
(-16,556,ls),
(-22,556,o),
(-24,553,o),
(-22,547,cs),
(23,379,l)
);
},
{
closed = 1;
nodes = (
(147,374,o),
(148,371,o),
(154,371,cs),
(189,371,ls),
(195,371,o),
(197,374,o),
(196,379,cs),
(185,488,ls),
(180,539,o),
(161,556,o),
(119,556,cs),
(107,556,ls),
(102,556,o),
(98,553,o),
(100,547,cs),
(145,379,l)
);
}
);
width = 257;
}
);
note = quotedbl;
unicode = 34;
},
{
glyphname = numbersign;
layers = (
{
layerId = m01;
shapes = (
{
closed = 1;
nodes = (
(199,9,ls),
(200,4,o),
(205,0,o),
(210,0,cs),
(267,0,ls),
(272,0,o),
(272,3,o),
(271,9,cs),
(232,151,l),
(375,151,l),
(414,9,l),
(416,4,o),
(421,0,o),
(426,0,cs),
(483,0,ls),
(488,0,o),
(488,3,o),
(486,9,cs),
(447,151,l),
(516,151,ls),
(521,151,o),
(524,153,o),
(522,159,cs),
(511,198,ls),
(509,204,o),
(506,207,o),
(500,207,cs),
(432,207,l),
(394,347,l),
(462,347,ls),
(468,347,o),
(470,350,o),
(468,356,cs),
(457,394,l),
(456,401,o),
(452,403,o),
(446,403,cs),
(379,403,l),
(352,502,ls),
(342,537,o),
(320,556,o),
(288,556,cs),
(272,556,ls),
(266,556,o),
(266,553,o),
(267,547,c),
(307,403,l),
(163,403,l),
(136,502,ls),
(127,537,o),
(104,556,o),
(73,556,cs),
(56,556,ls),
(51,556,o),
(50,553,o),
(52,547,cs),
(92,403,l),
(23,403,ls),
(17,403,o),
(15,401,o),
(17,394,cs),
(28,356,ls),
(30,350,o),
(33,347,o),
(39,347,cs),
(107,347,l),
(145,207,l),
(77,207,ls),
(71,207,o),
(68,204,o),
(69,198,c),
(81,159,ls),
(83,153,o),
(86,151,o),
(92,151,cs),
(159,151,l)
);
},
{
closed = 1;
nodes = (
(179,347,l),
(322,347,l),
(360,207,l),
(217,207,l)
);
}
);
width = 548;
}
);
note = numbersign;
unicode = 35;
},
{
glyphname = dollar;
layers = (
{
layerId = m01;
shapes = (
{
closed = 1;
nodes = (
(170,59,o),
(117,87,o),
(69,133,cs),
(64,138,o),
(60,141,o),
(55,141,cs),
(48,141,o),
(45,135,o),
(45,127,cs),
(45,69,o),
(130,-8,o),
(252,-11,c),
(260,-56,ls),
(261,-62,o),
(262,-64,o),
(269,-64,cs),
(300,-64,ls),
(306,-64,o),
(309,-62,o),
(307,-56,c),
(299,-8,l),
(387,2,o),
(436,58,o),
(436,131,cs),
(436,248,o),
(339,286,o),
(242,313,c),
(210,497,l),
(256,493,o),
(297,478,o),
(336,456,c),
(343,453,o),
(347,451,o),
(351,451,cs),
(357,451,o),
(357,454,o),
(358,461,cs),
(360,479,ls),
(363,508,o),
(346,525,o),
(311,539,cs),
(275,556,o),
(241,563,o),
(198,566,c),
(189,612,ls),
(188,618,o),
(186,621,o),
(180,621,cs),
(149,621,ls),
(142,621,o),
(140,618,o),
(141,612,cs),
(150,566,l),
(60,553,o),
(8,508,o),
(8,429,cs),
(8,318,o),
(112,278,o),
(206,248,c),
(240,57,l)
);
},
{
closed = 1;
nodes = (
(314,219,o),
(364,196,o),
(364,134,cs),
(364,97,o),
(341,68,o),
(286,59,c),
(256,237,l)
);
},
{
closed = 1;
nodes = (
(139,342,o),
(82,369,o),
(82,431,cs),
(82,471,o),
(111,497,o),
(162,499,c),
(193,325,l)
);
}
);
width = 454;
}
);
note = dollar;
unicode = 36;
},
{
glyphname = percent;
layers = (
{
layerId = m01;
shapes = (
{
closed = 1;
nodes = (
(84,276,o),
(61,369,o),
(61,433,cs),
(61,486,o),
(82,513,o),
(120,513,cs),
(181,513,o),
(223,447,o),
(223,349,cs),
(223,301,o),
(203,276,o),
(164,276,cs)
);
},
{
closed = 1;
nodes = (
(291,0,ls),
(297,0,o),
(299,3,o),
(301,9,cs),
(484,496,ls),
(497,531,o),
(483,556,o),
(450,556,cs),
(443,556,ls),
(438,556,o),
(436,553,o),
(433,547,c),
(233,9,ls),
(231,4,o),
(233,0,o),
(238,0,cs)
);
},
{
closed = 1;
nodes = (
(244,223,o),
(284,276,o),
(284,355,cs),
(284,471,o),
(212,567,o),
(117,567,cs),
(48,567,o),
(0,516,o),
(0,437,cs),
(0,317,o),
(72,223,o),
(166,223,cs)
);
},
{
closed = 1;
nodes = (
(538,45,o),
(514,137,o),
(514,202,cs),
(514,254,o),
(534,281,o),
(573,281,cs),
(634,281,o),
(676,216,o),
(676,117,cs),
(676,69,o),
(656,45,o),
(617,45,cs)
);
},
{
closed = 1;
nodes = (
(698,-9,o),
(737,45,o),
(737,123,cs),
(737,239,o),
(665,335,o),
(571,335,cs),
(501,335,o),
(453,284,o),
(453,206,cs),
(453,86,o),
(525,-9,o),
(619,-9,cs)
);
}
);
width = 761;
}
);
note = percent;
unicode = 37;
},
{
glyphname = ampersand;
layers = (
{
layerId = m01;
shapes = (
{
closed = 1;
nodes = (
(314,330,o),
(357,387,o),
(357,440,cs),
(357,520,o),
(288,567,o),
(194,567,cs),
(109,567,o),
(54,515,o),
(54,450,cs),
(54,388,o),
(100,349,o),
(149,306,c),
(90,274,o),
(46,229,o),
(46,168,cs),
(46,68,o),
(120,-7,o),
(232,-7,cs),
(313,-7,o),
(359,27,o),
(390,72,c),
(440,22,ls),
(457,6,o),
(469,0,o),
(494,0,cs),
(543,0,ls),
(548,0,o),
(549,6,o),
(545,10,cs),
(420,133,l),
(492,281,l),
(493,285,o),
(492,290,o),
(485,290,cs),
(434,290,ls),
(425,290,o),
(419,287,o),
(416,279,cs),
(371,180,l),
(252,293,l)
);
},
{
closed = 1;
nodes = (
(149,388,o),
(132,412,o),
(132,447,cs),
(132,480,o),
(158,506,o),
(203,506,cs),
(250,506,o),
(285,480,o),
(285,440,cs),
(285,402,o),
(253,365,o),
(207,339,c)
);
},
{
closed = 1;
nodes = (
(323,81,o),
(289,57,o),
(232,57,cs),
(168,57,o),
(122,94,o),
(122,162,cs),
(122,212,o),
(153,237,o),
(198,258,c),
(343,118,l)
);
}
);
width = 532;
}
);
note = ampersand;
unicode = 38;
},
{
glyphname = quotesingle;
layers = (
{
layerId = m01;
shapes = (
{
closed = 1;
nodes = (
(25,374,o),
(26,371,o),
(32,371,cs),
(67,371,ls),
(73,371,o),
(74,374,o),
(74,379,cs),
(63,488,ls),
(58,539,o),
(39,556,o),
(-4,556,cs),
(-16,556,ls),
(-22,556,o),
(-24,553,o),
(-22,547,cs),
(23,379,l)
);
}
);
width = 133;
}
);
note = quotesingle;
unicode = 39;
},
{
glyphname = parenleft;
layers = (
{
layerId = m01;
shapes = (
{
closed = 1;
nodes = (
(137,40,o),
(245,-98,o),
(383,-144,cs),
(388,-146,o),
(392,-146,o),
(391,-138,cs),
(390,-134,o),
(388,-125,o),
(386,-118,cs),
(374,-81,o),
(364,-74,o),
(348,-61,cs),
(251,20,o),
(193,127,o),
(168,277,cs),
(143,426,o),
(160,533,o),
(229,614,cs),
(240,627,o),
(250,632,o),
(247,671,cs),
(247,678,o),
(245,687,o),
(245,691,c),
(243,699,o),
(239,699,o),
(234,697,cs),
(139,655,o),
(56,513,o),
(97,277,cs)
);
}
);
width = 394;
}
);
note = parenleft;
unicode = 40;
},
{
glyphname = parenright;
layers = (
{
layerId = m01;
shapes = (
{
closed = 1;
nodes = (
(248,513,o),
(138,646,o),
(5,697,cs),
(-1,699,o),
(-5,699,o),
(-3,691,c),
(-3,687,o),
(-1,679,o),
(1,671,cs),
(9,631,o),
(19,626,o),
(34,612,cs),
(132,531,o),
(192,426,o),
(217,277,cs),
(245,127,o),
(225,20,o),
(156,-61,cs),
(146,-74,o),
(135,-79,o),
(138,-118,cs),
(139,-125,o),
(140,-134,o),
(141,-138,cs),
(142,-146,o),
(146,-146,o),
(151,-144,cs),
(246,-102,o),
(331,39,o),
(288,277,cs)
);
}
);
width = 356;
}
);
note = parenright;
unicode = 41;
},
{
glyphname = asterisk;
layers = (
{
layerId = m01;
shapes = (
{
closed = 1;
nodes = (
(62,294,ls),
(59,289,o),
(60,286,o),
(65,283,cs),
(114,256,l),
(119,252,o),
(123,251,o),
(125,257,cs),
(163,348,l),
(232,262,l),
(235,257,o),
(239,258,o),
(243,261,cs),
(281,289,ls),
(285,292,o),
(285,296,o),
(281,300,cs),
(201,379,l),
(294,406,ls),
(299,407,o),
(300,412,o),
(297,417,cs),
(274,463,ls),
(272,468,o),
(267,470,o),
(262,468,cs),
(179,431,l),
(169,531,ls),
(168,537,o),
(164,539,o),
(159,539,cs),
(102,539,ls),
(97,539,o),
(94,537,o),
(95,531,cs),
(119,431,l),
(24,468,ls),
(19,470,o),
(16,468,o),
(15,463,cs),
(7,413,ls),
(6,407,o),
(9,403,o),
(14,402,cs),
(112,377,l)
);
}
);
width = 366;
}
);
note = asterisk;
unicode = 42;
},
{
glyphname = plus;
layers = (
{
layerId = m01;
shapes = (
{
closed = 1;
nodes = (
(168,101,ls),
(168,96,o),
(170,92,o),
(176,92,cs),
(227,92,ls),
(233,92,o),
(235,96,o),
(235,101,cs),
(235,238,l),
(358,238,ls),
(364,238,o),
(366,242,o),
(366,247,cs),
(366,295,ls),
(366,301,o),
(364,304,o),
(358,304,cs),
(235,304,l),
(235,389,ls),
(235,432,o),
(218,450,o),
(176,450,cs),
(170,450,o),
(168,447,o),
(168,441,cs),
(168,304,l),
(45,304,ls),
(39,304,o),
(37,301,o),
(37,295,cs),
(37,247,ls),
(37,242,o),
(39,238,o),
(45,238,cs),
(168,238,l)
);
}
);
width = 403;
}
);
note = plus;
unicode = 43;
},
{
glyphname = comma;
layers = (
{
layerId = m01;
shapes = (
{
closed = 1;
nodes = (
(-10,-87,o),
(-6,-88,o),
(-3,-86,cs),
(38,-54,o),
(87,-9,o),
(87,48,cs),
(87,74,o),
(71,91,o),
(45,91,cs),
(13,91,o),
(-10,63,o),
(-10,33,cs),
(-10,11,o),
(3,-4,o),
(23,-8,c),
(17,-25,o),
(4,-39,o),
(-7,-49,cs),
(-19,-59,o),
(-21,-73,o),
(-11,-86,cs)
);
}
);
width = 145;
}
);
note = comma;
unicode = 44;
},
{
glyphname = hyphen;
layers = (
{
layerId = m01;
shapes = (
{
closed = 1;
nodes = (
(266,229,ls),
(265,236,o),
(263,238,o),
(257,238,cs),
(45,238,ls),
(39,238,o),
(37,236,o),
(38,229,cs),
(48,177,ls),
(49,171,o),
(51,168,o),
(57,168,cs),
(269,168,ls),
(275,168,o),
(276,171,o),
(276,177,c)
);
}
);
width = 305;
}
);
note = hyphen;
unicode = 45;
},
{
glyphname = period;
layers = (
{
layerId = m01;
shapes = (
{
closed = 1;
nodes = (
(194,-11,o),
(213,14,o),
(208,44,cs),
(203,74,o),
(174,99,o),
(145,99,cs),
(116,99,o),
(95,74,o),
(101,44,cs),
(106,14,o),
(135,-11,o),
(164,-11,cs)
);
}
);
width = 217;
}
);
note = period;
unicode = 46;
},
{
glyphname = slash;
layers = (
{
layerId = m01;
shapes = (
{
closed = 1;
nodes = (
(59,0,ls),
(65,0,o),
(68,3,o),
(69,9,cs),
(189,493,ls),
(198,529,o),
(181,556,o),
(149,556,cs),
(145,556,ls),
(139,556,o),
(136,553,o),
(134,547,cs),
(2,9,ls),
(1,4,o),
(2,0,o),
(8,0,cs)
);
}
);
width = 207;
}
);
note = slash;
unicode = 47;
},
{
glyphname = zero;
layers = (
{
layerId = m01;
shapes = (
{
closed = 1;
nodes = (
(180,59,o),
(106,195,o),
(106,365,cs),
(106,449,o),
(141,496,o),
(208,496,cs),
(310,496,o),
(378,377,o),
(378,194,cs),
(378,106,o),
(349,59,o),
(280,59,cs)
);
},
{
closed = 1;
nodes = (
(394,-11,o),
(455,69,o),
(455,194,cs),
(455,421,o),
(353,567,o),
(203,567,cs),
(97,567,o),
(30,492,o),
(30,362,cs),
(30,145,o),
(136,-11,o),
(285,-11,cs)
);
}
);
width = 502;
}
);
note = zero;
unicode = 48;
},
{
glyphname = one;
layers = (
{
layerId = m01;
shapes = (
{
closed = 1;
nodes = (
(88,69,ls),
(82,69,o),
(79,67,o),
(80,61,cs),
(89,9,ls),
(90,3,o),
(93,0,o),
(99,0,cs),
(375,0,ls),
(383,0,o),
(385,4,o),
(384,11,cs),
(380,26,ls),
(375,54,o),
(359,69,o),
(329,69,cs),
(264,69,l),
(188,501,ls),
(182,537,o),
(162,556,o),
(129,556,cs),
(113,556,ls),
(98,556,o),
(83,553,o),
(67,547,cs),
(10,524,ls),
(3,521,o),
(1,517,o),
(2,510,cs),
(13,455,ls),
(14,450,o),
(18,447,o),
(23,449,cs),
(114,486,l),
(188,69,l)
);
}
);
width = 358;
}
);
note = one;
unicode = 49;
},
{
glyphname = two;
layers = (
{
layerId = m01;
shapes = (
{
closed = 1;
nodes = (
(143,195,o),
(366,219,o),
(366,393,cs),
(366,508,o),
(283,567,o),
(162,567,cs),
(110,567,o),
(70,553,o),
(33,537,cs),
(3,522,o),
(-6,505,o),
(8,477,cs),
(18,457,ls),
(21,451,o),
(23,449,o),
(27,449,cs),
(31,449,o),
(35,451,o),
(38,454,c),
(76,481,o),
(119,498,o),
(171,498,cs),
(241,498,o),
(288,462,o),
(288,393,cs),
(288,258,o),
(70,247,o),
(70,59,cs),
(70,44,o),
(70,27,o),
(75,9,c),
(75,3,o),
(78,0,o),
(85,0,cs),
(427,0,ls),
(435,0,o),
(437,4,o),
(436,11,cs),
(433,27,ls),
(428,54,o),
(411,69,o),
(381,69,cs),
(153,69,l)
);
}
);
width = 449;
}
);
note = two;
unicode = 50;
},
{
glyphname = three;
layers = (
{
layerId = m01;
shapes = (
{
closed = 1;
nodes = (
(342,315,o),
(362,356,o),
(362,401,cs),
(362,502,o),
(286,567,o),
(167,567,cs),
(108,567,o),
(61,552,o),
(33,538,cs),
(3,523,o),
(-7,507,o),
(7,478,cs),
(17,458,ls),
(20,453,o),
(22,450,o),
(27,450,cs),
(31,450,o),
(35,453,o),
(39,456,cs),
(75,483,o),
(115,499,o),
(167,499,cs),
(246,499,o),
(288,462,o),
(288,399,cs),
(288,353,o),
(260,324,o),
(197,324,cs),
(110,324,ls),
(104,324,o),
(100,318,o),
(101,311,cs),
(104,294,ls),
(109,266,o),
(124,254,o),
(154,254,cs),
(211,254,ls),
(281,254,o),
(349,222,o),
(349,144,cs),
(349,91,o),
(311,58,o),
(240,58,cs),
(168,58,o),
(124,86,o),
(81,129,cs),
(75,136,o),
(70,139,o),
(65,139,cs),
(56,139,o),
(54,131,o),
(54,122,cs),
(54,64,o),
(134,-10,o),
(250,-10,cs),
(376,-10,o),
(426,61,o),
(426,139,cs),
(426,218,o),
(370,280,o),
(291,293,c)
);
}
);
width = 444;
}
);
note = three;
unicode = 51;
},
{
glyphname = four;
layers = (
{
layerId = m01;
shapes = (
{
closed = 1;
nodes = (
(319,9,ls),
(320,3,o),
(322,0,o),
(329,0,cs),
(388,0,ls),
(394,0,o),
(394,3,o),
(393,9,cs),
(372,128,l),
(442,128,ls),
(451,128,o),
(452,132,o),
(451,138,cs),
(450,154,l),
(445,182,o),
(427,197,o),
(397,197,cs),
(360,197,l),
(305,508,ls),
(300,543,o),
(277,556,o),
(250,556,cs),
(221,556,ls),
(203,556,o),
(195,548,o),
(190,537,cs),
(30,208,ls),
(24,195,o),
(23,190,o),
(26,177,cs),
(33,136,ls),
(34,130,o),
(36,128,o),
(42,128,cs),
(297,128,l)
);
},
{
closed = 1;
nodes = (
(236,481,l),
(286,197,l),
(98,197,l)
);
}
);
width = 468;
}
);
note = four;
unicode = 52;
},
{
glyphname = five;
layers = (
{
layerId = m01;
shapes = (
{
closed = 1;
nodes = (
(323,486,ls),
(329,486,o),
(332,490,o),
(331,497,cs),
(328,513,ls),
(323,541,o),
(304,556,o),
(275,556,cs),
(9,556,ls),
(3,556,o),
(2,553,o),
(3,547,cs),
(52,268,ls),
(53,261,o),
(59,257,o),
(66,259,cs),
(103,273,o),
(149,286,o),
(204,286,cs),
(290,286,o),
(346,242,o),
(346,156,cs),
(346,93,o),
(309,58,o),
(232,58,cs),
(169,58,o),
(124,83,o),
(80,128,cs),
(73,135,o),
(70,137,o),
(64,137,cs),
(56,137,o),
(52,129,o),
(52,120,cs),
(52,67,o),
(128,-10,o),
(244,-10,cs),
(351,-10,o),
(423,54,o),
(423,153,cs),
(423,269,o),
(341,353,o),
(210,353,cs),
(169,353,o),
(133,346,o),
(111,340,c),
(85,486,l)
);
}
);
width = 452;
}
);
note = five;
unicode = 53;
},
{
glyphname = six;
layers = (
{
layerId = m01;
shapes = (
{
closed = 1;
nodes = (
(213,479,ls),
(234,527,o),
(216,567,o),
(181,567,cs),
(174,567,o),
(171,563,o),
(168,557,cs),
(80,353,ls),
(58,301,o),
(43,258,o),
(43,197,cs),
(43,78,o),
(126,-10,o),
(247,-10,cs),
(365,-10,o),
(434,71,o),
(434,164,cs),
(434,277,o),
(355,362,o),
(237,362,cs),
(195,362,o),
(176,353,o),
(153,341,c)
);
},
{
closed = 1;
nodes = (
(169,59,o),
(119,114,o),
(119,190,cs),
(119,248,o),
(150,296,o),
(228,296,cs),
(307,296,o),
(359,242,o),
(359,164,cs),
(359,108,o),
(321,59,o),
(247,59,cs)
);
}
);
width = 463;
}
);
note = six;
unicode = 54;
},
{
glyphname = seven;
layers = (
{
layerId = m01;
shapes = (
{
closed = 1;
nodes = (
(139,9,ls),
(138,5,o),
(141,0,o),
(147,0,cs),
(203,0,ls),
(212,0,o),
(215,3,o),
(218,12,cs),
(348,456,ls),
(353,474,o),
(354,484,o),
(351,502,cs),
(349,513,ls),
(344,541,o),
(325,556,o),
(295,556,cs),
(-9,556,ls),
(-15,556,o),
(-16,553,o),
(-15,547,cs),
(-6,495,ls),
(-5,489,o),
(-2,486,o),
(4,486,cs),
(280,486,l)
);
}
);
width = 428;
}
);
note = seven;
unicode = 55;
},
{
glyphname = eight;
layers = (
{
layerId = m01;
shapes = (
{
closed = 1;
nodes = (
(120,226,o),
(165,261,o),
(224,261,cs),
(297,261,o),
(365,217,o),
(365,139,cs),
(365,88,o),
(333,54,o),
(257,54,cs),
(185,54,o),
(120,97,o),
(120,171,cs)
);
},
{
closed = 1;
nodes = (
(87,471,o),
(125,503,o),
(182,503,cs),
(254,503,o),
(305,462,o),
(305,399,cs),
(305,356,o),
(274,324,o),
(214,324,cs),
(148,324,o),
(87,364,o),
(87,423,cs)
);
},
{
closed = 1;
nodes = (
(73,266,o),
(45,224,o),
(45,171,cs),
(45,67,o),
(137,-11,o),
(260,-11,cs),
(383,-11,o),
(441,56,o),
(441,136,cs),
(441,219,o),
(387,269,o),
(309,294,c),
(347,312,o),
(377,353,o),
(377,404,cs),
(377,496,o),
(295,567,o),
(182,567,cs),
(79,567,o),
(16,507,o),
(16,431,cs),
(16,358,o),
(68,312,o),
(133,290,c)
);
}
);
width = 462;
}
);
note = eight;
unicode = 56;
},
{
glyphname = nine;
layers = (
{
layerId = m01;
shapes = (
{
closed = 1;
nodes = (
(227,77,ls),
(208,34,o),
(222,-10,o),
(258,-10,cs),
(266,-10,o),
(268,-7,o),
(272,1,cs),
(360,204,ls),
(382,256,o),
(397,306,o),
(397,362,cs),
(397,484,o),
(311,567,o),
(188,567,cs),
(78,567,o),
(6,492,o),
(6,392,cs),
(6,282,o),
(87,194,o),
(200,194,cs),
(242,194,o),
(270,204,o),
(286,214,c)
);
},
{
closed = 1;
nodes = (
(131,261,o),
(82,316,o),
(82,392,cs),
(82,448,o),
(117,498,o),
(190,498,cs),
(268,498,o),
(322,441,o),
(322,369,cs),
(322,309,o),
(284,261,o),
(209,261,cs)
);
}
);
width = 463;
}
);
note = nine;
unicode = 57;
},
{
glyphname = colon;
layers = (
{
layerId = m01;
shapes = (
{
closed = 1;
nodes = (
(80,319,o),
(59,293,o),
(65,263,cs),
(70,233,o),
(99,208,o),
(128,208,cs),
(158,208,o),
(177,233,o),
(172,263,cs),
(167,293,o),
(138,319,o),
(109,319,cs)
);
},
{
closed = 1;
nodes = (
(118,99,o),
(98,74,o),
(103,44,cs),
(108,14,o),
(138,-11,o),
(167,-11,cs),
(197,-11,o),
(216,14,o),
(211,44,cs),
(206,74,o),
(177,99,o),
(148,99,cs)
);
}
);
width = 223;
}
);
note = colon;
unicode = 58;
},
{
glyphname = semicolon;
layers = (
{
layerId = m01;
shapes = (
{
closed = 1;
nodes = (
(1,-87,o),
(4,-88,o),
(7,-86,cs),
(48,-54,o),
(97,-9,o),
(97,48,cs),
(97,74,o),
(81,91,o),
(55,91,cs),
(23,91,o),
(0,63,o),
(0,33,cs),
(0,11,o),
(13,-4,o),
(33,-8,c),
(27,-25,o),
(15,-39,o),
(3,-49,cs),
(-8,-59,o),
(-11,-73,o),
(-1,-86,c)
);
},
{
closed = 1;
nodes = (
(118,219,o),
(139,248,o),
(139,277,cs),
(139,301,o),
(124,319,o),
(97,319,cs),
(66,319,o),
(42,292,o),
(42,262,cs),
(42,238,o),
(57,219,o),
(85,219,cs)
);
}
);
width = 162;
}
);
note = semicolon;
unicode = 59;
},
{
glyphname = less;
layers = (
{
layerId = m01;
shapes = (
{
closed = 1;
nodes = (
(393,377,ls),
(403,381,o),
(407,386,o),
(407,396,cs),
(407,445,ls),
(407,451,o),
(403,453,o),
(397,451,cs),
(45,303,ls),
(39,300,o),
(37,297,o),
(37,290,cs),
(37,251,ls),
(37,242,o),
(39,239,o),
(45,238,c),
(399,88,l),
(404,87,o),
(407,88,o),
(407,94,cs),
(407,99,ls),
(407,139,o),
(394,164,o),
(354,180,cs),
(133,271,l)
);
}
);
width = 450;
}
);
note = less;
unicode = 60;
},
{
glyphname = equal;
layers = (
{
layerId = m01;
shapes = (
{
closed = 1;
nodes = (
(358,325,ls),
(364,325,o),
(366,328,o),
(366,334,cs),
(366,343,ls),
(366,372,o),
(348,391,o),
(315,391,cs),
(45,391,ls),
(39,391,o),
(37,388,o),
(37,382,cs),
(37,334,ls),
(37,328,o),
(39,325,o),
(45,325,cs)
);
},
{
closed = 1;
nodes = (
(358,148,ls),
(364,148,o),
(366,151,o),
(366,157,cs),
(366,166,ls),
(366,195,o),
(348,214,o),
(315,214,cs),
(45,214,ls),
(39,214,o),
(37,211,o),
(37,205,cs),
(37,157,ls),
(37,151,o),
(39,148,o),
(45,148,cs)
);
}
);
width = 403;
}
);
note = equal;
unicode = 61;
},
{
glyphname = greater;
layers = (
{
layerId = m01;
shapes = (
{
closed = 1;
nodes = (
(97,180,ls),
(57,164,o),
(44,139,o),
(44,99,cs),
(44,94,ls),
(44,88,o),
(48,87,o),
(53,88,c),
(407,238,l),
(412,239,o),
(415,242,o),
(415,251,cs),
(415,290,ls),
(415,297,o),
(412,300,o),
(407,303,c),
(54,451,ls),
(49,453,o),
(44,451,o),
(44,445,cs),
(44,396,ls),
(44,386,o),
(49,381,o),
(58,377,cs),
(319,271,l)
);
}
);
width = 451;
}
);
note = greater;
unicode = 62;
},
{
glyphname = question;
layers = (
{
layerId = m01;
shapes = (
{
closed = 1;
nodes = (
(128,148,o),
(131,146,o),
(137,146,cs),
(183,146,ls),
(189,146,o),
(191,148,o),
(192,154,cs),
(197,183,ls),
(200,203,o),
(206,213,o),
(223,226,cs),
(302,282,o),
(391,336,o),
(391,441,cs),
(391,520,o),
(334,567,o),
(239,567,cs),
(189,567,o),
(150,554,o),
(115,539,cs),
(79,524,o),
(69,507,o),
(72,479,cs),
(74,459,ls),
(75,453,o),
(77,451,o),
(81,451,cs),
(85,451,o),
(89,453,o),
(95,456,cs),
(142,485,o),
(182,497,o),
(229,497,cs),
(286,497,o),
(316,472,o),
(316,426,cs),
(316,309,o),
(155,296,o),
(137,192,cs),
(130,154,l)
);
},
{
closed = 1;
nodes = (
(168,-10,o),
(189,20,o),
(189,49,cs),
(189,73,o),
(174,91,o),
(147,91,cs),
(117,91,o),
(92,63,o),
(92,34,cs),
(92,9,o),
(108,-10,o),
(135,-10,cs)
);
}
);
width = 387;
}
);
note = question;
unicode = 63;
},
{
glyphname = at;
layers = (
{
layerId = m01;
shapes = (
{
closed = 1;
nodes = (
(312,101,o),
(269,154,o),
(269,231,cs),
(269,299,o),
(300,344,o),
(358,344,cs),
(445,344,o),
(480,278,o),
(480,209,cs),
(480,145,o),
(445,101,o),
(377,101,cs)
);
},
{
closed = 1;
nodes = (
(504,68,o),
(536,35,o),
(587,35,cs),
(674,35,o),
(722,116,o),
(722,219,cs),
(722,422,o),
(570,568,o),
(358,568,cs),
(157,568,o),
(38,426,o),
(38,252,cs),
(38,29,o),
(198,-131,o),
(429,-131,cs),
(592,-131,o),
(678,-54,o),
(678,-15,cs),
(678,-9,o),
(677,2,o),
(669,2,cs),
(663,2,o),
(660,-2,o),
(654,-7,cs),
(622,-34,o),
(556,-69,o),
(429,-69,cs),
(238,-69,o),
(110,58,o),
(110,246,cs),
(110,397,o),
(194,507,o),
(363,507,cs),
(538,507,o),
(656,384,o),
(656,211,cs),
(656,138,o),
(635,96,o),
(592,96,cs),
(567,96,o),
(558,111,o),
(554,154,cs),
(534,393,ls),
(534,398,o),
(531,403,o),
(526,403,cs),
(520,403,ls),
(489,403,o),
(471,386,o),
(470,352,c),
(445,389,o),
(399,409,o),
(346,409,cs),
(259,409,o),
(194,330,o),
(194,231,cs),
(194,120,o),
(276,34,o),
(375,34,cs),
(442,34,o),
(479,68,o),
(495,103,c)
);
}
);
width = 766;
}
);
note = at;
unicode = 64;
},
{
glyphname = A;
kernLeft = A;
kernRight = A;
layers = (
{
layerId = m01;
shapes = (
{
closed = 1;
nodes = (
(287,463,l),
(330,221,l),
(159,221,l)
);
},
{
closed = 1;
nodes = (
(342,153,l),
(367,12,ls),
(368,4,o),
(370,0,o),
(381,0,cs),
(436,0,ls),
(442,0,o),
(445,4,o),
(444,9,cs),
(352,500,ls),
(344,544,o),
(328,556,o),
(291,556,cs),
(272,556,ls),
(266,556,o),
(263,553,o),
(259,548,c),
(-31,9,ls),
(-34,4,o),
(-33,0,o),
(-27,0,cs),
(33,0,ls),
(42,0,o),
(45,3,o),
(49,12,cs),
(123,153,l)
);
}
);
width = 495;
}
);
note = A;
unicode = 65;
},
{
glyphname = B;
layers = (
{
layerId = m01;
shapes = (
{
closed = 1;
nodes = (
(26,4,ls),
(26,1,o),
(30,0,o),
(32,0,cs),
(237,0,ls),
(355,0,o),
(432,69,o),
(432,176,cs),
(432,237,o),
(402,276,o),
(349,291,c),
(412,314,o),
(453,366,o),
(453,438,cs),
(453,511,o),
(398,556,o),
(309,556,cs),
(130,556,ls),
(124,556,o),
(121,553,o),
(120,547,cs),
(26,9,l)
);
},
{
closed = 1;
nodes = (
(143,258,l),
(267,258,ls),
(322,258,o),
(358,228,o),
(358,177,cs),
(358,104,o),
(315,68,o),
(233,68,cs),
(109,68,l)
);
},
{
closed = 1;
nodes = (
(184,488,l),
(301,488,ls),
(350,488,o),
(378,463,o),
(378,419,cs),
(378,362,o),
(339,325,o),
(279,325,cs),
(155,325,l)
);
}
);
width = 473;
}
);
note = B;
unicode = 66;
},
{
glyphname = C;
kernLeft = C;
kernRight = C;
layers = (
{
layerId = m01;
shapes = (
{
closed = 1;
nodes = (
(393,-11,o),
(463,88,o),
(463,128,cs),
(463,136,o),
(460,142,o),
(452,142,cs),
(447,142,o),
(443,140,o),
(435,132,cs),
(400,96,o),
(351,61,o),
(272,61,cs),
(176,61,o),
(131,119,o),
(131,224,cs),
(131,374,o),
(224,495,o),
(351,495,cs),
(405,495,o),
(444,478,o),
(478,452,cs),
(483,448,o),
(487,446,o),
(491,446,cs),
(496,446,o),
(500,449,o),
(502,456,c),
(511,477,ls),
(522,506,o),
(515,523,o),
(485,538,cs),
(451,553,o),
(414,567,o),
(361,567,cs),
(188,567,o),
(54,409,o),
(54,222,cs),
(54,74,o),
(131,-11,o),
(258,-11,cs)
);
}
);
width = 499;
}
);
note = C;
unicode = 67;
},
{
glyphname = D;
layers = (
{
layerId = m01;
shapes = (
{
closed = 1;
nodes = (
(184,485,l),
(265,485,ls),
(378,485,o),
(432,434,o),
(432,330,cs),
(432,170,o),
(345,71,o),
(205,71,cs),
(111,71,l)
);
},
{
closed = 1;
nodes = (
(195,0,ls),
(398,0,o),
(510,144,o),
(510,339,cs),
(510,473,o),
(423,556,o),
(282,556,cs),
(131,556,ls),
(125,556,o),
(122,553,o),
(121,547,cs),
(27,9,ls),
(26,4,o),
(26,0,o),
(33,0,cs)
);
}
);
width = 544;
}
);
note = D;
unicode = 68;
},
{
glyphname = E;
kernRight = E;
layers = (
{
layerId = m01;
shapes = (
{
closed = 1;
nodes = (
(142,242,l),
(339,242,ls),
(347,242,o),
(350,246,o),
(352,252,c),
(354,268,ls),
(359,296,o),
(347,312,o),
(318,312,cs),
(154,312,l),
(185,485,l),
(400,485,ls),
(407,485,o),
(412,489,o),
(413,496,cs),
(415,513,ls),
(420,541,o),
(408,556,o),
(380,556,cs),
(131,556,ls),
(125,556,o),
(123,553,o),
(122,547,cs),
(27,9,ls),
(26,3,o),
(27,0,o),
(33,0,cs),
(323,0,ls),
(331,0,o),
(334,4,o),
(336,11,cs),
(339,27,ls),
(343,54,o),
(332,71,o),
(303,71,cs),
(112,71,l)
);
}
);
width = 399;
}
);
note = E;
unicode = 69;
},
{
glyphname = F;
layers = (
{
layerId = m01;
shapes = (
{
closed = 1;
nodes = (
(336,239,ls),
(343,239,o),
(348,243,o),
(349,251,cs),
(352,266,ls),
(357,294,o),
(345,310,o),
(316,310,cs),
(153,310,l),
(184,485,l),
(399,485,ls),
(407,485,o),
(412,489,o),
(412,496,c),
(415,513,ls),
(420,541,o),
(407,556,o),
(379,556,cs),
(131,556,ls),
(125,556,o),
(122,553,o),
(121,547,cs),
(27,9,ls),
(26,3,o),
(27,0,o),
(33,0,cs),
(90,0,ls),
(97,0,o),
(99,3,o),
(100,9,cs),
(140,239,l)
);
}
);
width = 383;
}
);
note = F;
unicode = 70;
},
{
glyphname = G;
layers = (
{
layerId = m01;
shapes = (
{
closed = 1;
nodes = (
(373,77,o),
(327,61,o),
(269,61,cs),
(175,61,o),
(132,123,o),
(132,219,cs),
(132,378,o),
(228,495,o),
(360,495,cs),
(412,495,o),
(457,480,o),
(493,454,cs),
(498,451,o),
(502,448,o),
(506,448,cs),
(510,448,o),
(513,451,o),
(516,458,cs),
(525,479,ls),
(538,508,o),
(528,526,o),
(498,539,cs),
(465,556,o),
(427,567,o),
(370,567,cs),
(191,567,o),
(54,416,o),
(54,219,cs),
(54,76,o),
(133,-11,o),
(263,-11,cs),
(340,-11,o),
(400,13,o),
(450,54,cs),
(471,71,o),
(478,82,o),
(482,106,cs),
(515,285,l),
(515,291,o),
(513,295,o),
(506,295,cs),
(312,295,ls),
(305,295,o),
(300,291,o),
(298,284,c),
(297,268,ls),
(293,241,o),
(305,224,o),
(333,224,cs),
(434,224,l),
(413,107,l)
);
}
);
width = 552;
}
);
note = G;
unicode = 71;
},
{
glyphname = H;
layers = (
{
layerId = m01;
shapes = (
{
closed = 1;
nodes = (
(379,239,l),
(339,9,ls),
(338,3,o),
(339,0,o),
(345,0,cs),
(403,0,ls),
(407,0,o),
(412,3,o),
(412,9,c),
(496,485,ls),
(504,533,o),
(488,556,o),
(450,556,cs),
(443,556,ls),
(437,556,o),
(434,553,o),
(433,547,cs),
(392,310,l),
(153,310,l),
(184,485,ls),
(192,533,o),
(175,556,o),
(138,556,cs),
(131,556,ls),
(125,556,o),
(122,553,o),
(121,547,cs),
(27,9,ls),
(26,3,o),
(27,0,o),
(33,0,cs),
(90,0,ls),
(97,0,o),
(99,3,o),
(100,9,cs),
(141,239,l)
);
}
);
width = 514;
}
);
note = H;
unicode = 72;
},
{
glyphname = I;
kernRight = I;
layers = (
{
layerId = m01;
shapes = (
{
closed = 1;
nodes = (
(91,0,ls),
(97,0,o),
(99,3,o),
(100,9,cs),
(184,485,ls),
(193,533,o),
(175,556,o),
(138,556,cs),
(131,556,ls),
(125,556,o),
(123,553,o),
(122,547,cs),
(27,9,ls),
(26,3,o),
(27,0,o),
(33,0,cs)
);
}
);
width = 202;
}
);
note = I;
unicode = 73;
},
{
glyphname = J;
layers = (
{
layerId = m01;
shapes = (
{
closed = 1;
nodes = (
(-24,23,o),
(14,-10,o),
(65,-10,cs),
(147,-10,o),
(189,43,o),
(202,114,cs),
(267,485,ls),
(268,493,o),
(269,500,o),
(269,508,cs),
(269,546,o),
(248,556,o),
(214,556,cs),
(209,556,o),
(205,553,o),
(205,547,c),
(129,117,ls),
(122,78,o),
(101,54,o),
(62,54,cs),
(27,54,o),
(11,74,o),
(-1,91,c),
(-4,94,o),
(-6,97,o),
(-10,97,cs),
(-18,97,o),
(-24,86,o),
(-24,68,cs)
);
}
);
width = 283;
}
);
note = J;
unicode = 74;
},
{
glyphname = K;
layers = (
{
layerId = m01;
shapes = (
{
closed = 1;
nodes = (
(228,277,l),
(346,11,ls),
(349,3,o),
(353,0,o),
(363,0,cs),
(417,0,ls),
(424,0,o),
(426,5,o),
(424,10,cs),
(284,332,l),
(491,547,l),
(494,551,o),
(495,556,o),
(490,556,cs),
(424,556,ls),
(417,556,o),
(412,553,o),
(403,544,cs),
(148,282,l),
(184,485,ls),
(192,533,o),
(175,556,o),
(138,556,cs),
(131,556,ls),
(125,556,o),
(122,553,o),
(121,547,cs),
(27,9,ls),
(26,3,o),
(27,0,o),
(33,0,cs),
(90,0,ls),
(97,0,o),
(99,3,o),
(100,9,cs),
(130,178,l)
);
}
);
width = 474;
}
);
note = K;
unicode = 75;
},
{
glyphname = L;
layers = (
{
layerId = m01;
shapes = (
{
closed = 1;
nodes = (
(184,485,ls),
(192,533,o),
(175,556,o),
(138,556,cs),
(131,556,ls),
(125,556,o),
(122,553,o),
(121,547,cs),
(27,9,ls),
(26,3,o),
(27,0,o),
(33,0,cs),
(293,0,ls),
(300,0,o),
(304,4,o),
(305,11,cs),
(308,27,ls),
(313,54,o),
(302,71,o),
(273,71,cs),
(111,71,l)
);
}
);
width = 366;
}
);
note = L;
unicode = 76;
},
{
glyphname = M;
layers = (
{
layerId = m01;
shapes = (
{
closed = 1;
nodes = (
(230,511,ls),
(224,544,o),
(210,556,o),
(173,556,cs),
(141,556,ls),
(137,556,o),
(134,552,o),
(132,547,c),
(9,9,ls),
(8,3,o),
(9,0,o),
(13,0,cs),
(74,0,ls),
(78,0,o),
(81,3,o),
(82,9,cs),
(174,412,l),
(228,9,ls),
(229,4,o),
(232,0,o),
(236,0,cs),
(290,0,ls),
(296,0,o),
(301,3,o),
(304,9,cs),
(504,416,l),
(454,9,l),
(452,3,o),
(455,0,o),
(459,0,cs),
(518,0,ls),
(523,0,o),
(526,3,o),
(527,9,cs),
(586,500,ls),
(591,534,o),
(572,556,o),
(542,556,cs),
(511,556,ls),
(505,556,o),
(501,553,o),
(498,547,cs),
(285,108,l)
);
}
);
width = 612;
}
);
note = M;
unicode = 77;
},
{
glyphname = N;
kernRight = N;
layers = (
{
layerId = m01;
shapes = (
{
closed = 1;
nodes = (
(208,511,ls),
(195,542,o),
(185,556,o),
(148,556,cs),
(131,556,ls),
(125,556,o),
(123,553,o),
(122,547,cs),
(27,9,ls),
(26,3,o),
(27,0,o),
(33,0,cs),
(91,0,ls),
(97,0,o),
(99,3,o),
(100,9,cs),
(171,412,l),
(338,13,ls),
(342,3,o),
(347,0,o),
(357,0,cs),
(405,0,ls),
(411,0,o),
(413,3,o),
(414,9,cs),
(498,485,ls),
(507,533,o),
(490,556,o),
(452,556,cs),
(446,556,ls),
(442,556,o),
(438,553,o),
(437,547,cs),
(365,138,l)
);
}
);
width = 516;
}
);
note = N;
unicode = 78;
},
{
glyphname = O;
kernLeft = O;
kernRight = O;
layers = (
{
layerId = m01;
shapes = (
{
closed = 1;
nodes = (
(55,73,o),
(132,-10,o),
(259,-10,cs),
(445,-10,o),
(557,166,o),
(557,347,cs),
(557,483,o),
(479,567,o),
(357,567,cs),
(196,567,o),
(54,408,o),
(54,219,cs)
);
},
{
closed = 1;
nodes = (
(131,372,o),
(231,495,o),
(346,495,cs),
(432,495,o),
(480,443,o),
(480,347,cs),
(480,183,o),
(390,62,o),
(263,62,cs),
(178,62,o),
(132,117,o),
(131,219,cs)
);
}
);
width = 592;
}
);
note = O;
unicode = 79;
},
{
glyphname = P;
layers = (
{
layerId = m01;
shapes = (
{
closed = 1;
nodes = (
(259,203,ls),
(388,203,o),
(475,283,o),
(475,407,cs),
(475,504,o),
(403,556,o),
(310,556,cs),
(130,556,ls),
(124,556,o),
(121,553,o),
(120,547,cs),
(26,9,l),
(26,4,ls),
(26,1,o),
(30,0,o),
(32,0,cs),
(89,0,ls),
(95,0,o),
(98,3,o),
(99,9,cs),
(133,203,l)
);
},
{
closed = 1;
nodes = (
(183,485,l),
(308,485,ls),
(363,485,o),
(399,453,o),
(399,398,cs),
(399,318,o),
(348,273,o),
(267,273,cs),
(145,273,l)
);
}
);
width = 475;
}
);
note = P;
unicode = 80;
},
{
glyphname = Q;
layers = (
{
layerId = m01;
shapes = (
{
closed = 1;
nodes = (
(232,-73,o),
(277,-111,o),
(346,-111,cs),
(413,-111,o),
(482,-66,o),
(482,-17,cs),
(482,-11,o),
(482,-2,o),
(473,-2,cs),
(470,-2,o),
(467,-3,o),
(462,-7,cs),
(446,-20,o),
(416,-45,o),
(371,-45,cs),
(341,-45,o),
(321,-34,o),
(308,-6,c),
(465,22,o),
(557,183,o),
(557,347,cs),
(557,483,o),
(480,567,o),
(356,567,cs),
(195,567,o),
(54,408,o),
(54,219,cs),
(54,88,o),
(116,9,o),
(219,-7,c)
);
},
{
closed = 1;
nodes = (
(178,62,o),
(132,117,o),
(132,219,cs),
(132,372,o),
(231,495,o),
(346,495,cs),
(432,495,o),
(480,443,o),
(480,347,cs),
(480,183,o),
(390,62,o),
(263,62,cs)
);
}
);
width = 591;
}
);
note = Q;
unicode = 81;
},
{
glyphname = R;
layers = (
{
layerId = m01;
shapes = (
{
closed = 1;
nodes = (
(258,203,l),
(330,11,ls),
(333,3,o),
(339,0,o),
(347,0,cs),
(404,0,ls),
(409,0,o),
(410,3,o),
(409,6,cs),
(332,212,l),
(423,238,o),
(475,308,o),
(475,403,cs),
(475,494,o),
(415,556,o),
(313,556,cs),
(130,556,ls),
(124,556,o),
(121,553,o),
(120,547,cs),
(26,9,l),
(26,4,ls),
(26,1,o),
(30,0,o),
(32,0,cs),
(89,0,ls),
(95,0,o),
(98,3,o),
(99,9,cs),
(133,203,l)
);
},
{
closed = 1;
nodes = (
(183,485,l),
(309,485,ls),
(367,485,o),
(400,449,o),
(400,397,cs),
(400,315,o),
(347,273,o),
(267,273,cs),
(145,273,l)
);
}
);
width = 484;
}
);
note = R;
unicode = 82;
},
{
glyphname = S;
kernLeft = S;
kernRight = S;
layers = (
{
layerId = m01;
shapes = (
{
closed = 1;
nodes = (
(2,67,o),
(60,-11,o),
(180,-11,cs),
(315,-11,o),
(395,68,o),
(395,182,cs),
(395,321,o),
(142,303,o),
(142,411,cs),
(142,459,o),
(194,498,o),
(264,498,cs),
(317,498,o),
(364,481,o),
(400,455,cs),
(405,451,o),
(408,449,o),
(413,449,cs),
(418,449,o),
(420,453,o),
(423,459,c),
(429,477,ls),
(439,507,o),
(431,524,o),
(403,538,cs),
(369,554,o),
(327,567,o),
(275,567,cs),
(154,567,o),
(66,498,o),
(66,394,cs),
(66,242,o),
(318,266,o),
(318,163,cs),
(318,103,o),
(272,59,o),
(183,59,cs),
(103,59,o),
(60,97,o),
(30,147,cs),
(27,152,o),
(24,154,o),
(19,154,cs),
(8,154,o),
(1,141,o),
(2,121,cs)
);
}
);
width = 431;
}
);
note = S;
unicode = 83;
},
{
glyphname = T;
layers = (
{
layerId = m01;
shapes = (
{
closed = 1;
nodes = (
(137,9,l),
(135,3,o),
(138,0,o),
(144,0,cs),
(200,0,ls),
(206,0,o),
(209,3,o),
(210,9,cs),
(294,485,l),
(439,485,ls),
(445,485,o),
(450,489,o),
(452,496,cs),
(455,513,ls),
(459,541,o),
(447,556,o),
(418,556,cs),
(85,556,ls),
(80,556,o),
(77,553,o),
(76,547,cs),
(67,494,ls),
(66,488,o),
(67,485,o),
(72,485,cs),
(220,485,l)
);
}
);
width = 413;
}
);
note = T;
unicode = 84;
},
{
glyphname = U;
kernLeft = U;
kernRight = U;
layers = (
{
layerId = m01;
shapes = (
{
closed = 1;
nodes = (
(366,-10,o),
(444,67,o),
(468,201,cs),
(518,485,ls),
(526,533,o),
(509,556,o),
(472,556,cs),
(465,556,ls),
(459,556,o),
(457,553,o),
(456,547,cs),
(397,213,ls),
(378,108,o),
(333,61,o),
(254,61,cs),
(175,61,o),
(139,120,o),
(157,221,cs),
(204,485,ls),
(212,533,o),
(195,556,o),
(157,556,cs),
(151,556,ls),
(145,556,o),
(142,553,o),
(141,547,cs),
(84,223,ls),
(60,84,o),
(127,-10,o),
(249,-10,cs)
);
}
);
width = 517;
}
);
note = U;
unicode = 85;
},
{
glyphname = V;
layers = (
{
layerId = m01;
shapes = (
{
closed = 1;
nodes = (
(159,503,ls),
(153,547,o),
(137,556,o),
(106,556,cs),
(83,556,ls),
(78,556,o),
(75,551,o),
(76,546,cs),
(158,9,ls),
(159,4,o),
(162,0,o),
(168,0,cs),
(234,0,ls),
(239,0,o),
(242,2,o),
(246,9,cs),
(517,547,l),
(521,552,o),
(518,556,o),
(513,556,cs),
(458,556,ls),
(448,556,o),
(442,553,o),
(438,544,cs),
(216,89,l)
);
}
);
width = 467;
}
);
note = V;
unicode = 86;
},
{
glyphname = W;
layers = (
{
layerId = m01;
shapes = (
{
closed = 1;
nodes = (
(168,503,ls),
(165,547,o),
(146,556,o),
(115,556,cs),
(101,556,ls),
(95,556,o),
(92,551,o),
(92,546,cs),
(129,9,ls),
(129,4,o),
(131,0,o),
(139,0,cs),
(201,0,ls),
(207,0,o),
(211,3,o),
(213,9,cs),
(410,454,l),
(454,9,ls),
(454,4,o),
(455,0,o),
(463,0,cs),
(525,0,ls),
(531,0,o),
(534,3,o),
(537,9,cs),
(769,547,ls),
(771,553,o),
(770,556,o),
(765,556,cs),
(710,556,ls),
(700,556,o),
(695,552,o),
(691,544,cs),
(509,99,l),
(470,503,ls),
(466,547,o),
(451,556,o),
(421,556,cs),
(402,556,ls),
(393,556,o),
(388,552,o),
(384,544,cs),
(193,99,l)
);
}
);
width = 731;
}
);
note = W;
unicode = 87;
},
{
glyphname = X;
layers = (
{
layerId = m01;
shapes = (
{
closed = 1;
nodes = (
(332,12,ls),
(336,4,o),
(340,0,o),
(350,0,cs),
(403,0,ls),
(409,0,o),
(412,4,o),
(410,9,cs),
(286,282,l),
(488,547,l),
(493,552,o),
(491,556,o),
(487,556,cs),
(429,556,ls),
(420,556,o),
(415,552,o),
(408,544,cs),
(254,345,l),
(180,510,ls),
(162,549,o),
(152,556,o),
(119,556,cs),
(96,556,ls),
(90,556,o),
(87,549,o),
(89,546,c),
(201,301,l),
(-27,9,ls),
(-31,4,o),
(-30,0,o),
(-25,0,cs),
(35,0,ls),
(42,0,o),
(47,4,o),
(53,12,cs),
(230,236,l)
);
}
);
width = 460;
}
);
note = X;
unicode = 88;
},
{
glyphname = Y;
kernLeft = Y;
kernRight = Y;
layers = (
{
layerId = m01;
shapes = (
{
closed = 1;
nodes = (
(149,9,ls),
(148,3,o),
(149,0,o),
(155,0,cs),
(212,0,ls),
(218,0,o),
(220,3,o),
(221,9,cs),
(257,213,l),
(490,544,l),
(494,551,o),
(493,556,o),
(487,556,cs),
(430,556,ls),
(422,556,o),
(416,552,o),
(411,544,cs),
(234,286,l),
(158,506,ls),
(145,542,o),
(129,556,o),
(95,556,cs),
(75,556,ls),
(68,556,o),
(66,551,o),
(67,547,cs),
(185,213,l)
);
}
);
width = 432;
}
);
note = Y;
unicode = 89;
},
{
glyphname = Z;
kernLeft = Z;
kernRight = Z;
layers = (
{
layerId = m01;
shapes = (
{
closed = 1;
nodes = (
(427,455,ls),
(440,470,o),
(445,478,o),
(447,492,cs),
(450,505,ls),
(456,543,o),
(436,556,o),
(404,556,cs),
(105,556,ls),
(99,556,o),
(97,553,o),
(96,547,cs),
(86,494,ls),
(85,488,o),
(87,485,o),
(92,485,cs),
(364,485,l),
(21,88,ls),
(9,73,o),
(4,66,o),
(1,51,cs),
(-6,9,ls),
(-7,3,o),
(-6,0,o),
(0,0,cs),
(351,0,ls),
(358,0,o),
(362,4,o),
(364,11,c),
(366,27,ls),
(371,54,o),
(360,71,o),
(331,71,cs),
(94,71,l)
);
}
);
width = 432;
}
);
note = Z;
unicode = 90;
},
{
glyphname = bracketleft;
layers = (
{
layerId = m01;
shapes = (
{
closed = 1;
nodes = (
(324,-144,o),
(328,-139,o),
(327,-131,cs),
(326,-126,ls),
(321,-98,o),
(299,-80,o),
(267,-80,cs),
(221,-80,ls),
(209,-80,o),
(202,-72,o),
(200,-62,cs),
(81,614,ls),
(79,624,o),
(84,632,o),
(95,632,cs),
(141,632,ls),
(173,632,o),
(189,649,o),
(184,678,cs),
(183,683,ls),
(182,691,o),
(176,696,o),
(168,696,cs),
(61,696,ls),
(23,696,o),
(2,672,o),
(9,633,cs),
(135,-82,ls),
(141,-120,o),
(171,-144,o),
(210,-144,cs),
(316,-144,ls)
);
}
);
width = 356;
}
);
note = bracketleft;
unicode = 91;
},
{
glyphname = backslash;
layers = (
{
layerId = m01;
shapes = (
{
closed = 1;
nodes = (
(247,2,o),
(251,0,o),
(258,0,cs),
(317,0,ls),
(323,0,o),
(323,4,o),
(321,9,c),
(25,502,ls),
(2,539,o),
(-17,556,o),
(-59,556,cs),
(-74,556,ls),
(-81,556,o),
(-80,551,o),
(-78,547,cs),
(243,9,ls)
);
}
);
width = 254;
}
);
note = backslash;
unicode = 92;
},
{
glyphname = bracketright;
layers = (
{
layerId = m01;
shapes = (
{
closed = 1;
nodes = (
(300,-144,o),
(321,-120,o),
(315,-82,cs),
(188,633,ls),
(182,672,o),
(152,696,o),
(113,696,cs),
(7,696,ls),
(-2,696,o),
(-6,691,o),
(-4,683,cs),
(-3,678,ls),
(3,649,o),
(25,632,o),
(56,632,cs),
(102,632,ls),
(115,632,o),
(121,624,o),
(122,614,cs),
(242,-62,ls),
(243,-72,o),
(240,-80,o),
(227,-80,cs),
(181,-80,ls),
(150,-80,o),
(132,-98,o),
(138,-126,c),
(140,-131,l),
(141,-139,o),
(147,-144,o),
(155,-144,cs),
(261,-144,ls)
);
}
);
width = 319;
}
);
note = bracketright;
unicode = 93;
},
{
glyphname = asciicircum;
layers = (
{
layerId = m01;
shapes = (
{
closed = 1;
nodes = (
(307,282,ls),
(312,273,o),
(315,271,o),
(325,271,cs),
(375,271,ls),
(380,271,o),
(384,276,o),
(382,279,cs),
(257,512,ls),
(239,544,o),
(218,556,o),
(188,556,cs),
(177,556,o),
(173,553,o),
(169,544,cs),
(28,279,ls),
(26,276,o),
(28,271,o),
(34,271,cs),
(84,271,ls),
(94,271,o),
(98,273,o),
(102,282,cs),
(205,477,l)
);
}
);
width = 407;
}
);
note = asciicircum;
unicode = 94;
},
{
glyphname = underscore;
layers = (
{
layerId = m01;
shapes = (
{
closed = 1;
nodes = (
(340,-188,ls),
(346,-188,o),
(347,-186,o),
(348,-180,cs),
(357,-131,ls),
(358,-125,o),
(356,-122,o),
(351,-122,cs),
(-67,-122,ls),
(-73,-122,o),
(-75,-125,o),
(-76,-131,cs),
(-85,-180,ls),
(-86,-186,o),
(-84,-188,o),
(-78,-188,cs)
);
}
);
width = 418;
}
);
note = underscore;
unicode = 95;
},
{
glyphname = grave;
layers = (
{
layerId = m01;
shapes = (
{
closed = 1;
nodes = (
(95,506,ls),
(88,513,o),
(84,516,o),
(73,516,cs),
(10,516,ls),
(4,516,o),
(1,510,o),
(4,507,cs),
(72,441,ls),
(79,433,o),
(87,431,o),
(98,431,cs),
(149,431,ls),
(155,431,o),
(158,436,o),
(154,439,c)
);
}
);
width = 154;
}
);
note = grave;
unicode = 96;
},
{
glyphname = a;
kernLeft = a;
layers = (
{
layerId = m01;
shapes = (
{
closed = 1;
nodes = (
(286,9,ls),
(285,3,o),
(286,0,o),
(293,0,cs),
(349,0,ls),
(355,0,o),
(358,3,o),
(359,9,cs),
(420,360,ls),
(421,366,o),
(420,368,o),
(414,368,cs),
(409,368,ls),
(379,368,o),
(357,354,o),
(345,319,c),
(328,353,o),
(289,377,o),
(235,377,cs),
(125,377,o),
(27,277,o),
(28,148,cs),
(28,54,o),
(83,-9,o),
(165,-9,cs),
(213,-9,o),
(259,10,o),
(294,52,c)
);
},
{
closed = 1;
nodes = (
(102,226,o),
(151,308,o),
(235,308,cs),
(291,308,o),
(320,273,o),
(320,218,cs),
(320,139,o),
(275,59,o),
(184,59,cs),
(131,59,o),
(103,96,o),
(103,152,cs)
);
}
);
width = 449;
}
);
note = a;
unicode = 97;
},
{
glyphname = b;
layers = (
{
layerId = m01;
shapes = (
{
closed = 1;
nodes = (
(112,10,o),
(158,-9,o),
(208,-9,cs),
(320,-9,o),
(407,96,o),
(407,232,cs),
(407,317,o),
(353,377,o),
(269,377,cs),
(213,377,o),
(172,353,o),
(140,316,c),
(170,487,ls),
(178,534,o),
(161,556,o),
(124,556,cs),
(119,556,ls),
(112,556,o),
(110,553,o),
(109,547,cs),
(14,9,ls),
(13,3,o),
(14,0,o),
(20,0,cs),
(77,0,ls),
(82,0,o),
(86,3,o),
(87,9,cs),
(94,49,l)
);
},
{
closed = 1;
nodes = (
(150,59,o),
(115,97,o),
(115,151,cs),
(115,242,o),
(169,308,o),
(247,308,cs),
(304,308,o),
(332,276,o),
(332,214,cs),
(332,129,o),
(276,59,o),
(202,59,cs)
);
}
);
width = 450;
}
);
note = b;
unicode = 98;
},
{
glyphname = c;
kernLeft = c;
kernRight = c;
layers = (
{
layerId = m01;
shapes = (
{
closed = 1;
nodes = (
(258,-10,o),
(313,48,o),
(313,91,cs),
(313,97,o),
(310,101,o),
(304,101,cs),
(299,101,o),
(295,97,o),
(288,91,cs),
(263,68,o),
(226,54,o),
(190,54,cs),
(128,54,o),
(103,92,o),
(103,151,cs),
(103,241,o),
(159,308,o),
(233,308,cs),
(268,308,o),
(290,300,o),
(315,284,cs),
(318,282,o),
(321,281,o),
(323,281,cs),
(326,281,o),
(328,284,o),
(330,289,cs),
(338,307,ls),
(349,333,o),
(345,351,o),
(321,362,cs),
(299,372,o),
(276,377,o),
(247,377,cs),
(116,377,o),
(27,268,o),
(27,147,cs),
(27,56,o),
(77,-10,o),
(169,-10,cs)
);
}
);
width = 355;
}
);
note = c;
unicode = 99;
},
{
glyphname = d;
layers = (
{
layerId = m01;
shapes = (
{
closed = 1;
nodes = (
(328,349,o),
(293,377,o),
(235,377,cs),
(121,377,o),
(27,273,o),
(27,148,cs),
(27,52,o),
(81,-9,o),
(163,-9,cs),
(215,-9,o),
(259,10,o),
(293,52,c),
(285,9,l),
(285,3,o),
(285,0,o),
(291,0,cs),
(348,0,ls),
(353,0,o),
(357,3,o),
(358,9,cs),
(441,487,ls),
(450,534,o),
(431,556,o),
(395,556,cs),
(390,556,ls),
(384,556,o),
(381,553,o),
(380,547,cs),
(340,318,l)
);
},
{
closed = 1;
nodes = (
(134,59,o),
(103,92,o),
(103,154,cs),
(103,239,o),
(163,308,o),
(235,308,cs),
(290,308,o),
(319,274,o),
(319,217,cs),
(319,141,o),
(271,59,o),
(183,59,cs)
);
}
);
width = 446;
}
);
note = d;
unicode = 100;
},
{
glyphname = e;
kernLeft = e;
kernRight = e;
layers = (
{
layerId = m01;
shapes = (
{
closed = 1;
nodes = (
(339,159,ls),
(349,159,o),
(353,162,o),
(355,171,cs),
(363,199,o),
(367,219,o),
(368,249,cs),
(368,325,o),
(319,377,o),
(237,377,cs),
(124,377,o),
(29,284,o),
(28,154,cs),
(26,46,o),
(90,-9,o),
(180,-9,cs),
(272,-9,o),
(338,46,o),
(338,92,cs),
(338,97,o),
(335,101,o),
(330,101,cs),
(326,101,o),
(320,97,o),
(315,93,cs),
(284,73,o),
(253,54,o),
(198,54,cs),
(132,54,o),
(93,88,o),
(99,159,c)
);
},
{
closed = 1;
nodes = (
(127,276,o),
(167,313,o),
(225,313,cs),
(275,313,o),
(298,289,o),
(298,239,c),
(297,233,o),
(297,224,o),
(294,214,c),
(110,214,l)
);
}
);
width = 403;
}
);
note = e;
unicode = 101;
},
{
glyphname = f;
kernLeft = f;
layers = (
{
layerId = m01;
shapes = (
{
closed = 1;
nodes = (
(43,9,ls),
(42,3,o),
(43,0,o),
(49,0,cs),
(107,0,ls),
(112,0,o),
(115,3,o),
(116,9,cs),
(168,302,l),
(255,302,ls),
(260,302,o),
(262,304,o),
(263,310,cs),
(272,360,ls),
(273,366,o),
(272,368,o),
(267,368,cs),
(179,368,l),
(192,438,ls),
(199,480,o),
(217,498,o),
(243,498,cs),
(259,498,o),
(272,492,o),
(287,477,cs),
(292,472,o),
(295,471,o),
(298,471,cs),
(309,471,o),
(311,487,o),
(310,490,c),
(309,533,o),
(280,562,o),
(237,562,cs),
(181,562,o),
(134,524,o),
(119,442,cs),
(107,368,l),
(48,368,ls),
(43,368,o),
(41,366,o),
(39,360,c),
(31,310,ls),
(30,304,o),
(32,302,o),
(36,302,cs),
(95,302,l)
);
}
);
width = 279;
}
);
note = f;
unicode = 102;
},
{
glyphname = g;
layers = (
{
layerId = m01;
shapes = (
{
closed = 1;
nodes = (
(284,20,ls),
(269,-57,o),
(229,-101,o),
(142,-101,cs),
(81,-101,o),
(54,-78,o),
(28,-52,cs),
(24,-48,o),
(21,-45,o),
(16,-45,cs),
(6,-45,o),
(2,-61,o),
(2,-72,cs),
(2,-119,o),
(54,-171,o),
(148,-171,cs),
(267,-171,o),
(335,-106,o),
(355,12,cs),
(417,360,ls),
(418,366,o),
(415,368,o),
(410,368,cs),
(405,368,ls),
(375,368,o),
(354,354,o),
(343,319,c),
(324,355,o),
(286,377,o),
(238,377,cs),
(124,377,o),
(25,276,o),
(25,146,cs),
(25,59,o),
(70,-6,o),
(162,-6,cs),
(218,-6,o),
(261,16,o),
(291,54,c)
);
},
{
closed = 1;
nodes = (
(128,59,o),
(100,92,o),
(100,153,cs),
(100,239,o),
(159,308,o),
(231,308,cs),
(279,308,o),
(317,283,o),
(317,213,cs),
(317,125,o),
(258,59,o),
(181,59,cs)
);
}
);
width = 446;
}
);
note = g;
unicode = 103;
},
{
glyphname = h;
layers = (
{
layerId = m01;
shapes = (
{
closed = 1;
nodes = (
(170,487,ls),
(178,534,o),
(161,556,o),
(124,556,cs),
(119,556,ls),
(112,556,o),
(110,553,o),
(109,547,cs),
(14,9,ls),
(13,3,o),
(14,0,o),
(20,0,cs),
(77,0,ls),
(82,0,o),
(86,3,o),
(87,9,cs),
(120,199,ls),
(134,273,o),
(178,310,o),
(236,310,cs),
(285,310,o),
(307,285,o),
(307,238,cs),
(307,228,o),
(305,214,o),
(304,204,cs),
(270,9,ls),
(269,3,o),
(270,0,o),
(276,0,cs),
(332,0,ls),
(338,0,o),
(341,3,o),
(342,9,cs),
(378,216,ls),
(380,229,o),
(382,246,o),
(382,261,cs),
(382,326,o),
(338,377,o),
(266,377,cs),
(210,377,o),
(167,353,o),
(141,323,c)
);
}
);
width = 433;
}
);
note = h;
unicode = 104;
},
{
glyphname = i;
kernLeft = i;
kernRight = i;
layers = (
{
layerId = m01;
shapes = (
{
closed = 1;
nodes = (
(77,0,ls),
(83,0,o),
(85,3,o),
(86,9,cs),
(137,299,ls),
(146,346,o),
(127,368,o),
(90,368,cs),
(85,368,ls),
(79,368,o),
(77,366,o),
(76,360,cs),
(14,9,ls),
(13,3,o),
(14,0,o),
(20,0,cs)
);
},
{
closed = 1;
nodes = (
(81,437,o),
(96,422,o),
(118,422,cs),
(147,422,o),
(170,446,o),
(171,476,cs),
(171,498,o),
(155,513,o),
(132,513,cs),
(106,513,o),
(81,491,o),
(81,460,cs)
);
}
);
width = 176;
}
);
note = i;
unicode = 105;
},
{
glyphname = j;
layers = (
{
layerId = m01;
shapes = (
{
closed = 1;
nodes = (
(-125,-130,o),
(-106,-171,o),
(-49,-171,cs),
(12,-171,o),
(49,-130,o),
(63,-48,cs),
(124,299,ls),
(132,346,o),
(114,368,o),
(77,368,cs),
(72,368,ls),
(66,368,o),
(63,366,o),
(63,360,c),
(-8,-42,ls),
(-16,-84,o),
(-27,-106,o),
(-59,-106,cs),
(-81,-106,o),
(-92,-94,o),
(-106,-82,c),
(-109,-78,o),
(-111,-78,o),
(-114,-78,cs),
(-123,-78,o),
(-125,-94,o),
(-125,-101,cs)
);
},
{
closed = 1;
nodes = (
(133,422,o),
(157,446,o),
(157,476,cs),
(157,498,o),
(142,513,o),
(118,513,cs),
(92,513,o),
(68,491,o),
(68,460,cs),
(68,437,o),
(82,422,o),
(104,422,cs)
);
}
);
width = 163;
}
);
note = j;
unicode = 106;
},
{
glyphname = k;
layers = (
{
layerId = m01;
shapes = (
{
closed = 1;
nodes = (
(165,185,l),
(237,11,ls),
(240,3,o),
(244,0,o),
(254,0,cs),
(309,0,ls),
(314,0,o),
(316,5,o),
(315,9,c),
(220,234,l),
(361,360,l),
(363,363,o),
(364,368,o),
(358,368,cs),
(292,368,ls),
(282,368,o),
(279,367,o),
(269,358,cs),
(125,229,l),
(170,487,ls),
(178,534,o),
(161,556,o),
(124,556,cs),
(119,556,ls),
(112,556,o),
(110,553,o),
(109,547,cs),
(14,9,ls),
(13,3,o),
(14,0,o),
(20,0,cs),
(77,0,ls),
(82,0,o),
(86,3,o),
(87,9,cs),
(109,135,l)
);
}
);
width = 366;
}
);
note = k;
unicode = 107;
},
{
glyphname = l;
kernRight = l;
layers = (
{
layerId = m01;
shapes = (
{
closed = 1;
nodes = (
(29,19,o),
(59,-9,o),
(105,-9,cs),
(162,-9,o),
(201,36,o),
(202,81,cs),
(202,87,o),
(199,89,o),
(195,89,cs),
(191,89,o),
(187,87,o),
(184,83,c),
(167,68,o),
(154,59,o),
(136,59,cs),
(114,59,o),
(102,72,o),
(102,93,cs),
(102,98,o),
(104,106,o),
(105,111,cs),
(171,487,ls),
(179,534,o),
(161,556,o),
(124,556,cs),
(119,556,ls),
(113,556,o),
(110,553,o),
(109,547,cs),
(34,117,ls),
(31,101,o),
(28,86,o),
(28,74,cs)
);
}
);
width = 231;
}
);
note = l;
unicode = 108;
},
{
glyphname = m;
layers = (
{
layerId = m01;
shapes = (
{
closed = 1;
nodes = (
(137,351,o),
(120,368,o),
(90,368,cs),
(85,368,ls),
(79,368,o),
(77,366,o),
(76,360,cs),
(14,9,ls),
(13,3,o),
(14,0,o),
(20,0,cs),
(77,0,ls),
(82,0,o),
(86,3,o),
(87,9,cs),
(120,199,ls),
(132,272,o),
(175,309,o),
(232,309,cs),
(277,309,o),
(302,282,o),
(302,237,cs),
(302,228,o),
(300,214,o),
(299,203,c),
(265,9,ls),
(264,3,o),
(265,0,o),
(270,0,cs),
(328,0,ls),
(333,0,o),
(336,3,o),
(337,9,cs),
(370,199,ls),
(383,272,o),
(426,309,o),
(484,309,cs),
(530,309,o),
(553,284,o),
(553,238,cs),
(553,229,o),
(551,214,o),
(549,203,cs),
(515,9,ls),
(514,3,o),
(515,0,o),
(521,0,cs),
(577,0,ls),
(584,0,o),
(586,3,o),
(587,9,cs),
(624,216,l),
(625,229,o),
(627,243,o),
(627,257,cs),
(627,329,o),
(584,376,o),
(506,376,cs),
(442,376,o),
(398,343,o),
(366,305,c),
(353,347,o),
(315,376,o),
(257,376,cs),
(205,376,o),
(164,350,o),
(139,319,c)
);
}
);
width = 679;
}
);
note = m;
unicode = 109;
},
{
glyphname = n;
kernLeft = n;
kernRight = n;
layers = (
{
layerId = m01;
shapes = (
{
closed = 1;
nodes = (
(138,350,o),
(120,368,o),
(90,368,cs),
(85,368,ls),
(80,368,o),
(77,366,o),
(76,360,cs),
(14,9,ls),
(13,3,o),
(14,0,o),
(20,0,cs),
(77,0,ls),
(82,0,o),
(86,3,o),
(86,9,c),
(119,199,ls),
(132,273,o),
(177,310,o),
(235,310,cs),
(284,310,o),
(306,285,o),
(306,238,cs),
(306,228,o),
(304,214,o),
(302,204,cs),
(269,9,l),
(267,3,o),
(269,0,o),
(275,0,cs),
(331,0,ls),
(337,0,o),
(340,3,o),
(341,9,cs),
(377,216,ls),
(379,229,o),
(381,246,o),
(381,261,cs),
(381,326,o),
(337,377,o),
(265,377,cs),
(209,377,o),
(164,348,o),
(138,318,c)
);
}
);
width = 432;
}
);
note = n;
unicode = 110;
},
{
glyphname = o;
kernLeft = o;
kernRight = o;
layers = (
{
layerId = m01;
shapes = (
{
closed = 1;
nodes = (
(28,56,o),
(88,-9,o),
(179,-9,cs),
(315,-9,o),
(395,97,o),
(395,222,cs),
(395,314,o),
(337,377,o),
(244,377,cs),
(127,377,o),
(27,282,o),
(28,158,cs)
);
},
{
closed = 1;
nodes = (
(103,228,o),
(149,308,o),
(232,308,cs),
(289,308,o),
(319,272,o),
(320,214,cs),
(320,138,o),
(273,59,o),
(189,59,cs),
(133,59,o),
(103,97,o),
(103,156,cs)
);
}
);
width = 440;
}
);
note = o;
unicode = 111;
},
{
glyphname = p;
layers = (
{
layerId = m01;
shapes = (
{
closed = 1;
nodes = (
(112,12,o),
(153,-9,o),
(205,-9,cs),
(318,-9,o),
(404,93,o),
(404,228,cs),
(404,319,o),
(348,377,o),
(264,377,cs),
(210,377,o),
(164,350,o),
(135,316,c),
(134,344,o),
(123,368,o),
(88,368,cs),
(83,368,ls),
(76,368,o),
(74,366,o),
(74,360,c),
(-17,-151,ls),
(-18,-157,o),
(-16,-160,o),
(-10,-160,cs),
(46,-160,ls),
(53,-160,o),
(55,-157,o),
(55,-151,c),
(91,49,l)
);
},
{
closed = 1;
nodes = (
(144,59,o),
(112,97,o),
(112,159,cs),
(112,242,o),
(168,308,o),
(240,308,cs),
(298,308,o),
(330,277,o),
(330,213,cs),
(330,130,o),
(276,59,o),
(201,59,cs)
);
}
);
width = 447;
}
);
note = p;
unicode = 112;
},
{
glyphname = q;
layers = (
{
layerId = m01;
shapes = (
{
closed = 1;
nodes = (
(257,-151,ls),
(256,-157,o),
(258,-160,o),
(264,-160,cs),
(320,-160,ls),
(325,-160,o),
(328,-157,o),
(329,-151,cs),
(420,360,ls),
(421,366,o),
(418,368,o),
(413,368,cs),
(408,368,ls),
(378,368,o),
(356,354,o),
(345,319,c),
(326,356,o),
(288,377,o),
(239,377,cs),
(125,377,o),
(27,277,o),
(27,151,cs),
(27,45,o),
(85,-9,o),
(170,-9,cs),
(218,-9,o),
(259,10,o),
(293,52,c)
);
},
{
closed = 1;
nodes = (
(129,59,o),
(103,96,o),
(103,155,cs),
(103,241,o),
(158,308,o),
(232,308,cs),
(289,308,o),
(319,271,o),
(319,217,cs),
(319,126,o),
(265,59,o),
(188,59,cs)
);
}
);
width = 448;
}
);
note = q;
unicode = 113;
},
{
glyphname = r;
kernLeft = r;
layers = (
{
layerId = m01;
shapes = (
{
closed = 1;
nodes = (
(140,350,o),
(121,368,o),
(90,368,cs),
(85,368,ls),
(79,368,o),
(77,366,o),
(76,360,cs),
(14,9,ls),
(13,3,o),
(14,0,o),
(20,0,cs),
(77,0,ls),
(82,0,o),
(86,3,o),
(87,9,cs),
(117,184,ls),
(131,261,o),
(159,296,o),
(227,296,cs),
(251,296,ls),
(256,296,o),
(257,299,o),
(259,305,c),
(269,360,ls),
(270,366,o),
(267,368,o),
(262,368,cs),
(252,368,ls),
(201,368,o),
(169,356,o),
(139,315,c)
);
}
);
width = 271;
}
);
note = r;
unicode = 114;
},
{
glyphname = s;
kernLeft = s;
layers = (
{
layerId = m01;
shapes = (
{
closed = 1;
nodes = (
(264,287,o),
(266,285,o),
(269,285,cs),
(273,285,o),
(275,287,o),
(277,292,cs),
(282,304,ls),
(294,333,o),
(290,347,o),
(266,359,cs),
(245,369,o),
(212,377,o),
(180,377,cs),
(96,377,o),
(33,328,o),
(34,257,cs),
(35,155,o),
(192,167,o),
(193,107,cs),
(195,74,o),
(165,51,o),
(117,51,cs),
(64,51,o),
(37,76,o),
(17,101,c),
(15,102,o),
(13,106,o),
(9,106,cs),
(-4,106,o),
(-6,87,o),
(-5,78,c),
(-5,36,o),
(38,-11,o),
(118,-11,cs),
(214,-11,o),
(267,49,o),
(267,125,cs),
(267,219,o),
(107,213,o),
(107,268,cs),
(107,296,o),
(133,315,o),
(175,315,cs),
(208,315,o),
(233,305,o),
(261,288,c)
);
}
);
width = 307;
}
);
note = s;
unicode = 115;
},
{
glyphname = t;
layers = (
{
layerId = m01;
shapes = (
{
closed = 1;
nodes = (
(54,9,ls),
(53,3,o),
(54,0,o),
(60,0,cs),
(116,0,ls),
(122,0,o),
(125,3,o),
(126,9,cs),
(178,302,l),
(252,302,ls),
(259,302,o),
(260,304,o),
(261,310,cs),
(270,360,ls),
(271,366,o),
(270,368,o),
(264,368,cs),
(189,368,l),
(201,431,ls),
(209,478,o),
(191,501,o),
(153,501,cs),
(149,501,ls),
(142,501,o),
(140,498,o),
(139,492,cs),
(116,368,l),
(51,368,ls),
(45,368,o),
(44,366,o),
(43,360,cs),
(34,310,ls),
(33,304,o),
(34,302,o),
(40,302,cs),
(106,302,l)
);
}
);
width = 271;
}
);
note = t;
unicode = 116;
},
{
glyphname = u;
kernLeft = u;
kernRight = u;
layers = (
{
layerId = m01;
shapes = (
{
closed = 1;
nodes = (
(38,42,o),
(90,-10,o),
(180,-10,cs),
(274,-10,o),
(338,53,o),
(358,161,cs),
(382,299,ls),
(390,346,o),
(373,368,o),
(334,368,cs),
(329,368,ls),
(324,368,o),
(321,366,o),
(320,360,cs),
(285,161,ls),
(273,94,o),
(239,57,o),
(182,57,cs),
(135,57,o),
(109,84,o),
(109,133,cs),
(109,145,o),
(111,157,o),
(113,168,cs),
(136,299,ls),
(144,346,o),
(125,368,o),
(87,368,cs),
(83,368,ls),
(76,368,o),
(74,366,o),
(73,360,cs),
(42,182,ls),
(39,164,o),
(37,147,o),
(37,131,cs)
);
}
);
width = 419;
}
);
note = u;
unicode = 117;
},
{
glyphname = v;
layers = (
{
layerId = m01;
shapes = (
{
closed = 1;
nodes = (
(122,306,ls),
(116,355,o),
(101,368,o),
(62,368,cs),
(46,368,ls),
(42,368,o),
(40,365,o),
(41,360,cs),
(94,8,l),
(96,2,o),
(98,0,o),
(104,0,cs),
(169,0,ls),
(175,0,o),
(176,2,o),
(179,8,cs),
(363,360,ls),
(365,364,o),
(364,368,o),
(359,368,cs),
(302,368,ls),
(293,368,o),
(290,366,o),
(285,357,cs),
(151,82,l)
);
}
);
width = 353;
}
);
note = v;
unicode = 118;
},
{
glyphname = w;
layers = (
{
layerId = m01;
shapes = (
{
closed = 1;
nodes = (
(120,306,ls),
(116,354,o),
(98,368,o),
(59,368,cs),
(49,368,ls),
(43,368,o),
(42,364,o),
(42,360,cs),
(80,8,ls),
(81,3,o),
(84,0,o),
(91,0,cs),
(145,0,ls),
(151,0,o),
(154,3,o),
(156,8,cs),
(286,269,l),
(315,8,ls),
(316,3,o),
(319,0,o),
(325,0,cs),
(379,0,ls),
(386,0,o),
(389,3,o),
(391,8,cs),
(563,360,ls),
(566,365,o),
(564,368,o),
(558,368,cs),
(510,368,ls),
(500,368,o),
(496,366,o),
(493,357,c),
(369,96,l),
(348,306,ls),
(343,354,o),
(328,368,o),
(290,368,cs),
(280,368,ls),
(274,368,o),
(269,366,o),
(266,359,cs),
(138,96,l)
);
}
);
width = 559;
}
);
note = w;
unicode = 119;
},
{
glyphname = x;
layers = (
{
layerId = m01;
shapes = (
{
closed = 1;
nodes = (
(215,11,l),
(218,2,o),
(221,0,o),
(231,0,cs),
(283,0,ls),
(287,0,o),
(291,5,o),
(289,9,cs),
(206,187,l),
(342,360,ls),
(345,364,o),
(343,368,o),
(338,368,cs),
(287,368,ls),
(277,368,o),
(271,365,o),
(265,357,cs),
(177,244,l),
(144,313,ls),
(124,355,o),
(114,368,o),
(75,368,cs),
(55,368,ls),
(48,368,o),
(47,364,o),
(50,360,c),
(126,198,l),
(-27,9,ls),
(-31,5,o),
(-30,0,o),
(-26,0,cs),
(31,0,ls),
(38,0,o),
(43,3,o),
(50,11,cs),
(153,140,l)
);
}
);
width = 349;
}
);
note = x;
unicode = 120;
},
{
glyphname = y;
kernLeft = y;
kernRight = y;
layers = (
{
layerId = m01;
shapes = (
{
closed = 1;
nodes = (
(43,-84,o),
(24,-106,o),
(-11,-106,cs),
(-30,-106,o),
(-42,-98,o),
(-56,-81,cs),
(-58,-78,o),
(-61,-76,o),
(-65,-76,cs),
(-76,-76,o),
(-79,-92,o),
(-78,-99,c),
(-79,-139,o),
(-52,-171,o),
(-6,-171,cs),
(67,-171,o),
(103,-108,o),
(155,-9,cs),
(349,360,ls),
(351,364,o),
(350,368,o),
(346,368,cs),
(293,368,ls),
(283,368,o),
(280,366,o),
(275,357,cs),
(138,84,l),
(108,306,ls),
(103,354,o),
(87,368,o),
(47,368,cs),
(34,368,ls),
(29,368,o),
(27,364,o),
(27,360,c),
(84,-7,l)
);
}
);
width = 341;
}
);
note = y;
unicode = 121;
},
{
glyphname = z;
kernLeft = z;
kernRight = z;
layers = (
{
layerId = m01;
shapes = (
{
closed = 1;
nodes = (
(290,276,l),
(302,287,o),
(308,296,o),
(310,313,cs),
(318,354,o),
(307,368,o),
(268,368,cs),
(68,368,ls),
(62,368,o),
(60,366,o),
(59,360,cs),
(50,310,ls),
(49,304,o),
(50,302,o),
(56,302,cs),
(230,302,l),
(16,76,ls),
(4,63,o),
(0,58,o),
(-2,46,cs),
(-8,9,ls),
(-9,3,o),
(-8,0,o),
(-2,0,cs),
(248,0,ls),
(254,0,o),
(256,3,o),
(257,9,cs),
(265,57,l),
(267,63,o),
(265,66,o),
(259,66,cs),
(92,66,l)
);
}
);
width = 327;
}
);
note = z;
unicode = 122;
},
{
glyphname = braceleft;
layers = (
{
layerId = m01;
shapes = (
{
closed = 1;
nodes = (
(367,-144,o),
(371,-139,o),
(370,-131,cs),
(369,-126,ls),
(366,-98,o),
(341,-80,o),
(310,-80,cs),
(264,-80,ls),
(252,-80,o),
(245,-72,o),
(243,-62,cs),
(197,199,ls),
(189,244,o),
(171,264,o),
(154,276,c),
(166,288,o),
(178,308,o),
(171,352,cs),
(124,614,ls),
(123,624,o),
(126,632,o),
(138,632,cs),
(184,632,ls),
(216,632,o),
(231,649,o),
(227,678,c),
(227,683,ls),
(226,691,o),
(219,696,o),
(211,696,cs),
(105,696,ls),
(66,696,o),
(45,672,o),
(52,633,cs),
(100,357,ls),
(107,319,o),
(87,309,o),
(70,307,cs),
(63,306,o),
(59,301,o),
(60,294,cs),
(67,258,ls),
(68,251,o),
(73,246,o),
(81,245,cs),
(99,243,o),
(122,233,o),
(128,196,cs),
(177,-82,ls),
(184,-120,o),
(214,-144,o),
(253,-144,cs),
(359,-144,ls)
);
}
);
width = 399;
}
);
note = braceleft;
unicode = 123;
},
{
glyphname = bar;
layers = (
{
layerId = m01;
shapes = (
{
closed = 1;
nodes = (
(120,-149,ls),
(126,-149,o),
(129,-146,o),
(129,-140,cs),
(129,498,ls),
(129,544,o),
(106,567,o),
(70,567,cs),
(64,567,o),
(62,563,o),
(62,558,cs),
(62,-140,ls),
(62,-146,o),
(64,-149,o),
(70,-149,cs)
);
}
);
width = 190;
}
);
note = bar;
unicode = 124;
},
{
glyphname = braceright;
layers = (
{
layerId = m01;
shapes = (
{
closed = 1;
nodes = (
(300,-144,o),
(321,-120,o),
(315,-82,cs),
(266,196,ls),
(259,233,o),
(278,243,o),
(296,245,cs),
(303,246,o),
(307,251,o),
(306,258,cs),
(300,294,l),
(298,301,o),
(292,306,o),
(285,307,cs),
(267,309,o),
(244,319,o),
(237,357,cs),
(188,633,ls),
(182,672,o),
(152,696,o),
(113,696,cs),
(7,696,ls),
(-2,696,o),
(-6,691,o),
(-4,683,cs),
(-3,678,ls),
(3,649,o),
(25,632,o),
(56,632,cs),
(102,632,ls),
(115,632,o),
(121,624,o),
(122,614,cs),
(168,352,ls),
(176,308,o),
(195,288,o),
(211,276,c),
(200,264,o),
(188,244,o),
(196,199,cs),
(242,-62,ls),
(243,-72,o),
(240,-80,o),
(227,-80,cs),
(181,-80,ls),
(150,-80,o),
(132,-98,o),
(138,-126,c),
(140,-131,l),
(141,-139,o),
(147,-144,o),
(155,-144,cs),
(261,-144,ls)
);
}
);
width = 356;
}
);
note = braceright;
unicode = 125;
},
{
glyphname = asciitilde;
layers = (
{
layerId = m01;
shapes = (
{
closed = 1;
nodes = (
(320,290,o),
(302,283,o),
(271,283,cs),
(222,283,o),
(183,316,o),
(129,316,cs),
(99,316,o),
(76,307,o),
(52,288,cs),
(44,281,o),
(43,276,o),
(43,261,cs),
(43,219,ls),
(43,214,o),
(49,214,o),
(52,217,cs),
(78,242,o),
(97,248,o),
(129,248,cs),
(177,248,o),
(214,216,o),
(271,216,cs),
(304,216,o),
(324,224,o),
(346,243,cs),
(355,251,o),
(355,257,o),
(355,271,cs),
(355,312,ls),
(355,317,o),
(351,318,o),
(347,315,cs)
);
}
);
width = 398;
}
);
note = asciitilde;
unicode = 126;
},
{
glyphname = exclamdown;
layers = (
{
layerId = m01;
shapes = (
{
closed = 1;
nodes = (
(30,-189,ls),
(35,-189,o),
(38,-186,o),
(40,-180,c),
(93,151,ls),
(100,198,o),
(83,221,o),
(49,221,cs),
(43,221,o),
(42,218,o),
(41,213,cs),
(-35,-180,ls),
(-36,-186,o),
(-35,-189,o),
(-29,-189,cs)
);
},
{
closed = 1;
nodes = (
(120,276,o),
(141,306,o),
(141,335,cs),
(141,359,o),
(126,377,o),
(99,377,cs),
(68,377,o),
(43,350,o),
(43,320,cs),
(43,295,o),
(59,276,o),
(86,276,cs)
);
}
);
width = 157;
}
);
note = exclamdown;
unicode = 161;
},
{
glyphname = cent;
layers = (
{
layerId = m01;
shapes = (
{
closed = 1;
nodes = (
(341,3,o),
(368,42,o),
(368,74,cs),
(368,83,o),
(365,99,o),
(354,99,cs),
(349,99,o),
(347,96,o),
(344,92,cs),
(330,76,o),
(308,59,o),
(272,57,c),
(228,307,l),
(254,304,o),
(274,297,o),
(301,284,cs),
(303,283,o),
(306,282,o),
(308,282,cs),
(312,282,o),
(314,284,o),
(314,289,cs),
(315,307,ls),
(316,333,o),
(307,351,o),
(277,362,cs),
(257,369,o),
(239,374,o),
(216,376,c),
(207,429,ls),
(206,436,o),
(203,438,o),
(197,438,cs),
(162,438,ls),
(156,438,o),
(154,436,o),
(155,429,cs),
(165,374,l),
(87,359,o),
(40,298,o),
(40,209,cs),
(40,96,o),
(112,4,o),
(233,-9,c),
(242,-59,l),
(242,-66,o),
(246,-68,o),
(252,-68,cs),
(286,-68,ls),
(292,-68,o),
(294,-66,o),
(293,-59,cs),
(283,-7,l)
);
},
{
closed = 1;
nodes = (
(149,78,o),
(116,142,o),
(116,209,cs),
(116,261,o),
(139,295,o),
(177,304,c),
(219,61,l)
);
}
);
width = 363;
}
);
note = cent;
unicode = 162;
},
{
glyphname = sterling;
layers = (
{
layerId = m01;
shapes = (
{
closed = 1;
nodes = (
(247,93,o),
(253,121,o),
(253,153,cs),
(253,192,o),
(245,216,o),
(228,249,c),
(370,249,ls),
(378,249,o),
(380,253,o),
(379,261,cs),
(376,276,ls),
(371,303,o),
(353,319,o),
(323,319,cs),
(186,319,l),
(165,350,o),
(138,389,o),
(138,427,cs),
(138,474,o),
(167,498,o),
(225,498,cs),
(271,498,o),
(312,483,o),
(358,456,cs),
(364,452,o),
(369,450,o),
(373,450,cs),
(378,450,o),
(380,453,o),
(381,459,cs),
(385,480,ls),
(390,508,o),
(373,522,o),
(337,539,cs),
(304,556,o),
(266,567,o),
(213,567,cs),
(120,567,o),
(62,514,o),
(62,432,cs),
(62,389,o),
(78,358,o),
(106,319,c),
(41,319,ls),
(35,319,o),
(34,316,o),
(35,310,cs),
(44,258,ls),
(45,252,o),
(48,249,o),
(54,249,cs),
(151,249,l),
(171,219,o),
(181,194,o),
(181,151,cs),
(181,119,o),
(175,89,o),
(169,69,c),
(86,69,ls),
(80,69,o),
(78,67,o),
(78,61,c),
(87,9,ls),
(88,3,o),
(92,0,o),
(97,0,cs),
(464,0,ls),
(471,0,o),
(473,4,o),
(472,11,cs),
(469,26,ls),
(464,54,o),
(447,69,o),
(417,69,cs),
(241,69,l)
);
}
);
width = 475;
}
);
note = sterling;
unicode = 163;
},
{
glyphname = yen;
layers = (
{
layerId = m01;
shapes = (
{
closed = 1;
nodes = (
(244,9,ls),
(245,3,o),
(249,0,o),
(255,0,cs),
(308,0,ls),
(314,0,o),
(315,3,o),
(314,9,cs),
(293,128,l),
(437,128,ls),
(443,128,o),
(445,131,o),
(444,137,cs),
(437,178,l),
(435,184,o),
(433,187,o),
(427,187,cs),
(283,187,l),
(280,214,l),
(291,251,l),
(417,251,ls),
(422,251,o),
(423,253,o),
(422,259,cs),
(415,301,ls),
(414,307,o),
(412,309,o),
(405,309,cs),
(311,309,l),
(399,544,ls),
(401,551,o),
(398,556,o),
(389,556,cs),
(341,556,ls),
(331,556,o),
(328,552,o),
(325,544,cs),
(234,291,l),
(82,506,ls),
(57,542,o),
(34,556,o),
(-1,556,cs),
(-27,556,ls),
(-34,556,o),
(-34,551,o),
(-31,547,cs),
(139,309,l),
(44,309,ls),
(39,309,o),
(37,307,o),
(38,301,cs),
(45,259,ls),
(46,253,o),
(50,251,o),
(55,251,cs),
(182,251,l),
(207,213,l),
(214,187,l),
(65,187,ls),
(60,187,o),
(58,184,o),
(59,178,cs),
(67,137,ls),
(68,131,o),
(70,128,o),
(75,128,cs),
(224,128,l)
);
}
);
width = 472;
}
);
note = yen;
unicode = 165;
},
{
glyphname = brokenbar;
layers = (
{
layerId = m01;
shapes = (
{
closed = 1;
nodes = (
(120,263,ls),
(126,263,o),
(129,266,o),
(129,272,cs),
(129,498,ls),
(129,544,o),
(106,567,o),
(70,567,cs),
(64,567,o),
(62,563,o),
(62,558,cs),
(62,272,ls),
(62,266,o),
(64,263,o),
(70,263,cs)
);
},
{
closed = 1;
nodes = (
(120,-149,ls),
(126,-149,o),
(129,-146,o),
(129,-140,cs),
(129,145,ls),
(129,151,o),
(126,154,o),
(120,154,cs),
(70,154,ls),
(64,154,o),
(62,151,o),
(62,145,cs),
(62,-140,ls),
(62,-146,o),
(64,-149,o),
(70,-149,cs)
);
}
);
width = 190;
}
);
note = brokenbar;
unicode = 166;
},
{
glyphname = section;
layers = (
{
layerId = m01;
shapes = (
{
closed = 1;
nodes = (
(167,175,o),
(78,206,o),
(78,268,cs),
(78,299,o),
(101,322,o),
(123,338,c),
(167,317,o),
(253,289,o),
(253,229,cs),
(253,196,o),
(232,172,o),
(213,154,c)
);
},
{
closed = 1;
nodes = (
(296,144,o),
(325,185,o),
(325,234,cs),
(325,374,o),
(77,384,o),
(77,469,cs),
(77,492,o),
(93,507,o),
(132,507,cs),
(163,507,o),
(198,498,o),
(231,479,c),
(233,477,o),
(238,475,o),
(241,475,cs),
(243,475,o),
(243,477,o),
(244,482,cs),
(247,494,ls),
(251,518,o),
(244,533,o),
(213,548,cs),
(191,559,o),
(159,567,o),
(118,567,cs),
(49,567,o),
(0,528,o),
(0,472,cs),
(0,421,o),
(32,396,o),
(72,368,c),
(42,348,o),
(7,316,o),
(7,268,cs),
(7,118,o),
(271,106,o),
(271,15,cs),
(271,-17,o),
(252,-38,o),
(203,-38,cs),
(149,-38,o),
(107,-12,o),
(74,15,cs),
(69,19,o),
(64,17,o),
(63,11,cs),
(61,-1,l),
(54,-25,o),
(68,-43,o),
(96,-62,cs),
(125,-82,o),
(165,-98,o),
(213,-98,cs),
(301,-98,o),
(347,-49,o),
(347,11,cs),
(347,67,o),
(312,96,o),
(267,123,c)
);
}
);
width = 421;
}
);
note = section;
unicode = 167;
},
{
glyphname = dieresis;
layers = (
{
layerId = m01;
shapes = (
{
closed = 1;
nodes = (
(2,436,o),
(15,422,o),
(38,422,cs),
(67,422,o),
(90,446,o),
(91,476,cs),
(91,498,o),
(77,513,o),
(53,513,cs),
(24,513,o),
(1,488,o),
(1,460,cs)
);
},
{
closed = 1;
nodes = (
(134,436,o),
(148,422,o),
(170,422,cs),
(199,422,o),
(222,446,o),
(223,476,cs),
(223,498,o),
(209,513,o),
(185,513,cs),
(156,513,o),
(133,488,o),
(133,460,cs)
);
}
);
width = 223;
}
);
note = dieresis;
unicode = 168;
},
{
glyphname = copyright;
layers = (
{
layerId = m01;
shapes = (
{
closed = 1;
nodes = (
(386,116,o),
(475,206,o),
(475,340,cs),
(475,474,o),
(386,563,o),
(252,563,cs),
(118,563,o),
(30,474,o),
(30,340,cs),
(30,206,o),
(118,116,o),
(252,116,cs)
);
},
{
closed = 1;
nodes = (
(144,159,o),
(73,231,o),
(73,340,cs),
(73,448,o),
(144,521,o),
(252,521,cs),
(361,521,o),
(431,448,o),
(431,340,cs),
(431,231,o),
(361,159,o),
(252,159,cs)
);
},
{
closed = 1;
nodes = (
(327,402,o),
(330,404,o),
(331,412,cs),
(333,431,ls),
(334,439,o),
(328,446,o),
(316,451,cs),
(300,458,o),
(284,463,o),
(261,463,cs),
(198,463,o),
(146,416,o),
(146,340,cs),
(146,266,o),
(191,219,o),
(256,219,cs),
(307,219,o),
(339,257,o),
(340,285,cs),
(340,289,o),
(338,293,o),
(334,293,cs),
(332,293,o),
(330,293,o),
(327,289,cs),
(310,268,o),
(289,257,o),
(262,257,cs),
(219,257,o),
(191,286,o),
(191,339,cs),
(191,393,o),
(219,423,o),
(262,423,cs),
(285,423,o),
(303,417,o),
(320,406,cs)
);
}
);
width = 505;
}
);
note = copyright;
unicode = 169;
},
{
glyphname = ordfeminine;
layers = (
{
layerId = m01;
shapes = (
{
closed = 1;
nodes = (
(260,262,o),
(260,261,o),
(264,261,cs),
(315,261,ls),
(317,261,o),
(320,262,o),
(321,266,cs),
(369,544,ls),
(370,548,o),
(368,551,o),
(365,551,cs),
(360,551,ls),
(336,551,o),
(317,539,o),
(308,513,c),
(293,539,o),
(264,558,o),
(219,558,cs),
(128,558,o),
(49,475,o),
(49,379,cs),
(49,304,o),
(95,253,o),
(162,253,cs),
(201,253,o),
(239,268,o),
(266,300,c),
(260,266,l)
);
},
{
closed = 1;
nodes = (
(137,310,o),
(114,337,o),
(114,382,cs),
(114,447,o),
(160,500,o),
(217,500,cs),
(248,500,o),
(286,486,o),
(286,431,cs),
(286,369,o),
(247,310,o),
(178,310,cs)
);
}
);
width = 334;
}
);
note = ordfeminine;
unicode = 170;
},
{
glyphname = guillemotleft;
layers = (
{
layerId = m01;
shapes = (
{
closed = 1;
nodes = (
(347,329,l),
(349,334,o),
(345,338,o),
(339,338,cs),
(288,338,ls),
(279,338,o),
(276,337,o),
(270,328,cs),
(194,203,ls),
(191,198,o),
(189,194,o),
(189,189,cs),
(189,183,o),
(193,178,o),
(197,173,cs),
(313,49,ls),
(320,41,o),
(325,39,o),
(334,39,cs),
(392,39,ls),
(398,39,o),
(400,43,o),
(396,48,cs),
(261,191,l)
);
},
{
closed = 1;
nodes = (
(193,329,ls),
(196,334,o),
(192,338,o),
(187,338,cs),
(135,338,ls),
(125,338,o),
(123,337,o),
(117,328,cs),
(41,203,ls),
(38,198,o),
(36,194,o),
(36,189,cs),
(36,183,o),
(40,178,o),
(44,173,cs),
(159,49,l),
(168,41,o),
(172,39,o),
(182,39,cs),
(239,39,ls),
(245,39,o),
(248,43,o),
(243,48,cs),
(108,191,l)
);
}
);
width = 389;
}
);
note = guillemotleft;
unicode = 171;
},
{
glyphname = uni00AD;
layers = (
{
layerId = m01;
shapes = (
{
closed = 1;
nodes = (
(266,229,ls),
(265,236,o),
(263,238,o),
(257,238,cs),
(45,238,ls),
(39,238,o),
(37,236,o),
(38,229,cs),
(48,177,ls),
(49,171,o),
(51,168,o),
(57,168,cs),
(269,168,ls),
(275,168,o),
(276,171,o),
(276,177,c)
);
}
);
width = 305;
}
);
note = uni00AD;
unicode = 173;
},
{
glyphname = registered;
layers = (
{
layerId = m01;
shapes = (
{
closed = 1;
nodes = (
(386,116,o),
(475,206,o),
(475,340,cs),
(475,474,o),
(386,563,o),
(252,563,cs),
(118,563,o),
(30,474,o),
(30,340,cs),
(30,206,o),
(118,116,o),
(252,116,cs)
);
},
{
closed = 1;
nodes = (
(144,159,o),
(73,231,o),
(73,340,cs),
(73,448,o),
(144,521,o),
(252,521,cs),
(361,521,o),
(431,448,o),
(431,340,cs),
(431,231,o),
(361,159,o),
(252,159,cs)
);
},
{
closed = 1;
nodes = (
(209,421,l),
(256,421,ls),
(286,421,o),
(307,413,o),
(307,384,cs),
(307,354,o),
(286,343,o),
(253,343,cs),
(209,343,l)
);
},
{
closed = 1;
nodes = (
(257,306,l),
(304,229,ls),
(307,224,o),
(309,224,o),
(315,224,cs),
(349,224,ls),
(352,224,o),
(354,227,o),
(352,228,c),
(298,310,l),
(330,322,o),
(349,348,o),
(349,384,cs),
(349,431,o),
(319,458,o),
(258,458,cs),
(171,458,ls),
(169,458,o),
(168,456,o),
(168,453,cs),
(168,228,ls),
(168,226,o),
(169,224,o),
(171,224,cs),
(206,224,ls),
(208,224,o),
(209,226,o),
(209,228,cs),
(209,306,l)
);
}
);
width = 505;
}
);
note = registered;
unicode = 174;
},
{
glyphname = macron;
layers = (
{
layerId = m01;
shapes = (
{
closed = 1;
nodes = (
(215,431,ls),
(220,431,o),
(225,433,o),
(225,439,c),
(233,478,ls),
(234,484,o),
(230,486,o),
(225,486,cs),
(18,486,ls),
(12,486,o),
(10,484,o),
(9,478,cs),
(2,439,ls),
(1,433,o),
(2,431,o),
(8,431,cs)
);
}
);
width = 233;
}
);
note = macron;
unicode = 175;
},
{
glyphname = degree;
layers = (
{
layerId = m01;
shapes = (
{
closed = 1;
nodes = (
(191,369,o),
(234,414,o),
(234,475,cs),
(234,537,o),
(191,581,o),
(129,581,cs),
(66,581,o),
(23,537,o),
(23,475,cs),
(23,414,o),
(66,369,o),
(129,369,cs)
);
},
{
closed = 1;
nodes = (
(96,414,o),
(74,441,o),
(74,475,cs),
(74,508,o),
(96,534,o),
(129,534,cs),
(161,534,o),
(183,508,o),
(183,475,cs),
(183,441,o),
(161,414,o),
(129,414,cs)
);
}
);
width = 257;
}
);
note = degree;
unicode = 176;
},
{
glyphname = plusminus;
layers = (
{
layerId = m01;
shapes = (
{
closed = 1;
nodes = (
(168,130,ls),
(168,124,o),
(170,122,o),
(176,122,cs),
(227,122,ls),
(233,122,o),
(235,124,o),
(235,130,cs),
(235,267,l),
(358,267,ls),
(364,267,o),
(366,271,o),
(366,276,cs),
(366,324,ls),
(366,330,o),
(364,333,o),
(358,333,cs),
(235,333,l),
(235,418,ls),
(235,461,o),
(218,479,o),
(176,479,cs),
(170,479,o),
(168,476,o),
(168,470,cs),
(168,333,l),
(45,333,ls),
(39,333,o),
(37,330,o),
(37,324,cs),
(37,276,ls),
(37,271,o),
(39,267,o),
(45,267,cs),
(168,267,l)
);
},
{
closed = 1;
nodes = (
(358,0,ls),
(364,0,o),
(366,3,o),
(366,9,cs),
(366,18,ls),
(366,47,o),
(348,66,o),
(315,66,cs),
(45,66,ls),
(39,66,o),
(37,63,o),
(37,57,cs),
(37,9,ls),
(37,3,o),
(39,0,o),
(45,0,cs)
);
}
);
width = 403;
}
);
note = plusminus;
unicode = 177;
},
{
glyphname = twosuperior;
layers = (
{
layerId = m01;
shapes = (
{
closed = 1;
nodes = (
(94,340,o),
(227,362,o),
(227,458,cs),
(227,523,o),
(177,563,o),
(92,563,cs),
(59,563,o),
(28,556,o),
(5,542,cs),
(-15,529,o),
(-17,519,o),
(-7,502,cs),
(3,486,ls),
(6,482,o),
(12,481,o),
(15,483,cs),
(22,489,o),
(53,510,o),
(94,510,cs),
(140,510,o),
(164,491,o),
(164,454,cs),
(164,386,o),
(31,384,o),
(31,269,cs),
(31,259,o),
(32,249,o),
(34,238,c),
(34,234,o),
(36,233,o),
(40,233,cs),
(262,233,ls),
(267,233,o),
(269,234,o),
(269,238,c),
(265,254,ls),
(261,280,o),
(245,286,o),
(222,286,cs),
(99,286,l)
);
}
);
width = 297;
}
);
note = twosuperior;
unicode = 178;
},
{
glyphname = threesuperior;
layers = (
{
layerId = m01;
shapes = (
{
closed = 1;
nodes = (
(61,398,ls),
(65,379,o),
(79,374,o),
(96,374,cs),
(129,374,ls),
(167,374,o),
(205,365,o),
(205,326,cs),
(205,297,o),
(186,278,o),
(139,278,cs),
(101,278,o),
(69,291,o),
(41,319,cs),
(37,323,o),
(34,325,o),
(31,325,cs),
(27,325,o),
(25,321,o),
(25,316,cs),
(25,292,o),
(64,227,o),
(152,227,cs),
(226,227,o),
(266,263,o),
(266,320,cs),
(266,369,o),
(230,398,o),
(184,404,c),
(213,417,o),
(228,444,o),
(228,471,cs),
(228,526,o),
(180,563,o),
(100,563,cs),
(65,563,o),
(36,556,o),
(12,544,cs),
(-7,534,o),
(-12,522,o),
(-2,506,cs),
(8,490,ls),
(12,483,o),
(19,482,o),
(23,485,cs),
(43,499,o),
(67,512,o),
(100,512,cs),
(144,512,o),
(169,495,o),
(169,466,cs),
(169,441,o),
(149,426,o),
(115,426,cs),
(62,426,ls),
(58,426,o),
(57,423,o),
(58,419,cs)
);
}
);
width = 309;
}
);
note = threesuperior;
unicode = 179;
},
{
glyphname = acute;
layers = (
{
layerId = m01;
shapes = (
{
closed = 1;
nodes = (
(0,436,o),
(1,431,o),
(7,431,cs),
(58,431,ls),
(69,431,o),
(77,433,o),
(88,441,cs),
(178,507,ls),
(183,510,o),
(182,516,o),
(176,516,cs),
(112,516,ls),
(102,516,o),
(96,513,o),
(87,506,cs),
(4,439,ls)
);
}
);
width = 181;
}
);
note = acute;
unicode = 180;
},
{
glyphname = paragraph;
layers = (
{
layerId = m01;
shapes = (
{
closed = 1;
nodes = (
(250,8,ls),
(251,3,o),
(252,0,o),
(257,0,cs),
(291,0,ls),
(297,0,o),
(300,3,o),
(299,8,cs),
(211,504,l),
(275,504,l),
(362,8,ls),
(363,3,o),
(365,0,o),
(370,0,cs),
(404,0,ls),
(410,0,o),
(412,3,o),
(411,8,cs),
(327,478,ls),
(317,534,o),
(289,556,o),
(239,556,cs),
(168,556,ls),
(52,556,o),
(3,483,o),
(3,407,cs),
(3,291,o),
(84,221,o),
(203,221,cs),
(212,221,l)
);
}
);
width = 434;
}
);
note = paragraph;
unicode = 182;
},
{
glyphname = periodcentered;
layers = (
{
layerId = m01;
shapes = (
{
closed = 1;
nodes = (
(111,229,o),
(132,259,o),
(132,288,cs),
(132,312,o),
(117,330,o),
(91,330,cs),
(59,330,o),
(35,303,o),
(35,273,cs),
(35,248,o),
(51,229,o),
(78,229,cs)
);
}
);
width = 146;
}
);
note = periodcentered;
unicode = 183;
},
{
glyphname = cedilla;
layers = (
{
layerId = m01;
shapes = (
{
closed = 1;
nodes = (
(54,-98,ls),
(66,-98,o),
(73,-97,o),
(79,-87,cs),
(133,-3,ls),
(136,1,o),
(136,5,o),
(131,5,cs),
(97,5,ls),
(87,5,o),
(78,4,o),
(69,-6,cs),
(3,-89,ls),
(0,-93,o),
(1,-98,o),
(6,-98,cs)
);
}
);
width = 134;
}
);
note = cedilla;
unicode = 184;
},
{
glyphname = onesuperior;
layers = (
{
layerId = m01;
shapes = (
{
closed = 1;
nodes = (
(98,241,ls),
(99,236,o),
(102,233,o),
(107,233,cs),
(155,233,ls),
(160,233,o),
(162,236,o),
(161,241,cs),
(112,523,ls),
(108,544,o),
(94,556,o),
(74,556,cs),
(50,556,ls),
(41,556,o),
(31,554,o),
(21,551,cs),
(-13,538,ls),
(-18,536,o),
(-19,532,o),
(-18,526,cs),
(-9,484,ls),
(-8,480,o),
(-5,478,o),
(-2,479,cs),
(53,500,l)
);
}
);
width = 214;
}
);
note = onesuperior;
unicode = 185;
},
{
glyphname = ordmasculine;
layers = (
{
layerId = m01;
shapes = (
{
closed = 1;
nodes = (
(278,253,o),
(347,342,o),
(347,442,cs),
(347,514,o),
(300,558,o),
(224,558,cs),
(127,558,o),
(49,478,o),
(49,378,cs),
(49,305,o),
(96,253,o),
(171,253,cs)
);
},
{
closed = 1;
nodes = (
(137,312,o),
(114,337,o),
(114,382,cs),
(114,449,o),
(157,500,o),
(215,500,cs),
(259,500,o),
(283,476,o),
(283,431,cs),
(283,371,o),
(245,312,o),
(177,312,cs)
);
}
);
width = 329;
}
);
note = ordmasculine;
unicode = 186;
},
{
glyphname = guillemotright;
layers = (
{
layerId = m01;
shapes = (
{
closed = 1;
nodes = (
(65,48,ls),
(62,43,o),
(65,39,o),
(72,39,cs),
(123,39,ls),
(132,39,o),
(135,40,o),
(141,49,cs),
(217,174,ls),
(220,179,o),
(222,183,o),
(222,188,cs),
(222,194,o),
(218,199,o),
(214,204,cs),
(99,328,l),
(90,336,o),
(85,338,o),
(77,338,cs),
(19,338,ls),
(13,338,o),
(11,334,o),
(15,329,cs),
(150,186,l)
);
},
{
closed = 1;
nodes = (
(218,48,ls),
(215,43,o),
(219,39,o),
(225,39,cs),
(277,39,ls),
(285,39,o),
(288,40,o),
(294,49,cs),
(370,174,ls),
(373,179,o),
(375,183,o),
(375,188,cs),
(375,194,o),
(371,199,o),
(367,204,cs),
(252,328,ls),
(244,336,o),
(239,338,o),
(230,338,cs),
(172,338,ls),
(166,338,o),
(163,334,o),
(168,329,cs),
(303,186,l)
);
}
);
width = 389;
}
);
note = guillemotright;
unicode = 187;
},
{
glyphname = onequarter;
layers = (
{
layerId = m01;
shapes = (
{
closed = 1;
nodes = (
(547,6,l),
(547,2,o),
(549,0,o),
(554,0,cs),
(602,0,ls),
(605,0,o),
(608,2,o),
(607,6,cs),
(595,73,l),
(638,73,ls),
(643,73,o),
(645,76,o),
(644,79,c),
(641,98,ls),
(638,116,o),
(626,124,o),
(608,124,cs),
(587,124,l),
(557,295,ls),
(553,315,o),
(540,323,o),
(522,323,cs),
(486,323,ls),
(475,323,o),
(471,319,o),
(467,312,cs),
(368,123,ls),
(364,116,o),
(364,112,o),
(365,106,cs),
(370,79,l),
(370,76,o),
(372,73,o),
(377,73,cs),
(535,73,l)
);
},
{
closed = 1;
nodes = (
(410,496,ls),
(423,531,o),
(409,556,o),
(378,556,cs),
(370,556,o),
(369,553,o),
(367,547,cs),
(166,9,ls),
(164,4,o),
(166,0,o),
(172,0,cs),
(220,0,ls),
(225,0,o),
(228,3,o),
(229,9,c)
);
},
{
closed = 1;
nodes = (
(501,267,l),
(526,124,l),
(425,124,l)
);
},
{
closed = 1;
nodes = (
(98,241,l),
(98,236,o),
(102,233,o),
(107,233,cs),
(155,233,ls),
(160,233,o),
(162,236,o),
(161,241,cs),
(112,523,l),
(107,544,o),
(94,556,o),
(74,556,cs),
(50,556,ls),
(41,556,o),
(31,554,o),
(21,551,cs),
(-13,538,ls),
(-18,536,o),
(-19,532,o),
(-18,526,cs),
(-9,484,ls),
(-8,480,o),
(-5,478,o),
(-2,479,cs),
(53,500,l)
);
}
);
width = 660;
}
);
note = onequarter;
unicode = 188;
},
{
glyphname = onehalf;
layers = (
{
layerId = m01;
shapes = (
{
closed = 1;
nodes = (
(410,496,ls),
(423,531,o),
(409,556,o),
(378,556,cs),
(370,556,o),
(369,553,o),
(367,547,cs),
(166,9,ls),
(164,4,o),
(166,0,o),
(172,0,cs),
(220,0,ls),
(225,0,o),
(228,3,o),
(229,9,c)
);
},
{
closed = 1;
nodes = (
(98,241,l),
(98,236,o),
(102,233,o),
(107,233,cs),
(155,233,ls),
(160,233,o),
(162,236,o),
(161,241,cs),
(112,523,l),
(107,544,o),
(94,556,o),
(74,556,cs),
(50,556,ls),
(41,556,o),
(31,554,o),
(21,551,cs),
(-13,538,ls),
(-18,536,o),
(-19,532,o),
(-18,526,cs),
(-9,484,ls),
(-8,480,o),
(-5,478,o),
(-2,479,cs),
(53,500,l)
);
},
{
closed = 1;
nodes = (
(515,107,o),
(648,129,o),
(648,226,cs),
(648,290,o),
(598,331,o),
(514,331,cs),
(480,331,o),
(449,323,o),
(427,309,cs),
(407,297,o),
(404,286,o),
(414,269,cs),
(424,253,ls),
(427,249,o),
(433,248,o),
(437,251,cs),
(443,257,o),
(474,277,o),
(515,277,cs),
(562,277,o),
(585,258,o),
(585,222,cs),
(585,153,o),
(452,151,o),
(452,37,cs),
(452,27,o),
(454,17,o),
(455,6,cs),
(456,2,o),
(457,0,o),
(461,0,cs),
(684,0,ls),
(689,0,o),
(690,2,o),
(690,6,c),
(687,22,ls),
(682,48,o),
(666,54,o),
(643,54,cs),
(520,54,l)
);
}
);
width = 707;
}
);
note = onehalf;
unicode = 189;
},
{
glyphname = threequarters;
layers = (
{
layerId = m01;
shapes = (
{
closed = 1;
nodes = (
(623,6,ls),
(624,2,o),
(626,0,o),
(630,0,cs),
(679,0,ls),
(682,0,o),
(685,2,o),
(684,6,cs),
(672,73,l),
(715,73,ls),
(720,73,o),
(722,76,o),
(721,79,cs),
(717,98,ls),
(715,116,o),
(703,124,o),
(685,124,cs),
(663,124,l),
(633,295,ls),
(629,315,o),
(616,323,o),
(599,323,cs),
(562,323,ls),
(552,323,o),
(548,319,o),
(544,312,cs),
(444,123,ls),
(440,116,o),
(440,112,o),
(441,106,cs),
(446,79,ls),
(447,76,o),
(449,73,o),
(454,73,cs),
(611,73,l)
);
},
{
closed = 1;
nodes = (
(242,9,l),
(241,4,o),
(242,0,o),
(249,0,cs),
(296,0,ls),
(302,0,o),
(304,3,o),
(306,9,cs),
(487,496,ls),
(500,531,o),
(486,556,o),
(454,556,cs),
(447,556,o),
(445,553,o),
(444,547,c)
);
},
{
closed = 1;
nodes = (
(577,267,l),
(602,124,l),
(502,124,l)
);
},
{
closed = 1;
nodes = (
(61,398,ls),
(63,379,o),
(79,374,o),
(96,374,cs),
(129,374,ls),
(167,374,o),
(205,365,o),
(205,326,cs),
(205,297,o),
(186,278,o),
(139,278,cs),
(101,278,o),
(69,291,o),
(41,319,cs),
(37,323,o),
(34,325,o),
(31,325,cs),
(27,325,o),
(25,321,o),
(25,316,cs),
(25,292,o),
(64,227,o),
(152,227,cs),
(226,227,o),
(266,263,o),
(266,320,cs),
(266,369,o),
(230,398,o),
(184,404,c),
(213,417,o),
(228,444,o),
(228,471,cs),
(228,526,o),
(180,563,o),
(100,563,cs),
(65,563,o),
(35,556,o),
(12,544,cs),
(-8,534,o),
(-12,522,o),
(-2,506,cs),
(8,490,ls),
(12,483,o),
(19,482,o),
(23,485,cs),
(43,499,o),
(67,512,o),
(100,512,cs),
(144,512,o),
(169,495,o),
(169,466,cs),
(169,441,o),
(149,426,o),
(115,426,cs),
(62,426,ls),
(58,426,o),
(57,423,o),
(58,419,cs)
);
}
);
width = 733;
}
);
note = threequarters;
unicode = 190;
},
{
glyphname = questiondown;
layers = (
{
layerId = m01;
shapes = (
{
closed = 1;
nodes = (
(-44,-152,o),
(21,-200,o),
(110,-200,cs),
(169,-200,o),
(217,-183,o),
(270,-151,cs),
(277,-147,o),
(279,-143,o),
(278,-137,cs),
(272,-93,ls),
(271,-87,o),
(270,-84,o),
(265,-84,cs),
(262,-84,o),
(257,-87,o),
(252,-91,c),
(209,-117,o),
(168,-130,o),
(118,-130,cs),
(63,-130,o),
(33,-104,o),
(33,-59,cs),
(33,63,o),
(212,79,o),
(212,184,cs),
(212,207,o),
(198,221,o),
(176,221,cs),
(164,221,ls),
(158,221,o),
(156,218,o),
(155,213,cs),
(150,184,ls),
(147,164,o),
(141,153,o),
(124,141,cs),
(50,88,o),
(-44,35,o),
(-44,-64,cs)
);
},
{
closed = 1;
nodes = (
(234,276,o),
(255,306,o),
(255,335,cs),
(255,359,o),
(240,377,o),
(214,377,cs),
(183,377,o),
(158,350,o),
(158,320,cs),
(158,295,o),
(174,276,o),
(200,276,cs)
);
}
);
width = 325;
}
);
note = questiondown;
unicode = 191;
},
{
glyphname = Agrave;
kernLeft = A;
kernRight = A;
layers = (
{
layerId = m01;
shapes = (
{
closed = 1;
nodes = (
(285,463,l),
(328,221,l),
(157,221,l)
);
},
{
closed = 1;
nodes = (
(340,153,l),
(365,12,ls),
(366,4,o),
(368,0,o),
(379,0,cs),
(434,0,ls),
(440,0,o),
(443,4,o),
(442,9,cs),
(350,500,ls),
(342,544,o),
(326,556,o),
(289,556,cs),
(270,556,ls),
(264,556,o),
(261,553,o),
(257,548,c),
(-33,9,ls),
(-36,4,o),
(-35,0,o),
(-29,0,cs),
(31,0,ls),
(40,0,o),
(43,3,o),
(47,12,cs),
(121,153,l)
);
},
{
closed = 1;
nodes = (
(296,684,ls),
(290,691,o),
(285,693,o),
(274,693,cs),
(211,693,ls),
(205,693,o),
(202,688,o),
(206,684,cs),
(273,619,ls),
(281,611,o),
(288,608,o),
(299,608,cs),
(350,608,ls),
(356,608,o),
(359,614,o),
(356,617,cs)
);
}
);
width = 495;
}
);
note = Agrave;
unicode = 192;
},
{
glyphname = Aacute;
kernLeft = A;
kernRight = A;
layers = (
{
layerId = m01;
shapes = (
{
closed = 1;
nodes = (
(285,463,l),
(328,221,l),
(157,221,l)
);
},
{
closed = 1;
nodes = (
(340,153,l),
(365,12,ls),
(366,4,o),
(368,0,o),
(379,0,cs),
(434,0,ls),
(440,0,o),
(443,4,o),
(442,9,cs),
(350,500,ls),
(342,544,o),
(326,556,o),
(289,556,cs),
(270,556,ls),
(264,556,o),
(261,553,o),
(257,548,c),
(-33,9,ls),
(-36,4,o),
(-35,0,o),
(-29,0,cs),
(31,0,ls),
(40,0,o),
(43,3,o),
(47,12,cs),
(121,153,l)
);
},
{
closed = 1;
nodes = (
(202,614,o),
(203,608,o),
(209,608,cs),
(260,608,ls),
(272,608,o),
(280,611,o),
(290,619,cs),
(381,684,l),
(385,688,o),
(384,693,o),
(378,693,cs),
(315,693,ls),
(304,693,o),
(298,691,o),
(290,684,cs),
(207,617,l)
);
}
);
width = 495;
}
);
note = Aacute;
unicode = 193;
},
{
glyphname = Acircumflex;
kernLeft = A;
kernRight = A;
layers = (
{
layerId = m01;
shapes = (
{
closed = 1;
nodes = (
(285,463,l),
(328,221,l),
(157,221,l)
);
},
{
closed = 1;
nodes = (
(340,153,l),
(365,12,ls),
(366,4,o),
(368,0,o),
(379,0,cs),
(434,0,ls),
(440,0,o),
(443,4,o),
(442,9,cs),
(350,500,ls),
(342,544,o),
(326,556,o),
(289,556,cs),
(270,556,ls),
(264,556,o),
(261,553,o),
(257,548,c),
(-33,9,ls),
(-36,4,o),
(-35,0,o),
(-29,0,cs),
(31,0,ls),
(40,0,o),
(43,3,o),
(47,12,cs),
(121,153,l)
);
},
{
closed = 1;
nodes = (
(324,620,ls),
(331,611,o),
(338,608,o),
(350,608,cs),
(393,608,ls),
(399,608,o),
(401,614,o),
(398,617,cs),
(343,684,ls),
(336,692,o),
(333,693,o),
(321,693,cs),
(270,693,ls),
(258,693,o),
(252,692,o),
(243,684,cs),
(165,617,ls),
(161,614,o),
(162,608,o),
(167,608,cs),
(215,608,ls),
(226,608,o),
(236,611,o),
(245,620,cs),
(292,663,l)
);
}
);
width = 495;
}
);
note = Acircumflex;
unicode = 194;
},
{
glyphname = Atilde;
kernLeft = A;
kernRight = A;
layers = (
{
layerId = m01;
shapes = (
{
closed = 1;
nodes = (
(285,463,l),
(328,221,l),
(157,221,l)
);
},
{
closed = 1;
nodes = (
(340,153,l),
(365,12,ls),
(366,4,o),
(368,0,o),
(379,0,cs),
(434,0,ls),
(440,0,o),
(443,4,o),
(442,9,cs),
(350,500,ls),
(342,544,o),
(326,556,o),
(289,556,cs),
(270,556,ls),
(264,556,o),
(261,553,o),
(257,548,c),
(-33,9,ls),
(-36,4,o),
(-35,0,o),
(-29,0,cs),
(31,0,ls),
(40,0,o),
(43,3,o),
(47,12,cs),
(121,153,l)
);
},
{
closed = 1;
nodes = (
(407,686,o),
(405,689,o),
(400,689,cs),
(366,689,ls),
(361,689,o),
(357,687,o),
(354,679,cs),
(349,668,o),
(343,662,o),
(331,662,cs),
(305,662,o),
(276,691,o),
(238,691,cs),
(202,691,o),
(176,664,o),
(165,616,cs),
(164,610,o),
(166,607,o),
(171,607,cs),
(205,607,ls),
(210,607,o),
(213,610,o),
(216,617,cs),
(220,629,o),
(226,636,o),
(238,636,cs),
(261,636,o),
(293,608,o),
(327,608,cs),
(367,608,o),
(393,633,o),
(406,681,cs)
);
}
);
width = 495;
}
);
note = Atilde;
unicode = 195;
},
{
glyphname = Adieresis;
kernLeft = A;
kernRight = A;
layers = (
{
layerId = m01;
shapes = (
{
closed = 1;
nodes = (
(285,463,l),
(328,221,l),
(157,221,l)
);
},
{
closed = 1;
nodes = (
(340,153,l),
(365,12,ls),
(366,4,o),
(368,0,o),
(379,0,cs),
(434,0,ls),
(440,0,o),
(443,4,o),
(442,9,cs),
(350,500,ls),
(342,544,o),
(326,556,o),
(289,556,cs),
(270,556,ls),
(264,556,o),
(261,553,o),
(257,548,c),
(-33,9,ls),
(-36,4,o),
(-35,0,o),
(-29,0,cs),
(31,0,ls),
(40,0,o),
(43,3,o),
(47,12,cs),
(121,153,l)
);
},
{
closed = 1;
nodes = (
(175,614,o),
(188,600,o),
(211,600,cs),
(240,600,o),
(263,624,o),
(264,654,cs),
(264,676,o),
(250,691,o),
(226,691,cs),
(197,691,o),
(174,666,o),
(174,638,cs)
);
},
{
closed = 1;
nodes = (
(307,614,o),
(321,600,o),
(343,600,cs),
(372,600,o),
(395,624,o),
(396,654,cs),
(396,676,o),
(382,691,o),
(358,691,cs),
(329,691,o),
(306,666,o),
(306,638,cs)
);
}
);
width = 495;
}
);
note = Adieresis;
unicode = 196;
},
{
glyphname = Aring;
kernLeft = A;
kernRight = A;
layers = (
{
layerId = m01;
shapes = (
{
closed = 1;
nodes = (
(285,463,l),
(328,221,l),
(157,221,l)
);
},
{
closed = 1;
nodes = (
(340,153,l),
(365,12,ls),
(366,4,o),
(368,0,o),
(379,0,cs),
(434,0,ls),
(440,0,o),
(443,4,o),
(442,9,cs),
(350,500,ls),
(342,544,o),
(326,556,o),
(289,556,cs),
(270,556,ls),
(264,556,o),
(261,553,o),
(257,548,c),
(-33,9,ls),
(-36,4,o),
(-35,0,o),
(-29,0,cs),
(31,0,ls),
(40,0,o),
(43,3,o),
(47,12,cs),
(121,153,l)
);
},
{
closed = 1;
nodes = (
(222,623,o),
(246,597,o),
(283,597,cs),
(327,597,o),
(361,634,o),
(362,679,cs),
(362,712,o),
(337,737,o),
(302,737,cs),
(260,737,o),
(223,703,o),
(222,659,cs)
);
},
{
closed = 1;
nodes = (
(260,682,o),
(275,702,o),
(298,702,cs),
(315,702,o),
(324,691,o),
(324,674,cs),
(325,653,o),
(312,633,o),
(286,633,cs),
(270,633,o),
(260,644,o),
(260,661,cs)
);
}
);
width = 495;
}
);
note = Aring;
unicode = 197;
},
{
glyphname = AE;
kernRight = E;
layers = (
{
layerId = m01;
shapes = (
{
closed = 1;
nodes = (
(314,153,l),
(288,9,ls),
(287,3,o),
(288,0,o),
(294,0,cs),
(582,0,ls),
(590,0,o),
(595,4,o),
(596,11,cs),
(599,27,ls),
(604,54,o),
(592,71,o),
(562,71,cs),
(372,71,l),
(403,242,l),
(598,242,ls),
(606,242,o),
(611,246,o),
(612,252,cs),
(615,268,ls),
(620,296,o),
(606,312,o),
(577,312,cs),
(415,312,l),
(446,485,l),
(662,485,ls),
(670,485,o),
(672,489,o),
(673,496,cs),
(676,513,ls),
(681,541,o),
(671,556,o),
(642,556,cs),
(357,556,ls),
(351,556,o),
(343,553,o),
(340,547,c),
(-37,9,ls),
(-41,4,o),
(-40,0,o),
(-34,0,cs),
(26,0,ls),
(36,0,o),
(40,3,o),
(46,12,cs),
(142,153,l)
);
},
{
closed = 1;
nodes = (
(372,486,l),
(326,221,l),
(188,221,l)
);
}
);
width = 661;
}
);
note = AE;
unicode = 198;
},
{
glyphname = Ccedilla;
kernLeft = C;
kernRight = C;
layers = (
{
layerId = m01;
shapes = (
{
closed = 1;
nodes = (
(403,2,o),
(463,92,o),
(463,128,cs),
(463,136,o),
(460,142,o),
(452,142,cs),
(447,142,o),
(443,140,o),
(435,132,cs),
(400,96,o),
(351,61,o),
(272,61,cs),
(176,61,o),
(131,119,o),
(131,224,cs),
(131,374,o),
(224,495,o),
(351,495,cs),
(405,495,o),
(444,478,o),
(478,452,cs),
(483,448,o),
(487,446,o),
(491,446,cs),
(496,446,o),
(500,449,o),
(502,456,c),
(511,477,ls),
(523,506,o),
(515,523,o),
(485,538,cs),
(451,553,o),
(414,567,o),
(361,567,cs),
(188,567,o),
(54,409,o),
(54,222,cs),
(54,88,o),
(118,5,o),
(224,-9,c),
(155,-96,ls),
(152,-99,o),
(152,-104,o),
(157,-104,cs),
(205,-104,ls),
(217,-104,o),
(224,-102,o),
(231,-92,cs),
(285,-10,l)
);
}
);
width = 500;
}
);
note = Ccedilla;
unicode = 199;
},
{
glyphname = Egrave;
kernRight = E;
layers = (
{
layerId = m01;
shapes = (
{
closed = 1;
nodes = (
(142,242,l),
(339,242,ls),
(347,242,o),
(350,246,o),
(352,252,c),
(354,268,ls),
(359,296,o),
(347,312,o),
(318,312,cs),
(154,312,l),
(185,485,l),
(400,485,ls),
(407,485,o),
(412,489,o),
(413,496,cs),
(415,513,ls),
(420,541,o),
(408,556,o),
(380,556,cs),
(131,556,ls),
(125,556,o),
(123,553,o),
(122,547,cs),
(27,9,ls),
(26,3,o),
(27,0,o),
(33,0,cs),
(323,0,ls),
(331,0,o),
(334,4,o),
(336,11,cs),
(339,27,ls),
(343,54,o),
(332,71,o),
(303,71,cs),
(112,71,l)
);
},
{
closed = 1;
nodes = (
(256,684,ls),
(249,691,o),
(245,693,o),
(234,693,cs),
(171,693,ls),
(165,693,o),
(162,688,o),
(165,684,c),
(233,619,l),
(240,611,o),
(248,608,o),
(259,608,cs),
(310,608,ls),
(316,608,o),
(319,614,o),
(315,617,c)
);
}
);
width = 399;
}
);
note = Egrave;
unicode = 200;
},
{
glyphname = Eacute;
kernRight = E;
layers = (
{
layerId = m01;
shapes = (
{
closed = 1;
nodes = (
(142,242,l),
(339,242,ls),
(347,242,o),
(350,246,o),
(352,252,c),
(354,268,ls),
(359,296,o),
(347,312,o),
(318,312,cs),
(154,312,l),
(185,485,l),
(400,485,ls),
(407,485,o),
(412,489,o),
(413,496,cs),
(415,513,ls),
(420,541,o),
(408,556,o),
(380,556,cs),
(131,556,ls),
(125,556,o),
(123,553,o),
(122,547,cs),
(27,9,ls),
(26,3,o),
(27,0,o),
(33,0,cs),
(323,0,ls),
(331,0,o),
(334,4,o),
(336,11,cs),
(339,27,ls),
(343,54,o),
(332,71,o),
(303,71,cs),
(112,71,l)
);
},
{
closed = 1;
nodes = (
(182,614,o),
(183,608,o),
(189,608,cs),
(240,608,ls),
(252,608,o),
(259,611,o),
(270,619,cs),
(360,684,ls),
(365,688,o),
(364,693,o),
(358,693,cs),
(294,693,ls),
(284,693,o),
(278,691,o),
(269,684,cs),
(187,617,l)
);
}
);
width = 399;
}
);
note = Eacute;
unicode = 201;
},
{
glyphname = Ecircumflex;
kernRight = E;
layers = (
{
layerId = m01;
shapes = (
{
closed = 1;
nodes = (
(142,242,l),
(339,242,ls),
(347,242,o),
(350,246,o),
(352,252,c),
(354,268,ls),
(359,296,o),
(347,312,o),
(318,312,cs),
(154,312,l),
(185,485,l),
(400,485,ls),
(407,485,o),
(412,489,o),
(413,496,cs),
(415,513,ls),
(420,541,o),
(408,556,o),
(380,556,cs),
(131,556,ls),
(125,556,o),
(123,553,o),
(122,547,cs),
(27,9,ls),
(26,3,o),
(27,0,o),
(33,0,cs),
(323,0,ls),
(331,0,o),
(334,4,o),
(336,11,cs),
(339,27,ls),
(343,54,o),
(332,71,o),
(303,71,cs),
(112,71,l)
);
},
{
closed = 1;
nodes = (
(292,620,ls),
(299,611,o),
(306,608,o),
(318,608,cs),
(361,608,ls),
(367,608,o),
(369,614,o),
(367,617,cs),
(311,684,ls),
(304,692,o),
(301,693,o),
(289,693,cs),
(238,693,ls),
(226,693,o),
(220,692,o),
(212,684,cs),
(133,617,ls),
(129,614,o),
(130,608,o),
(135,608,cs),
(183,608,ls),
(194,608,o),
(204,611,o),
(213,620,cs),
(260,663,l)
);
}
);
width = 399;
}
);
note = Ecircumflex;
unicode = 202;
},
{
glyphname = Edieresis;
kernRight = E;
layers = (
{
layerId = m01;
shapes = (
{
closed = 1;
nodes = (
(142,242,l),
(339,242,ls),
(347,242,o),
(350,246,o),
(352,252,c),
(354,268,ls),
(359,296,o),
(347,312,o),
(318,312,cs),
(154,312,l),
(185,485,l),
(400,485,ls),
(407,485,o),
(412,489,o),
(413,496,cs),
(415,513,ls),
(420,541,o),
(408,556,o),
(380,556,cs),
(131,556,ls),
(125,556,o),
(123,553,o),
(122,547,cs),
(27,9,ls),
(26,3,o),
(27,0,o),
(33,0,cs),
(323,0,ls),
(331,0,o),
(334,4,o),
(336,11,cs),
(339,27,ls),
(343,54,o),
(332,71,o),
(303,71,cs),
(112,71,l)
);
},
{
closed = 1;
nodes = (
(148,614,o),
(162,600,o),
(184,600,cs),
(213,600,o),
(237,624,o),
(237,654,cs),
(237,676,o),
(223,691,o),
(199,691,cs),
(170,691,o),
(147,666,o),
(147,638,cs)
);
},
{
closed = 1;
nodes = (
(280,614,o),
(294,600,o),
(316,600,cs),
(345,600,o),
(368,624,o),
(369,654,cs),
(369,676,o),
(355,691,o),
(331,691,cs),
(302,691,o),
(279,666,o),
(279,638,cs)
);
}
);
width = 399;
}
);
note = Edieresis;
unicode = 203;
},
{
glyphname = Igrave;
kernRight = I;
layers = (
{
layerId = m01;
shapes = (
{
closed = 1;
nodes = (
(91,0,ls),
(97,0,o),
(99,3,o),
(100,9,cs),
(184,485,ls),
(193,533,o),
(175,556,o),
(138,556,cs),
(131,556,ls),
(125,556,o),
(123,553,o),
(122,547,cs),
(27,9,ls),
(26,3,o),
(27,0,o),
(33,0,cs)
);
},
{
closed = 1;
nodes = (
(155,684,ls),
(148,691,o),
(144,693,o),
(133,693,cs),
(70,693,ls),
(64,693,o),
(61,688,o),
(64,684,c),
(132,619,l),
(139,611,o),
(147,608,o),
(158,608,cs),
(209,608,ls),
(215,608,o),
(218,614,o),
(214,617,c)
);
}
);
width = 202;
}
);
note = Igrave;
unicode = 204;
},
{
glyphname = Iacute;
kernRight = I;
layers = (
{
layerId = m01;
shapes = (
{
closed = 1;
nodes = (
(91,0,ls),
(97,0,o),
(99,3,o),
(100,9,cs),
(184,485,ls),
(193,533,o),
(175,556,o),
(138,556,cs),
(131,556,ls),
(125,556,o),
(123,553,o),
(122,547,cs),
(27,9,ls),
(26,3,o),
(27,0,o),
(33,0,cs)
);
},
{
closed = 1;
nodes = (
(80,614,o),
(81,608,o),
(87,608,cs),
(138,608,ls),
(150,608,o),
(158,611,o),
(168,619,cs),
(259,684,l),
(263,688,o),
(262,693,o),
(257,693,cs),
(193,693,ls),
(182,693,o),
(177,691,o),
(168,684,cs),
(85,617,l)
);
}
);
width = 202;
}
);
note = Iacute;
unicode = 205;
},
{
glyphname = Icircumflex;
kernRight = I;
layers = (
{
layerId = m01;
shapes = (
{
closed = 1;
nodes = (
(102,0,ls),
(108,0,o),
(110,3,o),
(111,9,cs),
(195,485,ls),
(204,533,o),
(186,556,o),
(149,556,cs),
(142,556,ls),
(136,556,o),
(134,553,o),
(133,547,cs),
(38,9,ls),
(37,3,o),
(38,0,o),
(44,0,cs)
);
},
{
closed = 1;
nodes = (
(210,620,ls),
(216,611,o),
(224,608,o),
(235,608,cs),
(279,608,ls),
(285,608,o),
(286,614,o),
(284,617,cs),
(229,684,ls),
(222,692,o),
(219,693,o),
(207,693,cs),
(155,693,ls),
(144,693,o),
(138,692,o),
(129,684,cs),
(51,617,l),
(46,614,o),
(48,608,o),
(53,608,cs),
(100,608,ls),
(112,608,o),
(121,611,o),
(130,620,cs),
(178,663,l)
);
}
);
width = 202;
}
);
note = Icircumflex;
unicode = 206;
},
{
glyphname = Idieresis;
kernRight = I;
layers = (
{
layerId = m01;
shapes = (
{
closed = 1;
nodes = (
(91,0,ls),
(97,0,o),
(99,3,o),
(100,9,cs),
(184,485,ls),
(193,533,o),
(175,556,o),
(138,556,cs),
(131,556,ls),
(125,556,o),
(123,553,o),
(122,547,cs),
(27,9,ls),
(26,3,o),
(27,0,o),
(33,0,cs)
);
},
{
closed = 1;
nodes = (
(53,614,o),
(67,600,o),
(89,600,cs),
(118,600,o),
(142,624,o),
(143,654,cs),
(143,676,o),
(129,691,o),
(104,691,cs),
(75,691,o),
(53,666,o),
(53,638,cs)
);
},
{
closed = 1;
nodes = (
(185,614,o),
(199,600,o),
(222,600,cs),
(250,600,o),
(274,624,o),
(274,654,cs),
(274,676,o),
(260,691,o),
(237,691,cs),
(208,691,o),
(185,666,o),
(185,638,cs)
);
}
);
width = 202;
}
);
note = Idieresis;
unicode = 207;
},
{
glyphname = Eth;
layers = (
{
layerId = m01;
shapes = (
{
closed = 1;
nodes = (
(41,9,ls),
(40,4,o),
(40,0,o),
(47,0,cs),
(210,0,ls),
(412,0,o),
(524,144,o),
(524,339,cs),
(524,473,o),
(437,556,o),
(296,556,cs),
(145,556,ls),
(139,556,o),
(136,553,o),
(135,547,cs),
(95,315,l),
(44,315,ls),
(38,315,o),
(35,313,o),
(34,307,cs),
(25,253,ls),
(24,247,o),
(25,244,o),
(31,244,cs),
(82,244,l)
);
},
{
closed = 1;
nodes = (
(156,244,l),
(312,244,ls),
(319,244,o),
(324,248,o),
(325,256,cs),
(328,272,ls),
(333,300,o),
(322,315,o),
(292,315,cs),
(168,315,l),
(198,485,l),
(280,485,ls),
(392,485,o),
(446,434,o),
(446,330,cs),
(446,170,o),
(359,71,o),
(219,71,cs),
(125,71,l)
);
}
);
width = 558;
}
);
note = Eth;
unicode = 208;
},
{
glyphname = Ntilde;
kernRight = N;
layers = (
{
layerId = m01;
shapes = (
{
closed = 1;
nodes = (
(208,511,ls),
(195,542,o),
(185,556,o),
(148,556,cs),
(131,556,ls),
(125,556,o),
(123,553,o),
(122,547,cs),
(27,9,ls),
(26,3,o),
(27,0,o),
(33,0,cs),
(91,0,ls),
(97,0,o),
(99,3,o),
(100,9,cs),
(171,412,l),
(338,13,ls),
(342,3,o),
(347,0,o),
(357,0,cs),
(405,0,ls),
(411,0,o),
(413,3,o),
(414,9,cs),
(498,485,ls),
(507,533,o),
(490,556,o),
(452,556,cs),
(446,556,ls),
(442,556,o),
(438,553,o),
(437,547,cs),
(365,138,l)
);
},
{
closed = 1;
nodes = (
(424,686,o),
(422,689,o),
(418,689,cs),
(384,689,ls),
(379,689,o),
(374,687,o),
(372,679,c),
(367,668,o),
(360,662,o),
(349,662,cs),
(323,662,o),
(293,691,o),
(255,691,cs),
(220,691,o),
(194,664,o),
(183,616,cs),
(182,610,o),
(183,607,o),
(189,607,cs),
(223,607,ls),
(228,607,o),
(231,610,o),
(233,617,cs),
(237,629,o),
(243,636,o),
(255,636,cs),
(279,636,o),
(310,608,o),
(344,608,cs),
(385,608,o),
(410,633,o),
(424,681,c)
);
}
);
width = 516;
}
);
note = Ntilde;
unicode = 209;
},
{
glyphname = Ograve;
kernLeft = O;
kernRight = O;
layers = (
{
layerId = m01;
shapes = (
{
closed = 1;
nodes = (
(55,73,o),
(132,-10,o),
(259,-10,cs),
(445,-10,o),
(557,166,o),
(557,347,cs),
(557,483,o),
(479,567,o),
(357,567,cs),
(196,567,o),
(54,408,o),
(54,219,cs)
);
},
{
closed = 1;
nodes = (
(131,372,o),
(231,495,o),
(346,495,cs),
(432,495,o),
(480,443,o),
(480,347,cs),
(480,183,o),
(390,62,o),
(263,62,cs),
(178,62,o),
(132,117,o),
(131,219,cs)
);
},
{
closed = 1;
nodes = (
(358,684,ls),
(351,691,o),
(347,693,o),
(336,693,cs),
(273,693,ls),
(267,693,o),
(264,688,o),
(267,684,c),
(335,619,l),
(342,611,o),
(350,608,o),
(361,608,cs),
(412,608,ls),
(418,608,o),
(421,614,o),
(417,617,c)
);
}
);
width = 592;
}
);
note = Ograve;
unicode = 210;
},
{
glyphname = Oacute;
kernLeft = O;
kernRight = O;
layers = (
{
layerId = m01;
shapes = (
{
closed = 1;
nodes = (
(55,73,o),
(132,-10,o),
(259,-10,cs),
(445,-10,o),
(557,166,o),
(557,347,cs),
(557,483,o),
(479,567,o),
(357,567,cs),
(196,567,o),
(54,408,o),
(54,219,cs)
);
},
{
closed = 1;
nodes = (
(131,372,o),
(231,495,o),
(346,495,cs),
(432,495,o),
(480,443,o),
(480,347,cs),
(480,183,o),
(390,62,o),
(263,62,cs),
(178,62,o),
(132,117,o),
(131,219,cs)
);
},
{
closed = 1;
nodes = (
(258,614,o),
(258,608,o),
(265,608,cs),
(316,608,ls),
(327,608,o),
(335,611,o),
(346,619,cs),
(436,684,ls),
(441,688,o),
(440,693,o),
(434,693,cs),
(370,693,ls),
(360,693,o),
(354,691,o),
(345,684,cs),
(262,617,ls)
);
}
);
width = 592;
}
);
note = Oacute;
unicode = 211;
},
{
glyphname = Ocircumflex;
kernLeft = O;
kernRight = O;
layers = (
{
layerId = m01;
shapes = (
{
closed = 1;
nodes = (
(55,73,o),
(132,-10,o),
(259,-10,cs),
(445,-10,o),
(557,166,o),
(557,347,cs),
(557,483,o),
(479,567,o),
(357,567,cs),
(196,567,o),
(54,408,o),
(54,219,cs)
);
},
{
closed = 1;
nodes = (
(131,372,o),
(231,495,o),
(346,495,cs),
(432,495,o),
(480,443,o),
(480,347,cs),
(480,183,o),
(390,62,o),
(263,62,cs),
(178,62,o),
(132,117,o),
(131,219,cs)
);
},
{
closed = 1;
nodes = (
(380,620,ls),
(386,611,o),
(393,608,o),
(405,608,cs),
(448,608,ls),
(455,608,o),
(456,614,o),
(454,617,cs),
(398,684,ls),
(392,692,o),
(388,693,o),
(377,693,cs),
(325,693,ls),
(313,693,o),
(308,692,o),
(299,684,cs),
(221,617,l),
(216,614,o),
(217,608,o),
(223,608,cs),
(270,608,ls),
(282,608,o),
(291,611,o),
(300,620,cs),
(347,663,l)
);
}
);
width = 592;
}
);
note = Ocircumflex;
unicode = 212;
},
{
glyphname = Otilde;
kernLeft = O;
kernRight = O;
layers = (
{
layerId = m01;
shapes = (
{
closed = 1;
nodes = (
(55,73,o),
(132,-10,o),
(259,-10,cs),
(445,-10,o),
(557,166,o),
(557,347,cs),
(557,483,o),
(479,567,o),
(357,567,cs),
(196,567,o),
(54,408,o),
(54,219,cs)
);
},
{
closed = 1;
nodes = (
(131,372,o),
(231,495,o),
(346,495,cs),
(432,495,o),
(480,443,o),
(480,347,cs),
(480,183,o),
(390,62,o),
(263,62,cs),
(178,62,o),
(132,117,o),
(131,219,cs)
);
},
{
closed = 1;
nodes = (
(465,686,o),
(462,689,o),
(458,689,cs),
(424,689,ls),
(419,689,o),
(415,687,o),
(412,679,cs),
(407,668,o),
(401,662,o),
(389,662,cs),
(363,662,o),
(333,691,o),
(296,691,cs),
(260,691,o),
(234,664,o),
(223,616,cs),
(222,610,o),
(223,607,o),
(229,607,cs),
(263,607,ls),
(268,607,o),
(271,610,o),
(273,617,cs),
(277,629,o),
(283,636,o),
(296,636,cs),
(319,636,o),
(351,608,o),
(385,608,cs),
(425,608,o),
(451,633,o),
(464,681,cs)
);
}
);
width = 592;
}
);
note = Otilde;
unicode = 213;
},
{
glyphname = Odieresis;
kernLeft = O;
kernRight = O;
layers = (
{
layerId = m01;
shapes = (
{
closed = 1;
nodes = (
(55,73,o),
(132,-10,o),
(259,-10,cs),
(445,-10,o),
(557,166,o),
(557,347,cs),
(557,483,o),
(479,567,o),
(357,567,cs),
(196,567,o),
(54,408,o),
(54,219,cs)
);
},
{
closed = 1;
nodes = (
(131,372,o),
(231,495,o),
(346,495,cs),
(432,495,o),
(480,443,o),
(480,347,cs),
(480,183,o),
(390,62,o),
(263,62,cs),
(178,62,o),
(132,117,o),
(131,219,cs)
);
},
{
closed = 1;
nodes = (
(234,614,o),
(248,600,o),
(270,600,cs),
(299,600,o),
(323,624,o),
(323,654,cs),
(323,676,o),
(310,691,o),
(285,691,cs),
(256,691,o),
(233,666,o),
(233,638,cs)
);
},
{
closed = 1;
nodes = (
(366,614,o),
(380,600,o),
(402,600,cs),
(431,600,o),
(455,624,o),
(455,654,cs),
(455,676,o),
(441,691,o),
(417,691,cs),
(388,691,o),
(366,666,o),
(366,638,cs)
);
}
);
width = 592;
}
);
note = Odieresis;
unicode = 214;
},
{
glyphname = multiply;
layers = (
{
layerId = m01;
shapes = (
{
closed = 1;
nodes = (
(54,168,ls),
(50,164,o),
(49,160,o),
(54,156,cs),
(85,126,ls),
(90,121,o),
(92,121,o),
(97,126,cs),
(202,232,l),
(277,155,ls),
(309,125,o),
(329,121,o),
(357,150,cs),
(362,155,o),
(361,158,o),
(357,162,cs),
(246,274,l),
(350,379,ls),
(355,384,o),
(355,387,o),
(350,392,cs),
(319,422,ls),
(315,426,o),
(312,426,o),
(309,422,c),
(203,317,l),
(126,393,ls),
(97,422,o),
(76,426,o),
(47,398,c),
(43,393,o),
(44,389,o),
(48,386,c),
(160,274,l)
);
}
);
width = 403;
}
);
note = multiply;
unicode = 215;
},
{
glyphname = Oslash;
kernLeft = O;
kernRight = O;
layers = (
{
layerId = m01;
shapes = (
{
closed = 1;
nodes = (
(138,151,o),
(132,182,o),
(132,219,cs),
(132,372,o),
(231,495,o),
(346,495,cs),
(378,495,o),
(404,488,o),
(425,474,c),
(150,127,l)
);
},
{
closed = 1;
nodes = (
(475,407,o),
(480,379,o),
(480,347,cs),
(480,183,o),
(390,62,o),
(263,62,cs),
(233,62,o),
(208,68,o),
(188,82,c),
(463,429,l)
);
},
{
closed = 1;
nodes = (
(445,-10,o),
(557,166,o),
(557,347,cs),
(557,483,o),
(480,567,o),
(356,567,cs),
(195,567,o),
(54,408,o),
(54,219,cs),
(54,73,o),
(132,-10,o),
(259,-10,cs)
);
}
);
width = 591;
}
);
note = Oslash;
unicode = 216;
},
{
glyphname = Ugrave;
kernLeft = U;
kernRight = U;
layers = (
{
layerId = m01;
shapes = (
{
closed = 1;
nodes = (
(365,-10,o),
(443,67,o),
(467,201,cs),
(517,485,ls),
(525,533,o),
(508,556,o),
(471,556,cs),
(464,556,ls),
(458,556,o),
(456,553,o),
(455,547,cs),
(396,213,ls),
(377,108,o),
(332,61,o),
(253,61,cs),
(174,61,o),
(138,120,o),
(156,221,cs),
(203,485,ls),
(211,533,o),
(194,556,o),
(156,556,cs),
(150,556,ls),
(144,556,o),
(141,553,o),
(140,547,cs),
(83,223,ls),
(59,84,o),
(126,-10,o),
(248,-10,cs)
);
},
{
closed = 1;
nodes = (
(321,684,ls),
(314,691,o),
(310,693,o),
(298,693,cs),
(236,693,ls),
(230,693,o),
(227,688,o),
(230,684,c),
(298,619,l),
(305,611,o),
(312,608,o),
(323,608,cs),
(375,608,ls),
(381,608,o),
(383,614,o),
(380,617,cs)
);
}
);
width = 517;
}
);
note = Ugrave;
unicode = 217;
},
{
glyphname = Uacute;
kernLeft = U;
kernRight = U;
layers = (
{
layerId = m01;
shapes = (
{
closed = 1;
nodes = (
(365,-10,o),
(443,67,o),
(467,201,cs),
(517,485,ls),
(525,533,o),
(508,556,o),
(471,556,cs),
(464,556,ls),
(458,556,o),
(456,553,o),
(455,547,cs),
(396,213,ls),
(377,108,o),
(332,61,o),
(253,61,cs),
(174,61,o),
(138,120,o),
(156,221,cs),
(203,485,ls),
(211,533,o),
(194,556,o),
(156,556,cs),
(150,556,ls),
(144,556,o),
(141,553,o),
(140,547,cs),
(83,223,ls),
(59,84,o),
(126,-10,o),
(248,-10,cs)
);
},
{
closed = 1;
nodes = (
(232,614,o),
(233,608,o),
(239,608,cs),
(290,608,ls),
(302,608,o),
(310,611,o),
(320,619,cs),
(411,684,l),
(415,688,o),
(414,693,o),
(408,693,cs),
(345,693,ls),
(334,693,o),
(328,691,o),
(320,684,cs),
(237,617,l)
);
}
);
width = 517;
}
);
note = Uacute;
unicode = 218;
},
{
glyphname = Ucircumflex;
kernLeft = U;
kernRight = U;
layers = (
{
layerId = m01;
shapes = (
{
closed = 1;
nodes = (
(365,-10,o),
(443,67,o),
(467,201,cs),
(517,485,ls),
(525,533,o),
(508,556,o),
(471,556,cs),
(464,556,ls),
(458,556,o),
(456,553,o),
(455,547,cs),
(396,213,ls),
(377,108,o),
(332,61,o),
(253,61,cs),
(174,61,o),
(138,120,o),
(156,221,cs),
(203,485,ls),
(211,533,o),
(194,556,o),
(156,556,cs),
(150,556,ls),
(144,556,o),
(141,553,o),
(140,547,cs),
(83,223,ls),
(59,84,o),
(126,-10,o),
(248,-10,cs)
);
},
{
closed = 1;
nodes = (
(358,620,ls),
(365,611,o),
(372,608,o),
(383,608,cs),
(427,608,ls),
(433,608,o),
(435,614,o),
(432,617,cs),
(377,684,ls),
(370,692,o),
(367,693,o),
(355,693,cs),
(303,693,ls),
(292,693,o),
(286,692,o),
(277,684,cs),
(199,617,ls),
(195,614,o),
(196,608,o),
(201,608,cs),
(248,608,ls),
(260,608,o),
(270,611,o),
(278,620,c),
(326,663,l)
);
}
);
width = 517;
}
);
note = Ucircumflex;
unicode = 219;
},
{
glyphname = Udieresis;
kernLeft = U;
kernRight = U;
layers = (
{
layerId = m01;
shapes = (
{
closed = 1;
nodes = (
(365,-10,o),
(443,67,o),
(467,201,cs),
(517,485,ls),
(525,533,o),
(508,556,o),
(471,556,cs),
(464,556,ls),
(458,556,o),
(456,553,o),
(455,547,cs),
(396,213,ls),
(377,108,o),
(332,61,o),
(253,61,cs),
(174,61,o),
(138,120,o),
(156,221,cs),
(203,485,ls),
(211,533,o),
(194,556,o),
(156,556,cs),
(150,556,ls),
(144,556,o),
(141,553,o),
(140,547,cs),
(83,223,ls),
(59,84,o),
(126,-10,o),
(248,-10,cs)
);
},
{
closed = 1;
nodes = (
(209,614,o),
(223,600,o),
(245,600,cs),
(274,600,o),
(298,624,o),
(298,654,cs),
(298,676,o),
(285,691,o),
(260,691,cs),
(231,691,o),
(208,666,o),
(208,638,cs)
);
},
{
closed = 1;
nodes = (
(341,614,o),
(355,600,o),
(377,600,cs),
(406,600,o),
(430,624,o),
(430,654,cs),
(430,676,o),
(416,691,o),
(392,691,cs),
(363,691,o),
(341,666,o),
(341,638,cs)
);
}
);
width = 517;
}
);
note = Udieresis;
unicode = 220;
},
{
glyphname = Yacute;
kernLeft = Y;
kernRight = Y;
layers = (
{
layerId = m01;
shapes = (
{
closed = 1;
nodes = (
(149,9,ls),
(148,3,o),
(149,0,o),
(155,0,cs),
(212,0,ls),
(218,0,o),
(220,3,o),
(221,9,cs),
(257,213,l),
(490,544,l),
(494,551,o),
(493,556,o),
(487,556,cs),
(430,556,ls),
(422,556,o),
(416,552,o),
(411,544,cs),
(234,286,l),
(158,506,ls),
(145,542,o),
(129,556,o),
(95,556,cs),
(75,556,ls),
(68,556,o),
(66,551,o),
(67,547,cs),
(185,213,l)
);
},
{
closed = 1;
nodes = (
(190,614,o),
(191,608,o),
(197,608,cs),
(248,608,ls),
(260,608,o),
(268,611,o),
(278,619,cs),
(369,684,l),
(373,688,o),
(372,693,o),
(367,693,cs),
(303,693,ls),
(292,693,o),
(287,691,o),
(278,684,cs),
(195,617,l)
);
}
);
width = 432;
}
);
note = Yacute;
unicode = 221;
},
{
glyphname = Thorn;
layers = (
{
layerId = m01;
shapes = (
{
closed = 1;
nodes = (
(242,102,ls),
(372,102,o),
(458,183,o),
(458,306,cs),
(458,403,o),
(387,455,o),
(293,455,cs),
(179,455,l),
(184,485,ls),
(192,533,o),
(175,556,o),
(138,556,cs),
(131,556,ls),
(125,556,o),
(122,553,o),
(121,547,cs),
(27,9,ls),
(26,3,o),
(27,0,o),
(33,0,cs),
(90,0,ls),
(97,0,o),
(99,3,o),
(100,9,cs),
(116,102,l)
);
},
{
closed = 1;
nodes = (
(166,384,l),
(291,384,ls),
(346,384,o),
(383,353,o),
(383,298,cs),
(383,218,o),
(331,173,o),
(250,173,cs),
(128,173,l)
);
}
);
width = 477;
}
);
note = Thorn;
unicode = 222;
},
{
glyphname = germandbls;
layers = (
{
layerId = m01;
shapes = (
{
closed = 1;
nodes = (
(77,0,ls),
(82,0,o),
(86,3,o),
(87,9,cs),
(156,404,ls),
(167,467,o),
(205,501,o),
(252,501,cs),
(295,501,o),
(318,483,o),
(318,451,cs),
(318,388,o),
(214,351,o),
(214,271,cs),
(214,192,o),
(319,175,o),
(319,114,cs),
(319,78,o),
(290,53,o),
(246,53,cs),
(203,53,o),
(181,73,o),
(161,98,cs),
(159,101,o),
(157,103,o),
(154,103,cs),
(141,103,o),
(139,87,o),
(139,77,cs),
(139,38,o),
(177,-10,o),
(252,-10,cs),
(333,-10,o),
(395,49,o),
(395,130,cs),
(395,219,o),
(286,238,o),
(286,290,cs),
(286,335,o),
(394,388,o),
(394,462,cs),
(394,521,o),
(346,567,o),
(260,567,cs),
(173,567,o),
(101,510,o),
(84,407,cs),
(14,9,ls),
(13,3,o),
(14,0,o),
(20,0,cs)
);
}
);
width = 444;
}
);
note = germandbls;
unicode = 223;
},
{
glyphname = agrave;
kernLeft = a;
layers = (
{
layerId = m01;
shapes = (
{
closed = 1;
nodes = (
(285,9,ls),
(284,3,o),
(285,0,o),
(292,0,cs),
(348,0,ls),
(354,0,o),
(357,3,o),
(358,9,cs),
(419,360,ls),
(420,366,o),
(419,368,o),
(413,368,cs),
(408,368,ls),
(378,368,o),
(356,354,o),
(344,319,c),
(327,353,o),
(288,377,o),
(234,377,cs),
(124,377,o),
(26,277,o),
(27,148,cs),
(27,54,o),
(82,-9,o),
(164,-9,cs),
(212,-9,o),
(258,10,o),
(293,52,c)
);
},
{
closed = 1;
nodes = (
(101,226,o),
(150,308,o),
(234,308,cs),
(290,308,o),
(319,273,o),
(319,218,cs),
(319,139,o),
(274,59,o),
(183,59,cs),
(130,59,o),
(102,96,o),
(102,152,cs)
);
},
{
closed = 1;
nodes = (
(270,506,ls),
(263,513,o),
(259,516,o),
(248,516,cs),
(185,516,ls),
(179,516,o),
(176,510,o),
(179,507,cs),
(247,441,ls),
(254,433,o),
(262,431,o),
(273,431,cs),
(324,431,ls),
(330,431,o),
(333,436,o),
(329,439,c)
);
}
);
width = 449;
}
);
note = agrave;
unicode = 224;
},
{
glyphname = aacute;
kernLeft = a;
layers = (
{
layerId = m01;
shapes = (
{
closed = 1;
nodes = (
(285,9,ls),
(284,3,o),
(285,0,o),
(292,0,cs),
(348,0,ls),
(354,0,o),
(357,3,o),
(358,9,cs),
(419,360,ls),
(420,366,o),
(419,368,o),
(413,368,cs),
(408,368,ls),
(378,368,o),
(356,354,o),
(344,319,c),
(327,353,o),
(288,377,o),
(234,377,cs),
(124,377,o),
(26,277,o),
(27,148,cs),
(27,54,o),
(82,-9,o),
(164,-9,cs),
(212,-9,o),
(258,10,o),
(293,52,c)
);
},
{
closed = 1;
nodes = (
(101,226,o),
(150,308,o),
(234,308,cs),
(290,308,o),
(319,273,o),
(319,218,cs),
(319,139,o),
(274,59,o),
(183,59,cs),
(130,59,o),
(102,96,o),
(102,152,cs)
);
},
{
closed = 1;
nodes = (
(181,436,o),
(182,431,o),
(188,431,cs),
(239,431,ls),
(250,431,o),
(258,433,o),
(269,441,cs),
(359,507,ls),
(364,510,o),
(363,516,o),
(357,516,cs),
(293,516,ls),
(283,516,o),
(277,513,o),
(268,506,cs),
(185,439,ls)
);
}
);
width = 449;
}
);
note = aacute;
unicode = 225;
},
{
glyphname = acircumflex;
kernLeft = a;
layers = (
{
layerId = m01;
shapes = (
{
closed = 1;
nodes = (
(285,9,ls),
(284,3,o),
(285,0,o),
(292,0,cs),
(348,0,ls),
(354,0,o),
(357,3,o),
(358,9,cs),
(419,360,ls),
(420,366,o),
(419,368,o),
(413,368,cs),
(408,368,ls),
(378,368,o),
(356,354,o),
(344,319,c),
(327,353,o),
(288,377,o),
(234,377,cs),
(124,377,o),
(26,277,o),
(27,148,cs),
(27,54,o),
(82,-9,o),
(164,-9,cs),
(212,-9,o),
(258,10,o),
(293,52,c)
);
},
{
closed = 1;
nodes = (
(101,226,o),
(150,308,o),
(234,308,cs),
(290,308,o),
(319,273,o),
(319,218,cs),
(319,139,o),
(274,59,o),
(183,59,cs),
(130,59,o),
(102,96,o),
(102,152,cs)
);
},
{
closed = 1;
nodes = (
(305,442,ls),
(312,433,o),
(319,431,o),
(330,431,cs),
(374,431,ls),
(380,431,o),
(382,436,o),
(379,439,cs),
(324,506,ls),
(317,514,o),
(314,516,o),
(302,516,cs),
(250,516,ls),
(239,516,o),
(233,514,o),
(224,506,cs),
(146,439,ls),
(142,436,o),
(143,431,o),
(148,431,cs),
(195,431,ls),
(207,431,o),
(217,433,o),
(225,442,c),
(273,485,l)
);
}
);
width = 449;
}
);
note = acircumflex;
unicode = 226;
},
{
glyphname = atilde;
kernLeft = a;
layers = (
{
layerId = m01;
shapes = (
{
closed = 1;
nodes = (
(285,9,ls),
(284,3,o),
(285,0,o),
(292,0,cs),
(348,0,ls),
(354,0,o),
(357,3,o),
(358,9,cs),
(419,360,ls),
(420,366,o),
(419,368,o),
(413,368,cs),
(408,368,ls),
(378,368,o),
(356,354,o),
(344,319,c),
(327,353,o),
(288,377,o),
(234,377,cs),
(124,377,o),
(26,277,o),
(27,148,cs),
(27,54,o),
(82,-9,o),
(164,-9,cs),
(212,-9,o),
(258,10,o),
(293,52,c)
);
},
{
closed = 1;
nodes = (
(101,226,o),
(150,308,o),
(234,308,cs),
(290,308,o),
(319,273,o),
(319,218,cs),
(319,139,o),
(274,59,o),
(183,59,cs),
(130,59,o),
(102,96,o),
(102,152,cs)
);
},
{
closed = 1;
nodes = (
(391,508,o),
(389,512,o),
(384,512,cs),
(350,512,ls),
(345,512,o),
(341,509,o),
(338,502,cs),
(333,490,o),
(327,484,o),
(315,484,cs),
(289,484,o),
(260,513,o),
(222,513,cs),
(187,513,o),
(160,486,o),
(149,438,cs),
(148,432,o),
(150,429,o),
(155,429,cs),
(189,429,ls),
(194,429,o),
(198,432,o),
(200,439,cs),
(204,451,o),
(210,458,o),
(222,458,cs),
(245,458,o),
(277,431,o),
(311,431,cs),
(352,431,o),
(377,455,o),
(390,503,cs)
);
}
);
width = 449;
}
);
note = atilde;
unicode = 227;
},
{
glyphname = adieresis;
kernLeft = a;
layers = (
{
layerId = m01;
shapes = (
{
closed = 1;
nodes = (
(285,9,ls),
(284,3,o),
(285,0,o),
(292,0,cs),
(348,0,ls),
(354,0,o),
(357,3,o),
(358,9,cs),
(419,360,ls),
(420,366,o),
(419,368,o),
(413,368,cs),
(408,368,ls),
(378,368,o),
(356,354,o),
(344,319,c),
(327,353,o),
(288,377,o),
(234,377,cs),
(124,377,o),
(26,277,o),
(27,148,cs),
(27,54,o),
(82,-9,o),
(164,-9,cs),
(212,-9,o),
(258,10,o),
(293,52,c)
);
},
{
closed = 1;
nodes = (
(101,226,o),
(150,308,o),
(234,308,cs),
(290,308,o),
(319,273,o),
(319,218,cs),
(319,139,o),
(274,59,o),
(183,59,cs),
(130,59,o),
(102,96,o),
(102,152,cs)
);
},
{
closed = 1;
nodes = (
(152,436,o),
(165,422,o),
(188,422,cs),
(217,422,o),
(240,446,o),
(241,476,cs),
(241,498,o),
(227,513,o),
(203,513,cs),
(174,513,o),
(151,488,o),
(151,460,cs)
);
},
{
closed = 1;
nodes = (
(284,436,o),
(298,422,o),
(320,422,cs),
(349,422,o),
(372,446,o),
(373,476,cs),
(373,498,o),
(359,513,o),
(335,513,cs),
(306,513,o),
(283,488,o),
(283,460,cs)
);
}
);
width = 449;
}
);
note = adieresis;
unicode = 228;
},
{
glyphname = aring;
kernLeft = a;
layers = (
{
layerId = m01;
shapes = (
{
closed = 1;
nodes = (
(285,9,ls),
(284,3,o),
(285,0,o),
(292,0,cs),
(348,0,ls),
(354,0,o),
(357,3,o),
(358,9,cs),
(419,360,ls),
(420,366,o),
(419,368,o),
(413,368,cs),
(408,368,ls),
(378,368,o),
(356,354,o),
(344,319,c),
(327,353,o),
(288,377,o),
(234,377,cs),
(124,377,o),
(26,277,o),
(27,148,cs),
(27,54,o),
(82,-9,o),
(164,-9,cs),
(212,-9,o),
(258,10,o),
(293,52,c)
);
},
{
closed = 1;
nodes = (
(101,226,o),
(150,308,o),
(234,308,cs),
(290,308,o),
(319,273,o),
(319,218,cs),
(319,139,o),
(274,59,o),
(183,59,cs),
(130,59,o),
(102,96,o),
(102,152,cs)
);
},
{
closed = 1;
nodes = (
(197,445,o),
(221,419,o),
(258,419,cs),
(302,419,o),
(336,456,o),
(337,501,cs),
(337,534,o),
(312,559,o),
(277,559,cs),
(235,559,o),
(198,526,o),
(197,481,cs)
);
},
{
closed = 1;
nodes = (
(235,504,o),
(250,524,o),
(273,524,cs),
(289,524,o),
(299,513,o),
(299,496,cs),
(299,475,o),
(287,455,o),
(261,455,cs),
(244,455,o),
(235,466,o),
(235,483,cs)
);
}
);
width = 449;
}
);
note = aring;
unicode = 229;
},
{
glyphname = ae;
kernLeft = a;
kernRight = e;
layers = (
{
layerId = m01;
shapes = (
{
closed = 1;
nodes = (
(387,17,o),
(429,-9,o),
(490,-9,cs),
(582,-9,o),
(647,46,o),
(647,92,cs),
(647,97,o),
(645,101,o),
(639,101,cs),
(635,101,o),
(629,97,o),
(624,93,cs),
(594,73,o),
(563,54,o),
(508,54,cs),
(441,54,o),
(403,88,o),
(407,159,c),
(648,159,ls),
(658,159,o),
(662,162,o),
(665,171,cs),
(673,200,o),
(677,218,o),
(677,247,cs),
(677,324,o),
(629,377,o),
(546,377,cs),
(492,377,o),
(445,355,o),
(412,318,c),
(420,360,ls),
(421,366,o),
(419,368,o),
(412,368,cs),
(410,368,ls),
(379,368,o),
(357,353,o),
(346,319,c),
(328,353,o),
(290,377,o),
(237,377,cs),
(125,377,o),
(28,277,o),
(28,148,cs),
(28,54,o),
(84,-9,o),
(165,-9,cs),
(214,-9,o),
(260,10,o),
(295,52,c),
(287,9,ls),
(286,3,o),
(289,0,o),
(294,0,cs),
(348,0,ls),
(354,0,o),
(357,3,o),
(358,9,cs),
(367,66,l)
);
},
{
closed = 1;
nodes = (
(132,59,o),
(104,96,o),
(104,152,cs),
(104,226,o),
(151,308,o),
(236,308,cs),
(291,308,o),
(321,273,o),
(321,218,cs),
(321,139,o),
(276,59,o),
(185,59,cs)
);
},
{
closed = 1;
nodes = (
(436,276,o),
(476,313,o),
(535,313,cs),
(584,313,o),
(606,289,o),
(606,239,cs),
(606,233,o),
(605,224,o),
(604,214,c),
(419,214,l)
);
}
);
width = 713;
}
);
note = ae;
unicode = 230;
},
{
glyphname = ccedilla;
kernLeft = c;
kernRight = c;
layers = (
{
layerId = m01;
shapes = (
{
closed = 1;
nodes = (
(270,3,o),
(313,53,o),
(313,91,cs),
(313,97,o),
(310,101,o),
(304,101,cs),
(299,101,o),
(295,97,o),
(288,91,cs),
(263,68,o),
(226,54,o),
(190,54,cs),
(128,54,o),
(103,92,o),
(103,151,cs),
(103,241,o),
(159,308,o),
(233,308,cs),
(268,308,o),
(290,300,o),
(315,284,cs),
(318,282,o),
(321,281,o),
(323,281,cs),
(326,281,o),
(328,284,o),
(330,289,cs),
(338,307,ls),
(350,333,o),
(345,351,o),
(321,362,cs),
(299,372,o),
(276,377,o),
(247,377,cs),
(116,377,o),
(27,268,o),
(27,147,cs),
(27,67,o),
(65,7,o),
(136,-7,c),
(71,-89,ls),
(68,-93,o),
(69,-98,o),
(74,-98,cs),
(121,-98,ls),
(134,-98,o),
(140,-97,o),
(148,-87,c),
(198,-8,l)
);
}
);
width = 354;
}
);
note = ccedilla;
unicode = 231;
},
{
glyphname = egrave;
kernLeft = e;
kernRight = e;
layers = (
{
layerId = m01;
shapes = (
{
closed = 1;
nodes = (
(338,159,ls),
(348,159,o),
(352,162,o),
(354,171,cs),
(362,199,o),
(366,219,o),
(367,249,cs),
(367,325,o),
(318,377,o),
(236,377,cs),
(123,377,o),
(28,284,o),
(27,154,cs),
(25,46,o),
(89,-9,o),
(179,-9,cs),
(271,-9,o),
(337,46,o),
(337,92,cs),
(337,97,o),
(334,101,o),
(329,101,cs),
(325,101,o),
(319,97,o),
(314,93,cs),
(283,73,o),
(252,54,o),
(197,54,cs),
(131,54,o),
(92,88,o),
(98,159,c)
);
},
{
closed = 1;
nodes = (
(126,276,o),
(166,313,o),
(224,313,cs),
(274,313,o),
(297,289,o),
(297,239,c),
(296,233,o),
(296,224,o),
(293,214,c),
(109,214,l)
);
},
{
closed = 1;
nodes = (
(257,506,ls),
(250,513,o),
(246,516,o),
(234,516,cs),
(172,516,ls),
(166,516,o),
(163,510,o),
(166,507,cs),
(234,441,ls),
(241,433,o),
(248,431,o),
(259,431,cs),
(311,431,ls),
(317,431,o),
(319,436,o),
(316,439,cs)
);
}
);
width = 403;
}
);
note = egrave;
unicode = 232;
},
{
glyphname = eacute;
kernLeft = e;
kernRight = e;
layers = (
{
layerId = m01;
shapes = (
{
closed = 1;
nodes = (
(338,159,ls),
(348,159,o),
(352,162,o),
(354,171,cs),
(362,199,o),
(366,219,o),
(367,249,cs),
(367,325,o),
(318,377,o),
(236,377,cs),
(123,377,o),
(28,284,o),
(27,154,cs),
(25,46,o),
(89,-9,o),
(179,-9,cs),
(271,-9,o),
(337,46,o),
(337,92,cs),
(337,97,o),
(334,101,o),
(329,101,cs),
(325,101,o),
(319,97,o),
(314,93,cs),
(283,73,o),
(252,54,o),
(197,54,cs),
(131,54,o),
(92,88,o),
(98,159,c)
);
},
{
closed = 1;
nodes = (
(126,276,o),
(166,313,o),
(224,313,cs),
(274,313,o),
(297,289,o),
(297,239,c),
(296,233,o),
(296,224,o),
(293,214,c),
(109,214,l)
);
},
{
closed = 1;
nodes = (
(167,436,o),
(168,431,o),
(174,431,cs),
(225,431,ls),
(237,431,o),
(244,433,o),
(255,441,cs),
(346,507,ls),
(350,510,o),
(349,516,o),
(343,516,cs),
(279,516,ls),
(269,516,o),
(263,513,o),
(254,506,cs),
(172,439,l)
);
}
);
width = 403;
}
);
note = eacute;
unicode = 233;
},
{
glyphname = ecircumflex;
kernLeft = e;
kernRight = e;
layers = (
{
layerId = m01;
shapes = (
{
closed = 1;
nodes = (
(338,159,ls),
(348,159,o),
(352,162,o),
(354,171,cs),
(362,199,o),
(366,219,o),
(367,249,cs),
(367,325,o),
(318,377,o),
(236,377,cs),
(123,377,o),
(28,284,o),
(27,154,cs),
(25,46,o),
(89,-9,o),
(179,-9,cs),
(271,-9,o),
(337,46,o),
(337,92,cs),
(337,97,o),
(334,101,o),
(329,101,cs),
(325,101,o),
(319,97,o),
(314,93,cs),
(283,73,o),
(252,54,o),
(197,54,cs),
(131,54,o),
(92,88,o),
(98,159,c)
);
},
{
closed = 1;
nodes = (
(126,276,o),
(166,313,o),
(224,313,cs),
(274,313,o),
(297,289,o),
(297,239,c),
(296,233,o),
(296,224,o),
(293,214,c),
(109,214,l)
);
},
{
closed = 1;
nodes = (
(292,442,ls),
(298,433,o),
(306,431,o),
(317,431,cs),
(361,431,ls),
(367,431,o),
(368,436,o),
(366,439,cs),
(311,506,ls),
(304,514,o),
(301,516,o),
(289,516,cs),
(237,516,ls),
(226,516,o),
(220,514,o),
(211,506,cs),
(133,439,l),
(128,436,o),
(129,431,o),
(135,431,cs),
(182,431,ls),
(194,431,o),
(203,433,o),
(212,442,cs),
(259,485,l)
);
}
);
width = 403;
}
);
note = ecircumflex;
unicode = 234;
},
{
glyphname = edieresis;
kernLeft = e;
kernRight = e;
layers = (
{
layerId = m01;
shapes = (
{
closed = 1;
nodes = (
(338,159,ls),
(348,159,o),
(352,162,o),
(354,171,cs),
(362,199,o),
(366,219,o),
(367,249,cs),
(367,325,o),
(318,377,o),
(236,377,cs),
(123,377,o),
(28,284,o),
(27,154,cs),
(25,46,o),
(89,-9,o),
(179,-9,cs),
(271,-9,o),
(337,46,o),
(337,92,cs),
(337,97,o),
(334,101,o),
(329,101,cs),
(325,101,o),
(319,97,o),
(314,93,cs),
(283,73,o),
(252,54,o),
(197,54,cs),
(131,54,o),
(92,88,o),
(98,159,c)
);
},
{
closed = 1;
nodes = (
(126,276,o),
(166,313,o),
(224,313,cs),
(274,313,o),
(297,289,o),
(297,239,c),
(296,233,o),
(296,224,o),
(293,214,c),
(109,214,l)
);
},
{
closed = 1;
nodes = (
(144,436,o),
(158,422,o),
(181,422,cs),
(209,422,o),
(233,446,o),
(234,476,cs),
(234,498,o),
(220,513,o),
(196,513,cs),
(167,513,o),
(144,488,o),
(144,460,cs)
);
},
{
closed = 1;
nodes = (
(277,436,o),
(291,422,o),
(313,422,cs),
(342,422,o),
(365,446,o),
(366,476,cs),
(366,498,o),
(352,513,o),
(328,513,cs),
(299,513,o),
(276,488,o),
(276,460,cs)
);
}
);
width = 403;
}
);
note = edieresis;
unicode = 235;
},
{
glyphname = igrave;
kernLeft = i;
kernRight = i;
layers = (
{
layerId = m01;
shapes = (
{
closed = 1;
nodes = (
(77,0,ls),
(82,0,o),
(85,3,o),
(86,9,cs),
(137,299,ls),
(146,346,o),
(127,368,o),
(90,368,cs),
(85,368,ls),
(79,368,o),
(77,366,o),
(76,360,cs),
(14,9,ls),
(13,3,o),
(14,0,o),
(20,0,cs)
);
},
{
closed = 1;
nodes = (
(126,506,ls),
(120,513,o),
(115,516,o),
(104,516,cs),
(41,516,ls),
(35,516,o),
(32,510,o),
(36,507,c),
(104,441,ls),
(111,433,o),
(118,431,o),
(129,431,cs),
(180,431,ls),
(186,431,o),
(189,436,o),
(186,439,cs)
);
}
);
width = 179;
}
);
note = igrave;
unicode = 236;
},
{
glyphname = iacute;
kernLeft = i;
kernRight = i;
layers = (
{
layerId = m01;
shapes = (
{
closed = 1;
nodes = (
(77,0,ls),
(82,0,o),
(85,3,o),
(86,9,cs),
(137,299,ls),
(146,346,o),
(127,368,o),
(90,368,cs),
(85,368,ls),
(79,368,o),
(77,366,o),
(76,360,cs),
(14,9,ls),
(13,3,o),
(14,0,o),
(20,0,cs)
);
},
{
closed = 1;
nodes = (
(39,436,o),
(39,431,o),
(45,431,cs),
(96,431,ls),
(108,431,o),
(116,433,o),
(126,441,cs),
(217,507,ls),
(221,510,o),
(220,516,o),
(215,516,cs),
(151,516,ls),
(140,516,o),
(135,513,o),
(126,506,cs),
(43,439,ls)
);
}
);
width = 179;
}
);
note = iacute;
unicode = 237;
},
{
glyphname = icircumflex;
kernLeft = i;
kernRight = i;
layers = (
{
layerId = m01;
shapes = (
{
closed = 1;
nodes = (
(88,0,ls),
(94,0,o),
(97,3,o),
(98,9,cs),
(149,299,ls),
(157,346,o),
(139,368,o),
(101,368,cs),
(96,368,ls),
(91,368,o),
(88,366,o),
(87,360,cs),
(26,9,ls),
(25,3,o),
(26,0,o),
(32,0,cs)
);
},
{
closed = 1;
nodes = (
(162,442,ls),
(169,433,o),
(176,431,o),
(188,431,cs),
(231,431,ls),
(237,431,o),
(239,436,o),
(237,439,cs),
(181,506,ls),
(175,514,o),
(171,516,o),
(160,516,cs),
(108,516,ls),
(96,516,o),
(91,514,o),
(82,506,cs),
(3,439,ls),
(-1,436,o),
(0,431,o),
(6,431,cs),
(53,431,ls),
(65,431,o),
(74,433,o),
(83,442,cs),
(130,485,l)
);
}
);
width = 179;
}
);
note = icircumflex;
unicode = 238;
},
{
glyphname = idieresis;
kernLeft = i;
kernRight = i;
layers = (
{
layerId = m01;
shapes = (
{
closed = 1;
nodes = (
(77,0,ls),
(82,0,o),
(85,3,o),
(86,9,cs),
(137,299,ls),
(146,346,o),
(127,368,o),
(90,368,cs),
(85,368,ls),
(79,368,o),
(77,366,o),
(76,360,cs),
(14,9,ls),
(13,3,o),
(14,0,o),
(20,0,cs)
);
},
{
closed = 1;
nodes = (
(19,436,o),
(32,422,o),
(55,422,cs),
(84,422,o),
(107,446,o),
(108,476,cs),
(108,498,o),
(94,513,o),
(70,513,cs),
(41,513,o),
(18,488,o),
(18,460,cs)
);
},
{
closed = 1;
nodes = (
(151,436,o),
(165,422,o),
(187,422,cs),
(216,422,o),
(239,446,o),
(240,476,cs),
(240,498,o),
(226,513,o),
(202,513,cs),
(173,513,o),
(150,488,o),
(150,460,cs)
);
}
);
width = 179;
}
);
note = idieresis;
unicode = 239;
},
{
glyphname = eth;
layers = (
{
layerId = m01;
shapes = (
{
closed = 1;
nodes = (
(258,369,o),
(251,369,o),
(244,369,cs),
(119,369,o),
(27,273,o),
(27,151,cs),
(27,59,o),
(84,-9,o),
(179,-9,cs),
(309,-9,o),
(395,96,o),
(395,222,cs),
(395,266,o),
(387,287,o),
(369,322,cs),
(294,472,l),
(348,499,ls),
(353,502,o),
(354,505,o),
(351,510,cs),
(339,534,ls),
(337,539,o),
(334,541,o),
(329,538,cs),
(274,511,l),
(268,522,ls),
(254,548,o),
(238,556,o),
(200,556,cs),
(180,556,ls),
(174,556,o),
(171,551,o),
(173,547,cs),
(208,479,l),
(144,447,ls),
(139,444,o),
(135,442,o),
(139,436,c),
(150,412,ls),
(153,407,o),
(156,406,o),
(160,407,c),
(227,440,l),
(265,368,l)
);
},
{
closed = 1;
nodes = (
(130,59,o),
(101,101,o),
(101,156,cs),
(101,232,o),
(150,300,o),
(232,300,cs),
(290,300,o),
(319,269,o),
(319,214,cs),
(319,136,o),
(273,59,o),
(188,59,cs)
);
}
);
width = 438;
}
);
note = eth;
unicode = 240;
},
{
glyphname = ntilde;
kernLeft = n;
kernRight = n;
layers = (
{
layerId = m01;
shapes = (
{
closed = 1;
nodes = (
(138,350,o),
(120,368,o),
(90,368,cs),
(85,368,ls),
(80,368,o),
(77,366,o),
(76,360,cs),
(14,9,ls),
(13,3,o),
(14,0,o),
(20,0,cs),
(77,0,ls),
(82,0,o),
(86,3,o),
(86,9,c),
(119,199,ls),
(132,273,o),
(177,310,o),
(235,310,cs),
(284,310,o),
(306,285,o),
(306,238,cs),
(306,228,o),
(304,214,o),
(302,204,cs),
(269,9,l),
(267,3,o),
(269,0,o),
(275,0,cs),
(331,0,ls),
(337,0,o),
(340,3,o),
(341,9,cs),
(377,216,ls),
(379,229,o),
(381,246,o),
(381,261,cs),
(381,326,o),
(337,377,o),
(265,377,cs),
(209,377,o),
(164,348,o),
(138,318,c)
);
},
{
closed = 1;
nodes = (
(384,508,o),
(381,512,o),
(377,512,cs),
(343,512,ls),
(338,512,o),
(334,509,o),
(331,502,cs),
(326,490,o),
(320,484,o),
(308,484,cs),
(282,484,o),
(252,513,o),
(215,513,cs),
(179,513,o),
(153,486,o),
(142,438,cs),
(141,432,o),
(142,429,o),
(148,429,cs),
(182,429,ls),
(187,429,o),
(190,432,o),
(192,439,cs),
(196,451,o),
(202,458,o),
(215,458,cs),
(238,458,o),
(270,431,o),
(304,431,cs),
(344,431,o),
(370,455,o),
(383,503,cs)
);
}
);
width = 432;
}
);
note = ntilde;
unicode = 241;
},
{
glyphname = ograve;
kernLeft = o;
kernRight = o;
layers = (
{
layerId = m01;
shapes = (
{
closed = 1;
nodes = (
(27,56,o),
(87,-9,o),
(178,-9,cs),
(314,-9,o),
(394,97,o),
(394,222,cs),
(394,314,o),
(336,377,o),
(243,377,cs),
(126,377,o),
(26,282,o),
(27,158,cs)
);
},
{
closed = 1;
nodes = (
(102,228,o),
(148,308,o),
(231,308,cs),
(288,308,o),
(318,272,o),
(319,214,cs),
(319,138,o),
(272,59,o),
(188,59,cs),
(132,59,o),
(102,97,o),
(102,156,cs)
);
},
{
closed = 1;
nodes = (
(278,506,ls),
(271,513,o),
(267,516,o),
(255,516,cs),
(193,516,ls),
(187,516,o),
(184,510,o),
(187,507,cs),
(255,441,ls),
(262,433,o),
(269,431,o),
(280,431,cs),
(332,431,ls),
(338,431,o),
(340,436,o),
(337,439,cs)
);
}
);
width = 440;
}
);
note = ograve;
unicode = 242;
},
{
glyphname = oacute;
kernLeft = o;
kernRight = o;
layers = (
{
layerId = m01;
shapes = (
{
closed = 1;
nodes = (
(27,56,o),
(87,-9,o),
(178,-9,cs),
(314,-9,o),
(394,97,o),
(394,222,cs),
(394,314,o),
(336,377,o),
(243,377,cs),
(126,377,o),
(26,282,o),
(27,158,cs)
);
},
{
closed = 1;
nodes = (
(102,228,o),
(148,308,o),
(231,308,cs),
(288,308,o),
(318,272,o),
(319,214,cs),
(319,138,o),
(272,59,o),
(188,59,cs),
(132,59,o),
(102,97,o),
(102,156,cs)
);
},
{
closed = 1;
nodes = (
(178,436,o),
(178,431,o),
(184,431,cs),
(235,431,ls),
(247,431,o),
(255,433,o),
(265,441,cs),
(356,507,ls),
(360,510,o),
(359,516,o),
(354,516,cs),
(290,516,ls),
(279,516,o),
(274,513,o),
(265,506,cs),
(182,439,ls)
);
}
);
width = 440;
}
);
note = oacute;
unicode = 243;
},
{
glyphname = ocircumflex;
kernLeft = o;
kernRight = o;
layers = (
{
layerId = m01;
shapes = (
{
closed = 1;
nodes = (
(27,56,o),
(87,-9,o),
(178,-9,cs),
(314,-9,o),
(394,97,o),
(394,222,cs),
(394,314,o),
(336,377,o),
(243,377,cs),
(126,377,o),
(26,282,o),
(27,158,cs)
);
},
{
closed = 1;
nodes = (
(102,228,o),
(148,308,o),
(231,308,cs),
(288,308,o),
(318,272,o),
(319,214,cs),
(319,138,o),
(272,59,o),
(188,59,cs),
(132,59,o),
(102,97,o),
(102,156,cs)
);
},
{
closed = 1;
nodes = (
(299,442,ls),
(306,433,o),
(313,431,o),
(325,431,cs),
(368,431,ls),
(374,431,o),
(376,436,o),
(374,439,cs),
(318,506,ls),
(312,514,o),
(308,516,o),
(297,516,cs),
(245,516,ls),
(233,516,o),
(228,514,o),
(219,506,cs),
(140,439,ls),
(136,436,o),
(137,431,o),
(143,431,cs),
(190,431,ls),
(202,431,o),
(211,433,o),
(220,442,cs),
(267,485,l)
);
}
);
width = 440;
}
);
note = ocircumflex;
unicode = 244;
},
{
glyphname = otilde;
kernLeft = o;
kernRight = o;
layers = (
{
layerId = m01;
shapes = (
{
closed = 1;
nodes = (
(27,56,o),
(87,-9,o),
(178,-9,cs),
(314,-9,o),
(394,97,o),
(394,222,cs),
(394,314,o),
(336,377,o),
(243,377,cs),
(126,377,o),
(26,282,o),
(27,158,cs)
);
},
{
closed = 1;
nodes = (
(102,228,o),
(148,308,o),
(231,308,cs),
(288,308,o),
(318,272,o),
(319,214,cs),
(319,138,o),
(272,59,o),
(188,59,cs),
(132,59,o),
(102,97,o),
(102,156,cs)
);
},
{
closed = 1;
nodes = (
(384,508,o),
(382,512,o),
(378,512,cs),
(344,512,ls),
(339,512,o),
(334,509,o),
(332,502,cs),
(327,490,o),
(320,484,o),
(309,484,cs),
(283,484,o),
(253,513,o),
(215,513,cs),
(180,513,o),
(154,486,o),
(143,438,cs),
(142,432,o),
(143,429,o),
(149,429,cs),
(183,429,ls),
(188,429,o),
(191,432,o),
(193,439,cs),
(197,451,o),
(203,458,o),
(215,458,cs),
(239,458,o),
(270,431,o),
(304,431,cs),
(345,431,o),
(370,455,o),
(384,503,c)
);
}
);
width = 440;
}
);
note = otilde;
unicode = 245;
},
{
glyphname = odieresis;
kernLeft = o;
kernRight = o;
layers = (
{
layerId = m01;
shapes = (
{
closed = 1;
nodes = (
(27,56,o),
(87,-9,o),
(178,-9,cs),
(314,-9,o),
(394,97,o),
(394,222,cs),
(394,314,o),
(336,377,o),
(243,377,cs),
(126,377,o),
(26,282,o),
(27,158,cs)
);
},
{
closed = 1;
nodes = (
(102,228,o),
(148,308,o),
(231,308,cs),
(288,308,o),
(318,272,o),
(319,214,cs),
(319,138,o),
(272,59,o),
(188,59,cs),
(132,59,o),
(102,97,o),
(102,156,cs)
);
},
{
closed = 1;
nodes = (
(154,436,o),
(168,422,o),
(190,422,cs),
(219,422,o),
(243,446,o),
(243,476,cs),
(243,498,o),
(229,513,o),
(205,513,cs),
(176,513,o),
(153,488,o),
(153,460,cs)
);
},
{
closed = 1;
nodes = (
(286,436,o),
(300,422,o),
(322,422,cs),
(351,422,o),
(374,446,o),
(375,476,cs),
(375,498,o),
(361,513,o),
(337,513,cs),
(308,513,o),
(285,488,o),
(285,460,cs)
);
}
);
width = 440;
}
);
note = odieresis;
unicode = 246;
},
{
glyphname = divide;
layers = (
{
layerId = m01;
shapes = (
{
closed = 1;
nodes = (
(358,238,ls),
(364,238,o),
(366,242,o),
(366,247,cs),
(366,257,ls),
(366,285,o),
(348,304,o),
(315,304,cs),
(45,304,ls),
(39,304,o),
(37,301,o),
(37,295,cs),
(37,247,ls),
(37,242,o),
(39,238,o),
(45,238,cs)
);
},
{
closed = 1;
nodes = (
(158,381,o),
(178,362,o),
(201,362,cs),
(225,362,o),
(244,381,o),
(244,404,cs),
(244,429,o),
(225,448,o),
(201,448,cs),
(178,448,o),
(158,429,o),
(158,404,cs)
);
},
{
closed = 1;
nodes = (
(158,113,o),
(178,94,o),
(201,94,cs),
(225,94,o),
(244,113,o),
(244,137,cs),
(244,161,o),
(225,181,o),
(201,181,cs),
(178,181,o),
(158,161,o),
(158,137,cs)
);
}
);
width = 403;
}
);
note = divide;
unicode = 247;
},
{
glyphname = oslash;
kernLeft = o;
kernRight = o;
layers = (
{
layerId = m01;
shapes = (
{
closed = 1;
nodes = (
(309,-9,o),
(395,96,o),
(395,222,cs),
(395,314,o),
(338,377,o),
(244,377,cs),
(119,377,o),
(27,273,o),
(27,151,cs),
(27,59,o),
(84,-9,o),
(179,-9,cs)
);
},
{
closed = 1;
nodes = (
(106,111,o),
(101,131,o),
(101,156,cs),
(101,232,o),
(150,308,o),
(232,308,cs),
(250,308,o),
(265,305,o),
(278,298,c),
(118,94,l)
);
},
{
closed = 1;
nodes = (
(318,246,o),
(319,231,o),
(319,214,cs),
(319,136,o),
(273,59,o),
(188,59,cs),
(177,59,o),
(166,61,o),
(158,63,c),
(311,258,l)
);
}
);
width = 438;
}
);
note = oslash;
unicode = 248;
},
{
glyphname = ugrave;
kernLeft = u;
kernRight = u;
layers = (
{
layerId = m01;
shapes = (
{
closed = 1;
nodes = (
(38,42,o),
(90,-10,o),
(180,-10,cs),
(274,-10,o),
(338,53,o),
(358,161,cs),
(382,299,ls),
(390,346,o),
(373,368,o),
(334,368,cs),
(329,368,ls),
(324,368,o),
(321,366,o),
(320,360,cs),
(285,161,ls),
(273,94,o),
(239,57,o),
(182,57,cs),
(135,57,o),
(109,84,o),
(109,133,cs),
(109,145,o),
(111,157,o),
(113,168,cs),
(136,299,ls),
(144,346,o),
(125,368,o),
(87,368,cs),
(83,368,ls),
(76,368,o),
(74,366,o),
(73,360,cs),
(42,182,ls),
(39,164,o),
(37,147,o),
(37,131,cs)
);
},
{
closed = 1;
nodes = (
(258,506,ls),
(251,513,o),
(246,516,o),
(235,516,cs),
(173,516,ls),
(166,516,o),
(164,510,o),
(167,507,cs),
(235,441,ls),
(242,433,o),
(249,431,o),
(260,431,cs),
(311,431,ls),
(318,431,o),
(320,436,o),
(317,439,cs)
);
}
);
width = 419;
}
);
note = ugrave;
unicode = 249;
},
{
glyphname = uacute;
kernLeft = u;
kernRight = u;
layers = (
{
layerId = m01;
shapes = (
{
closed = 1;
nodes = (
(38,42,o),
(90,-10,o),
(180,-10,cs),
(274,-10,o),
(338,53,o),
(358,161,cs),
(382,299,ls),
(390,346,o),
(373,368,o),
(334,368,cs),
(329,368,ls),
(324,368,o),
(321,366,o),
(320,360,cs),
(285,161,ls),
(273,94,o),
(239,57,o),
(182,57,cs),
(135,57,o),
(109,84,o),
(109,133,cs),
(109,145,o),
(111,157,o),
(113,168,cs),
(136,299,ls),
(144,346,o),
(125,368,o),
(87,368,cs),
(83,368,ls),
(76,368,o),
(74,366,o),
(73,360,cs),
(42,182,ls),
(39,164,o),
(37,147,o),
(37,131,cs)
);
},
{
closed = 1;
nodes = (
(166,436,o),
(167,431,o),
(173,431,cs),
(224,431,ls),
(236,431,o),
(244,433,o),
(254,441,cs),
(345,507,ls),
(349,510,o),
(348,516,o),
(343,516,cs),
(279,516,ls),
(268,516,o),
(263,513,o),
(254,506,cs),
(171,439,l)
);
}
);
width = 419;
}
);
note = uacute;
unicode = 250;
},
{
glyphname = ucircumflex;
kernLeft = u;
kernRight = u;
layers = (
{
layerId = m01;
shapes = (
{
closed = 1;
nodes = (
(38,42,o),
(90,-10,o),
(180,-10,cs),
(274,-10,o),
(338,53,o),
(358,161,cs),
(382,299,ls),
(390,346,o),
(373,368,o),
(334,368,cs),
(329,368,ls),
(324,368,o),
(321,366,o),
(320,360,cs),
(285,161,ls),
(273,94,o),
(239,57,o),
(182,57,cs),
(135,57,o),
(109,84,o),
(109,133,cs),
(109,145,o),
(111,157,o),
(113,168,cs),
(136,299,ls),
(144,346,o),
(125,368,o),
(87,368,cs),
(83,368,ls),
(76,368,o),
(74,366,o),
(73,360,cs),
(42,182,ls),
(39,164,o),
(37,147,o),
(37,131,cs)
);
},
{
closed = 1;
nodes = (
(287,442,ls),
(294,433,o),
(301,431,o),
(313,431,cs),
(356,431,ls),
(362,431,o),
(364,436,o),
(361,439,cs),
(306,506,ls),
(299,514,o),
(296,516,o),
(284,516,cs),
(233,516,ls),
(221,516,o),
(215,514,o),
(206,506,cs),
(128,439,ls),
(124,436,o),
(125,431,o),
(130,431,cs),
(178,431,ls),
(189,431,o),
(199,433,o),
(208,442,cs),
(255,485,l)
);
}
);
width = 419;
}
);
note = ucircumflex;
unicode = 251;
},
{
glyphname = udieresis;
kernLeft = u;
kernRight = u;
layers = (
{
layerId = m01;
shapes = (
{
closed = 1;
nodes = (
(38,42,o),
(90,-10,o),
(180,-10,cs),
(274,-10,o),
(338,53,o),
(358,161,cs),
(382,299,ls),
(390,346,o),
(373,368,o),
(334,368,cs),
(329,368,ls),
(324,368,o),
(321,366,o),
(320,360,cs),
(285,161,ls),
(273,94,o),
(239,57,o),
(182,57,cs),
(135,57,o),
(109,84,o),
(109,133,cs),
(109,145,o),
(111,157,o),
(113,168,cs),
(136,299,ls),
(144,346,o),
(125,368,o),
(87,368,cs),
(83,368,ls),
(76,368,o),
(74,366,o),
(73,360,cs),
(42,182,ls),
(39,164,o),
(37,147,o),
(37,131,cs)
);
},
{
closed = 1;
nodes = (
(144,436,o),
(158,422,o),
(180,422,cs),
(209,422,o),
(233,446,o),
(234,476,cs),
(234,498,o),
(220,513,o),
(195,513,cs),
(166,513,o),
(144,488,o),
(144,460,cs)
);
},
{
closed = 1;
nodes = (
(276,436,o),
(290,422,o),
(313,422,cs),
(341,422,o),
(365,446,o),
(365,476,cs),
(365,498,o),
(351,513,o),
(328,513,cs),
(299,513,o),
(276,488,o),
(276,460,cs)
);
}
);
width = 419;
}
);
note = udieresis;
unicode = 252;
},
{
glyphname = yacute;
kernLeft = y;
kernRight = y;
layers = (
{
layerId = m01;
shapes = (
{
closed = 1;
nodes = (
(41,-84,o),
(22,-106,o),
(-13,-106,cs),
(-32,-106,o),
(-44,-98,o),
(-58,-81,cs),
(-60,-78,o),
(-63,-76,o),
(-67,-76,cs),
(-78,-76,o),
(-81,-92,o),
(-80,-99,c),
(-81,-139,o),
(-54,-171,o),
(-8,-171,cs),
(65,-171,o),
(101,-108,o),
(153,-9,cs),
(347,360,ls),
(349,364,o),
(348,368,o),
(344,368,cs),
(291,368,ls),
(281,368,o),
(278,366,o),
(273,357,cs),
(136,84,l),
(106,306,ls),
(101,354,o),
(85,368,o),
(45,368,cs),
(32,368,ls),
(27,368,o),
(25,364,o),
(25,360,c),
(82,-7,l)
);
},
{
closed = 1;
nodes = (
(133,436,o),
(134,431,o),
(140,431,cs),
(191,431,ls),
(203,431,o),
(211,433,o),
(221,441,cs),
(312,507,ls),
(316,510,o),
(315,516,o),
(310,516,cs),
(246,516,ls),
(235,516,o),
(230,513,o),
(221,506,cs),
(138,439,l)
);
}
);
width = 341;
}
);
note = yacute;
unicode = 253;
},
{
glyphname = thorn;
layers = (
{
layerId = m01;
shapes = (
{
closed = 1;
nodes = (
(112,12,o),
(153,-9,o),
(205,-9,cs),
(318,-9,o),
(404,93,o),
(404,228,cs),
(404,319,o),
(348,377,o),
(264,377,cs),
(210,377,o),
(168,354,o),
(139,320,c),
(168,487,ls),
(176,534,o),
(157,556,o),
(120,556,cs),
(115,556,ls),
(109,556,o),
(106,553,o),
(105,547,cs),
(-17,-151,ls),
(-18,-157,o),
(-16,-160,o),
(-10,-160,cs),
(46,-160,ls),
(53,-160,o),
(55,-157,o),
(55,-151,c),
(91,49,l)
);
},
{
closed = 1;
nodes = (
(144,59,o),
(112,97,o),
(112,159,cs),
(112,242,o),
(168,308,o),
(240,308,cs),
(298,308,o),
(330,277,o),
(330,213,cs),
(330,130,o),
(276,59,o),
(201,59,cs)
);
}
);
width = 447;
}
);
note = thorn;
unicode = 254;
},
{
glyphname = ydieresis;
kernLeft = y;
kernRight = y;
layers = (
{
layerId = m01;
shapes = (
{
closed = 1;
nodes = (
(41,-84,o),
(22,-106,o),
(-13,-106,cs),
(-32,-106,o),
(-44,-98,o),
(-58,-81,cs),
(-60,-78,o),
(-63,-76,o),
(-67,-76,cs),
(-78,-76,o),
(-81,-92,o),
(-80,-99,c),
(-81,-139,o),
(-54,-171,o),
(-8,-171,cs),
(65,-171,o),
(101,-108,o),
(153,-9,cs),
(347,360,ls),
(349,364,o),
(348,368,o),
(344,368,cs),
(291,368,ls),
(281,368,o),
(278,366,o),
(273,357,cs),
(136,84,l),
(106,306,ls),
(101,354,o),
(85,368,o),
(45,368,cs),
(32,368,ls),
(27,368,o),
(25,364,o),
(25,360,c),
(82,-7,l)
);
},
{
closed = 1;
nodes = (
(102,436,o),
(116,422,o),
(138,422,cs),
(167,422,o),
(191,446,o),
(191,476,cs),
(191,498,o),
(177,513,o),
(153,513,cs),
(124,513,o),
(101,488,o),
(101,460,cs)
);
},
{
closed = 1;
nodes = (
(234,436,o),
(248,422,o),
(270,422,cs),
(299,422,o),
(322,446,o),
(323,476,cs),
(323,498,o),
(309,513,o),
(285,513,cs),
(256,513,o),
(233,488,o),
(233,460,cs)
);
}
);
width = 341;
}
);
note = ydieresis;
unicode = 255;
},
{
glyphname = dotlessi;
kernLeft = r;
kernRight = i;
layers = (
{
layerId = m01;
shapes = (
{
closed = 1;
nodes = (
(76,0,ls),
(81,0,o),
(84,3,o),
(85,9,cs),
(136,299,ls),
(145,346,o),
(126,368,o),
(89,368,cs),
(84,368,ls),
(78,368,o),
(76,366,o),
(75,360,cs),
(13,9,ls),
(12,3,o),
(13,0,o),
(19,0,cs)
);
}
);
width = 179;
}
);
note = dotlessi;
unicode = 305;
},
{
glyphname = Lslash;
layers = (
{
layerId = m01;
shapes = (
{
closed = 1;
nodes = (
(148,246,l),
(291,318,ls),
(298,321,o),
(301,326,o),
(302,333,cs),
(311,383,ls),
(312,388,o),
(308,391,o),
(303,388,cs),
(160,315,l),
(190,485,ls),
(198,533,o),
(181,556,o),
(143,556,cs),
(137,556,ls),
(131,556,o),
(128,553,o),
(127,547,cs),
(78,273,l),
(30,248,l),
(24,246,o),
(20,241,o),
(19,234,cs),
(10,185,ls),
(9,180,o),
(12,177,o),
(19,180,cs),
(67,204,l),
(33,9,ls),
(32,3,o),
(33,0,o),
(39,0,cs),
(298,0,ls),
(305,0,o),
(310,4,o),
(311,11,cs),
(314,27,ls),
(319,54,o),
(308,71,o),
(278,71,cs),
(117,71,l)
);
}
);
width = 372;
}
);
note = Lslash;
unicode = 321;
},
{
glyphname = lslash;
layers = (
{
layerId = m01;
shapes = (
{
closed = 1;
nodes = (
(47,117,ls),
(44,101,o),
(42,86,o),
(42,74,cs),
(42,19,o),
(72,-9,o),
(118,-9,cs),
(175,-9,o),
(215,36,o),
(215,81,cs),
(215,87,o),
(212,89,o),
(208,89,cs),
(204,89,o),
(201,87,o),
(197,83,cs),
(181,68,o),
(167,59,o),
(149,59,cs),
(127,59,o),
(116,72,o),
(116,93,cs),
(116,98,o),
(117,106,o),
(118,111,cs),
(141,242,l),
(201,272,ls),
(208,276,o),
(212,280,o),
(213,286,cs),
(221,335,ls),
(222,340,o),
(218,343,o),
(212,340,cs),
(153,310,l),
(185,487,ls),
(193,534,o),
(174,556,o),
(137,556,cs),
(132,556,ls),
(126,556,o),
(123,553,o),
(122,547,cs),
(73,269,l),
(30,247,ls),
(23,243,o),
(19,238,o),
(18,233,cs),
(10,185,ls),
(9,180,o),
(12,177,o),
(19,180,cs),
(62,202,l)
);
}
);
width = 243;
}
);
note = lslash;
unicode = 322;
},
{
glyphname = OE;
kernLeft = O;
kernRight = E;
layers = (
{
layerId = m01;
shapes = (
{
closed = 1;
nodes = (
(540,242,l),
(738,242,ls),
(746,242,o),
(750,246,o),
(751,252,cs),
(754,268,ls),
(759,296,o),
(746,312,o),
(717,312,cs),
(552,312,l),
(583,485,l),
(800,485,ls),
(806,485,o),
(811,489,o),
(812,496,cs),
(815,513,ls),
(820,541,o),
(808,556,o),
(780,556,cs),
(530,556,ls),
(525,556,o),
(522,553,o),
(521,547,cs),
(511,486,l),
(481,538,o),
(428,567,o),
(356,567,cs),
(195,567,o),
(54,408,o),
(54,219,cs),
(54,73,o),
(132,-10,o),
(259,-10,cs),
(331,-10,o),
(392,20,o),
(437,67,c),
(427,9,ls),
(426,3,o),
(427,0,o),
(432,0,cs),
(722,0,ls),
(730,0,o),
(734,4,o),
(735,11,cs),
(738,27,ls),
(743,54,o),
(732,71,o),
(702,71,cs),
(510,71,l)
);
},
{
closed = 1;
nodes = (
(178,62,o),
(132,117,o),
(132,219,cs),
(132,372,o),
(231,495,o),
(346,495,cs),
(432,495,o),
(480,443,o),
(480,347,cs),
(480,183,o),
(390,62,o),
(263,62,cs)
);
}
);
width = 800;
}
);
note = OE;
unicode = 338;
},
{
glyphname = oe;
kernLeft = o;
kernRight = e;
layers = (
{
layerId = m01;
shapes = (
{
closed = 1;
nodes = (
(354,16,o),
(401,-9,o),
(464,-9,cs),
(555,-9,o),
(621,46,o),
(621,92,cs),
(621,97,o),
(619,101,o),
(613,101,cs),
(609,101,o),
(604,97,o),
(598,93,cs),
(568,73,o),
(536,54,o),
(481,54,cs),
(415,54,o),
(376,88,o),
(383,159,c),
(623,159,ls),
(632,159,o),
(636,162,o),
(639,171,cs),
(646,199,o),
(651,219,o),
(651,249,cs),
(651,325,o),
(602,377,o),
(520,377,cs),
(458,377,o),
(406,351,o),
(371,303,c),
(351,351,o),
(307,377,o),
(244,377,cs),
(127,377,o),
(27,282,o),
(28,158,cs),
(28,56,o),
(88,-9,o),
(179,-9,cs),
(250,-9,o),
(298,21,o),
(332,66,c)
);
},
{
closed = 1;
nodes = (
(103,228,o),
(149,308,o),
(232,308,cs),
(289,308,o),
(319,272,o),
(320,214,cs),
(320,138,o),
(273,59,o),
(189,59,cs),
(133,59,o),
(103,97,o),
(103,156,cs)
);
},
{
closed = 1;
nodes = (
(410,276,o),
(450,313,o),
(509,313,cs),
(558,313,o),
(581,291,o),
(581,242,cs),
(581,234,o),
(580,224,o),
(577,214,c),
(393,214,l)
);
}
);
width = 688;
}
);
note = oe;
unicode = 339;
},
{
glyphname = Scaron;
kernLeft = S;
kernRight = S;
layers = (
{
layerId = m01;
shapes = (
{
closed = 1;
nodes = (
(2,67,o),
(60,-11,o),
(180,-11,cs),
(315,-11,o),
(395,68,o),
(395,182,cs),
(395,321,o),
(142,303,o),
(142,411,cs),
(142,459,o),
(194,498,o),
(264,498,cs),
(317,498,o),
(364,481,o),
(400,455,cs),
(405,451,o),
(408,449,o),
(413,449,cs),
(418,449,o),
(420,453,o),
(423,459,c),
(429,477,ls),
(439,507,o),
(431,524,o),
(403,538,cs),
(369,554,o),
(327,567,o),
(275,567,cs),
(154,567,o),
(66,498,o),
(66,394,cs),
(66,242,o),
(318,266,o),
(318,163,cs),
(318,103,o),
(272,59,o),
(183,59,cs),
(103,59,o),
(60,97,o),
(30,147,cs),
(27,152,o),
(24,154,o),
(19,154,cs),
(8,154,o),
(1,141,o),
(2,121,cs)
);
},
{
closed = 1;
nodes = (
(228,683,ls),
(222,692,o),
(214,693,o),
(202,693,cs),
(159,693,ls),
(153,693,o),
(151,688,o),
(154,684,cs),
(208,618,ls),
(215,610,o),
(219,608,o),
(230,608,cs),
(283,608,ls),
(294,608,o),
(300,611,o),
(308,618,cs),
(387,684,ls),
(391,688,o),
(390,693,o),
(384,693,cs),
(337,693,ls),
(326,693,o),
(318,692,o),
(308,683,cs),
(260,640,l)
);
}
);
width = 431;
}
);
note = Scaron;
unicode = 352;
},
{
glyphname = scaron;
kernLeft = s;
layers = (
{
layerId = m01;
shapes = (
{
closed = 1;
nodes = (
(264,287,o),
(266,285,o),
(269,285,cs),
(273,285,o),
(275,287,o),
(277,292,cs),
(282,304,ls),
(294,333,o),
(290,347,o),
(266,359,cs),
(245,369,o),
(212,377,o),
(180,377,cs),
(96,377,o),
(33,328,o),
(34,257,cs),
(35,155,o),
(192,167,o),
(193,107,cs),
(195,74,o),
(165,51,o),
(117,51,cs),
(64,51,o),
(37,76,o),
(17,101,c),
(15,102,o),
(13,106,o),
(9,106,cs),
(-4,106,o),
(-6,87,o),
(-5,78,c),
(-5,36,o),
(38,-11,o),
(118,-11,cs),
(214,-11,o),
(267,49,o),
(267,125,cs),
(267,219,o),
(107,213,o),
(107,268,cs),
(107,296,o),
(133,315,o),
(175,315,cs),
(208,315,o),
(233,305,o),
(261,288,c)
);
},
{
closed = 1;
nodes = (
(163,505,ls),
(156,514,o),
(148,516,o),
(137,516,cs),
(93,516,ls),
(88,516,o),
(86,510,o),
(88,507,cs),
(143,440,ls),
(150,432,o),
(154,431,o),
(165,431,cs),
(217,431,ls),
(229,431,o),
(235,433,o),
(242,440,cs),
(321,507,l),
(326,510,o),
(325,516,o),
(319,516,cs),
(272,516,ls),
(261,516,o),
(252,514,o),
(242,505,cs),
(195,462,l)
);
}
);
width = 307;
}
);
note = scaron;
unicode = 353;
},
{
glyphname = Ydieresis;
kernLeft = Y;
kernRight = Y;
layers = (
{
layerId = m01;
shapes = (
{
closed = 1;
nodes = (
(149,9,ls),
(148,3,o),
(149,0,o),
(155,0,cs),
(212,0,ls),
(218,0,o),
(220,3,o),
(221,9,cs),
(257,213,l),
(490,544,l),
(494,551,o),
(493,556,o),
(487,556,cs),
(430,556,ls),
(422,556,o),
(416,552,o),
(411,544,cs),
(234,286,l),
(158,506,ls),
(145,542,o),
(129,556,o),
(95,556,cs),
(75,556,ls),
(68,556,o),
(66,551,o),
(67,547,cs),
(185,213,l)
);
},
{
closed = 1;
nodes = (
(156,614,o),
(170,600,o),
(192,600,cs),
(221,600,o),
(245,624,o),
(245,654,cs),
(245,676,o),
(232,691,o),
(207,691,cs),
(178,691,o),
(155,666,o),
(155,638,cs)
);
},
{
closed = 1;
nodes = (
(288,614,o),
(302,600,o),
(324,600,cs),
(353,600,o),
(377,624,o),
(377,654,cs),
(377,676,o),
(363,691,o),
(339,691,cs),
(310,691,o),
(288,666,o),
(288,638,cs)
);
}
);
width = 432;
}
);
note = Ydieresis;
unicode = 376;
},
{
glyphname = Zcaron;
kernLeft = Z;
kernRight = Z;
layers = (
{
layerId = m01;
shapes = (
{
closed = 1;
nodes = (
(427,455,ls),
(440,470,o),
(445,478,o),
(447,492,cs),
(450,505,ls),
(456,543,o),
(436,556,o),
(404,556,cs),
(105,556,ls),
(99,556,o),
(97,553,o),
(96,547,cs),
(86,494,ls),
(85,488,o),
(87,485,o),
(92,485,cs),
(364,485,l),
(21,88,ls),
(9,73,o),
(4,66,o),
(1,51,cs),
(-6,9,ls),
(-7,3,o),
(-6,0,o),
(0,0,cs),
(351,0,ls),
(358,0,o),
(362,4,o),
(364,11,c),
(366,27,ls),
(371,54,o),
(360,71,o),
(331,71,cs),
(94,71,l)
);
},
{
closed = 1;
nodes = (
(226,683,ls),
(220,692,o),
(212,693,o),
(200,693,cs),
(157,693,ls),
(151,693,o),
(149,688,o),
(152,684,cs),
(206,618,ls),
(213,610,o),
(217,608,o),
(229,608,cs),
(281,608,ls),
(292,608,o),
(298,611,o),
(306,618,cs),
(385,684,ls),
(389,688,o),
(389,693,o),
(382,693,cs),
(335,693,ls),
(324,693,o),
(316,692,o),
(306,683,cs),
(259,640,l)
);
}
);
width = 432;
}
);
note = Zcaron;
unicode = 381;
},
{
glyphname = zcaron;
kernLeft = z;
kernRight = z;
layers = (
{
layerId = m01;
shapes = (
{
closed = 1;
nodes = (
(290,276,l),
(302,287,o),
(308,296,o),
(310,313,cs),
(318,354,o),
(307,368,o),
(268,368,cs),
(68,368,ls),
(62,368,o),
(60,366,o),
(59,360,cs),
(50,310,ls),
(49,304,o),
(50,302,o),
(56,302,cs),
(230,302,l),
(16,76,ls),
(4,63,o),
(0,58,o),
(-2,46,cs),
(-8,9,ls),
(-9,3,o),
(-8,0,o),
(-2,0,cs),
(248,0,ls),
(254,0,o),
(256,3,o),
(257,9,cs),
(265,57,l),
(267,63,o),
(265,66,o),
(259,66,cs),
(92,66,l)
);
},
{
closed = 1;
nodes = (
(169,505,ls),
(162,514,o),
(154,516,o),
(143,516,cs),
(99,516,ls),
(94,516,o),
(92,510,o),
(94,507,cs),
(149,440,ls),
(155,432,o),
(160,431,o),
(171,431,cs),
(223,431,ls),
(235,431,o),
(240,433,o),
(248,440,cs),
(327,507,l),
(332,510,o),
(331,516,o),
(325,516,cs),
(278,516,ls),
(267,516,o),
(258,514,o),
(248,505,cs),
(201,462,l)
);
}
);
width = 327;
}
);
note = zcaron;
unicode = 382;
},
{
glyphname = florin;
layers = (
{
layerId = m01;
shapes = (
{
closed = 1;
nodes = (
(71,-47,ls),
(64,-89,o),
(46,-106,o),
(17,-106,cs),
(-3,-106,o),
(-17,-94,o),
(-31,-83,c),
(-34,-82,o),
(-36,-81,o),
(-39,-81,cs),
(-50,-81,o),
(-52,-96,o),
(-52,-103,cs),
(-52,-133,o),
(-30,-171,o),
(26,-171,cs),
(83,-171,o),
(130,-133,o),
(145,-52,cs),
(209,302,l),
(298,302,ls),
(304,302,o),
(307,304,o),
(308,310,cs),
(317,359,l),
(317,365,o),
(316,368,o),
(310,368,cs),
(219,368,l),
(232,437,ls),
(239,480,o),
(257,496,o),
(285,496,cs),
(306,496,o),
(320,485,o),
(334,474,cs),
(336,472,o),
(339,471,o),
(341,471,cs),
(352,471,o),
(355,487,o),
(355,495,cs),
(355,524,o),
(334,562,o),
(278,562,cs),
(220,562,o),
(171,524,o),
(157,442,cs),
(145,368,l),
(78,368,ls),
(72,368,o),
(69,365,o),
(68,359,cs),
(59,310,l),
(59,304,o),
(60,302,o),
(66,302,cs),
(133,302,l)
);
}
);
width = 359;
}
);
note = florin;
unicode = 402;
},
{
glyphname = circumflex;
layers = (
{
layerId = m01;
shapes = (
{
closed = 1;
nodes = (
(164,442,ls),
(171,433,o),
(178,431,o),
(190,431,cs),
(233,431,ls),
(239,431,o),
(241,436,o),
(239,439,cs),
(183,506,ls),
(177,514,o),
(173,516,o),
(162,516,cs),
(110,516,ls),
(98,516,o),
(93,514,o),
(84,506,cs),
(5,439,ls),
(1,436,o),
(2,431,o),
(8,431,cs),
(55,431,ls),
(67,431,o),
(76,433,o),
(85,442,cs),
(132,485,l)
);
}
);
width = 238;
}
);
note = circumflex;
unicode = 710;
},
{
glyphname = caron;
layers = (
{
layerId = m01;
shapes = (
{
closed = 1;
nodes = (
(77,505,ls),
(71,514,o),
(63,516,o),
(51,516,cs),
(8,516,ls),
(2,516,o),
(0,510,o),
(3,507,cs),
(57,440,ls),
(64,432,o),
(68,431,o),
(79,431,cs),
(132,431,ls),
(143,431,o),
(149,433,o),
(157,440,cs),
(236,507,ls),
(240,510,o),
(239,516,o),
(233,516,cs),
(186,516,ls),
(175,516,o),
(167,514,o),
(157,505,cs),
(109,462,l)
);
}
);
width = 238;
}
);
note = caron;
unicode = 711;
},
{
glyphname = breve;
layers = (
{
layerId = m01;
shapes = (
{
closed = 1;
nodes = (
(0,460,o),
(31,422,o),
(93,422,cs),
(157,422,o),
(194,457,o),
(211,507,cs),
(213,513,o),
(211,516,o),
(208,516,cs),
(167,516,ls),
(162,516,o),
(159,514,o),
(156,508,cs),
(146,485,o),
(128,470,o),
(98,470,cs),
(69,470,o),
(56,485,o),
(54,508,cs),
(53,514,o),
(53,516,o),
(48,516,cs),
(8,516,ls),
(3,516,o),
(0,513,o),
(0,507,cs)
);
}
);
width = 212;
}
);
note = breve;
unicode = 728;
},
{
glyphname = dotaccent;
layers = (
{
layerId = m01;
shapes = (
{
closed = 1;
nodes = (
(66,422,o),
(88,446,o),
(89,476,cs),
(89,498,o),
(76,513,o),
(52,513,cs),
(23,513,o),
(0,488,o),
(0,460,cs),
(0,436,o),
(14,422,o),
(37,422,cs)
);
}
);
width = 89;
}
);
note = dotaccent;
unicode = 729;
},
{
glyphname = ring;
layers = (
{
layerId = m01;
shapes = (
{
closed = 1;
nodes = (
(-1,445,o),
(23,419,o),
(60,419,cs),
(104,419,o),
(138,456,o),
(139,501,cs),
(139,534,o),
(115,559,o),
(79,559,cs),
(37,559,o),
(1,526,o),
(0,481,cs)
);
},
{
closed = 1;
nodes = (
(37,504,o),
(52,524,o),
(76,524,cs),
(92,524,o),
(101,513,o),
(101,496,cs),
(102,475,o),
(90,455,o),
(63,455,cs),
(47,455,o),
(37,466,o),
(37,483,cs)
);
}
);
width = 140;
}
);
note = ring;
unicode = 730;
},
{
glyphname = ogonek;
layers = (
{
layerId = m01;
shapes = (
{
closed = 1;
nodes = (
(30,-15,o),
(0,-45,o),
(0,-83,cs),
(0,-117,o),
(24,-142,o),
(68,-142,cs),
(82,-142,o),
(97,-140,o),
(107,-137,cs),
(113,-135,o),
(116,-133,o),
(116,-127,c),
(121,-101,ls),
(122,-97,o),
(120,-93,o),
(114,-96,c),
(108,-97,o),
(98,-99,o),
(87,-99,cs),
(66,-99,o),
(54,-91,o),
(54,-73,cs),
(54,-51,o),
(76,-21,o),
(121,-3,cs),
(126,-1,o),
(125,2,o),
(121,2,cs),
(72,2,ls),
(68,2,o),
(64,1,o),
(62,0,cs)
);
}
);
width = 125;
}
);
note = ogonek;
unicode = 731;
},
{
glyphname = tilde;
layers = (
{
layerId = m01;
shapes = (
{
closed = 1;
nodes = (
(243,508,o),
(241,512,o),
(236,512,cs),
(202,512,ls),
(197,512,o),
(193,509,o),
(190,502,cs),
(185,490,o),
(179,484,o),
(167,484,cs),
(141,484,o),
(112,513,o),
(74,513,cs),
(38,513,o),
(12,486,o),
(1,438,cs),
(0,432,o),
(2,429,o),
(7,429,cs),
(41,429,ls),
(46,429,o),
(49,432,o),
(52,439,cs),
(56,451,o),
(62,458,o),
(74,458,cs),
(97,458,o),
(129,431,o),
(163,431,cs),
(203,431,o),
(229,455,o),
(242,503,cs)
);
}
);
width = 242;
}
);
note = tilde;
unicode = 732;
},
{
glyphname = hungarumlaut;
layers = (
{
layerId = m01;
shapes = (
{
closed = 1;
nodes = (
(0,436,o),
(1,431,o),
(6,431,cs),
(50,431,ls),
(62,431,o),
(71,432,o),
(79,442,c),
(145,507,ls),
(149,511,o),
(148,516,o),
(142,516,cs),
(91,516,ls),
(79,516,o),
(72,514,o),
(64,506,cs),
(4,439,l)
);
},
{
closed = 1;
nodes = (
(185,431,ls),
(197,431,o),
(205,433,o),
(213,442,cs),
(281,507,l),
(283,510,o),
(283,516,o),
(277,516,cs),
(225,516,ls),
(215,516,o),
(207,514,o),
(200,506,cs),
(139,439,ls),
(136,436,o),
(136,431,o),
(141,431,cs)
);
}
);
width = 281;
}
);
note = hungarumlaut;
unicode = 733;
},
{
glyphname = uni03BC;
layers = (
{
layerId = m01;
shapes = (
{
closed = 1;
nodes = (
(105,1,o),
(139,-10,o),
(180,-10,cs),
(274,-10,o),
(339,53,o),
(358,161,cs),
(383,299,ls),
(390,346,o),
(373,368,o),
(335,368,cs),
(330,368,ls),
(325,368,o),
(322,366,o),
(321,360,cs),
(285,161,ls),
(274,94,o),
(239,57,o),
(183,57,cs),
(136,57,o),
(109,84,o),
(109,133,cs),
(109,145,o),
(111,157,o),
(113,168,cs),
(136,299,ls),
(145,346,o),
(125,368,o),
(88,368,cs),
(83,368,ls),
(78,368,o),
(74,366,o),
(74,360,c),
(43,182,l),
(-17,-151,ls),
(-18,-157,o),
(-16,-160,o),
(-10,-160,cs),
(46,-160,ls),
(53,-160,o),
(55,-157,o),
(55,-151,c),
(86,24,l)
);
}
);
width = 418;
}
);
note = uni03BC;
unicode = 956;
},
{
glyphname = uni060C;
layers = (
{
layerId = m01;
shapes = (
{
closed = 1;
nodes = (
(207,70,o),
(186,94,o),
(156,98,c),
(157,118,o),
(167,136,o),
(174,147,cs),
(183,158,o),
(187,177,o),
(167,193,cs),
(165,195,o),
(163,195,o),
(161,193,cs),
(121,156,o),
(93,105,o),
(104,46,cs),
(110,13,o),
(139,-11,o),
(167,-11,cs),
(197,-11,o),
(216,14,o),
(211,44,cs)
);
}
);
width = 217;
}
);
note = uni060C;
unicode = 1548;
},
{
glyphname = uni061B;
layers = (
{
layerId = m01;
shapes = (
{
closed = 1;
nodes = (
(172,289,o),
(151,313,o),
(121,318,c),
(122,338,o),
(132,355,o),
(139,366,cs),
(148,378,o),
(152,397,o),
(132,412,cs),
(130,414,o),
(128,414,o),
(126,413,c),
(86,376,o),
(58,324,o),
(69,266,cs),
(75,233,o),
(104,208,o),
(132,208,cs),
(162,208,o),
(181,233,o),
(176,263,cs)
);
},
{
closed = 1;
nodes = (
(210,74,o),
(181,99,o),
(152,99,cs),
(122,99,o),
(102,74,o),
(107,44,cs),
(112,14,o),
(142,-11,o),
(171,-11,cs),
(201,-11,o),
(220,14,o),
(215,44,cs)
);
}
);
width = 220;
}
);
note = uni061B;
unicode = 1563;
},
{
glyphname = uni061F;
layers = (
{
layerId = m01;
shapes = (
{
closed = 1;
nodes = (
(304,154,o),
(308,159,o),
(307,164,cs),
(297,218,ls),
(280,316,o),
(141,329,o),
(125,409,cs),
(113,472,o),
(162,488,o),
(195,488,cs),
(228,488,o),
(254,479,o),
(278,470,cs),
(284,468,o),
(290,466,o),
(294,466,cs),
(303,466,o),
(305,473,o),
(302,483,cs),
(294,523,o),
(237,559,o),
(176,559,cs),
(89,559,o),
(31,505,o),
(48,413,cs),
(71,287,o),
(207,287,o),
(222,210,cs),
(230,164,l),
(232,159,o),
(237,154,o),
(242,154,cs),
(299,154,ls)
);
},
{
closed = 1;
nodes = (
(253,99,o),
(232,74,o),
(238,44,cs),
(243,14,o),
(272,-11,o),
(302,-11,cs),
(331,-11,o),
(350,14,o),
(345,44,cs),
(340,74,o),
(312,99,o),
(282,99,cs)
);
}
);
width = 377;
}
);
note = uni061F;
unicode = 1567;
},
{
glyphname = uni0621;
layers = (
{
layerId = m01;
shapes = (
{
closed = 1;
nodes = (
(462,46,o),
(432,69,o),
(393,69,cs),
(308,69,ls),
(243,69,o),
(198,123,o),
(190,174,cs),
(177,242,o),
(212,282,o),
(271,282,cs),
(301,282,o),
(329,273,o),
(355,261,cs),
(361,258,o),
(365,256,o),
(369,256,cs),
(379,256,o),
(378,268,o),
(377,276,cs),
(374,292,o),
(361,308,o),
(346,319,cs),
(323,336,o),
(290,348,o),
(253,348,cs),
(160,348,o),
(106,279,o),
(117,176,cs),
(122,130,o),
(140,93,o),
(168,63,c),
(152,60,o),
(137,53,o),
(127,44,cs),
(108,29,o),
(104,3,o),
(113,-18,c),
(116,-23,o),
(120,-26,o),
(124,-26,cs),
(128,-26,o),
(131,-24,o),
(135,-22,c),
(155,-6,o),
(181,0,o),
(214,0,cs),
(455,0,ls),
(465,0,o),
(466,2,o),
(465,12,cs),
(465,17,ls)
);
}
);
width = 475;
}
);
note = uni0621;
unicode = 1569;
},
{
glyphname = uni0622;
layers = (
{
layerId = m01;
shapes = (
{
closed = 1;
nodes = (
(20,696,o),
(2,702,o),
(-16,703,cs),
(-44,706,o),
(-62,683,o),
(-58,660,cs),
(-56,652,o),
(-54,644,o),
(-48,636,cs),
(-45,633,o),
(-43,632,o),
(-40,632,cs),
(-39,632,o),
(-38,632,o),
(-36,633,c),
(-34,635,o),
(-31,641,o),
(-28,647,c),
(-22,655,o),
(-17,659,o),
(-9,659,cs),
(1,659,o),
(20,652,o),
(42,646,cs),
(66,638,o),
(84,632,o),
(102,631,cs),
(131,628,o),
(148,651,o),
(144,674,cs),
(142,682,o),
(140,690,o),
(134,698,cs),
(131,701,o),
(130,702,o),
(127,702,cs),
(125,702,o),
(124,702,o),
(122,701,c),
(120,699,o),
(117,693,o),
(114,687,cs),
(109,679,o),
(104,674,o),
(96,674,cs),
(85,674,o),
(66,682,o),
(45,688,cs)
);
},
{
closed = 1;
nodes = (
(171,0,o),
(190,24,o),
(182,68,cs),
(97,548,ls),
(96,553,o),
(93,556,o),
(87,556,cs),
(80,556,ls),
(42,556,o),
(24,532,o),
(32,488,cs),
(117,8,ls),
(118,2,o),
(121,0,o),
(127,0,cs),
(134,0,ls)
);
}
);
width = 212;
}
);
note = uni0622;
unicode = 1570;
},
{
glyphname = uni0623;
layers = (
{
layerId = m01;
shapes = (
{
closed = 1;
nodes = (
(144,639,o),
(146,642,o),
(145,648,cs),
(144,652,ls),
(142,671,o),
(128,684,o),
(104,684,cs),
(67,684,ls),
(49,684,o),
(26,698,o),
(22,723,cs),
(18,746,o),
(33,758,o),
(54,759,cs),
(64,759,o),
(77,757,o),
(88,752,cs),
(93,750,o),
(97,748,o),
(101,747,cs),
(107,746,o),
(109,750,o),
(107,757,cs),
(102,786,o),
(78,803,o),
(47,803,cs),
(0,803,o),
(-28,769,o),
(-25,723,cs),
(-24,708,o),
(-18,693,o),
(-9,682,c),
(-38,678,o),
(-49,659,o),
(-38,634,cs),
(-36,630,o),
(-34,628,o),
(-31,628,cs),
(-27,628,o),
(-25,631,o),
(-18,633,cs),
(-3,639,o),
(12,639,o),
(33,639,cs),
(137,639,ls)
);
},
{
closed = 1;
nodes = (
(99,553,o),
(96,556,o),
(90,556,cs),
(83,556,ls),
(45,556,o),
(27,532,o),
(35,488,cs),
(120,8,ls),
(121,2,o),
(124,0,o),
(130,0,cs),
(137,0,ls),
(174,0,o),
(193,24,o),
(185,68,cs),
(100,548,ls)
);
}
);
width = 212;
}
);
note = uni0623;
unicode = 1571;
},
{
glyphname = uni0624;
layers = (
{
layerId = m01;
shapes = (
{
closed = 1;
nodes = (
(127,449,o),
(130,452,o),
(136,454,cs),
(152,460,o),
(166,461,o),
(188,461,cs),
(292,461,ls),
(299,461,o),
(301,463,o),
(300,469,cs),
(299,473,ls),
(296,492,o),
(283,505,o),
(259,505,cs),
(221,505,ls),
(204,505,o),
(181,519,o),
(177,544,cs),
(173,567,o),
(188,579,o),
(209,580,cs),
(219,581,o),
(231,578,o),
(242,573,cs),
(248,571,o),
(252,569,o),
(256,568,cs),
(262,567,o),
(264,571,o),
(262,578,cs),
(256,607,o),
(233,624,o),
(202,624,cs),
(155,624,o),
(126,590,o),
(130,544,cs),
(131,529,o),
(136,514,o),
(146,503,c),
(117,499,o),
(106,481,o),
(116,456,c),
(119,451,o),
(121,449,o),
(124,449,cs)
);
},
{
closed = 1;
nodes = (
(420,270,o),
(357,379,o),
(228,377,cs),
(136,376,o),
(68,304,o),
(88,182,cs),
(106,73,o),
(181,-9,o),
(289,-9,cs),
(324,-9,o),
(354,-2,o),
(384,15,c),
(396,-74,o),
(388,-141,o),
(289,-143,cs),
(241,-143,o),
(224,-138,o),
(194,-128,cs),
(191,-127,o),
(186,-126,o),
(181,-126,cs),
(169,-126,o),
(164,-135,o),
(169,-147,cs),
(189,-189,o),
(250,-214,o),
(307,-214,cs),
(382,-215,o),
(432,-182,o),
(450,-124,cs),
(472,-63,o),
(465,16,o),
(445,130,cs)
);
},
{
closed = 1;
nodes = (
(224,63,o),
(179,112,o),
(166,184,cs),
(154,253,o),
(178,306,o),
(236,306,cs),
(319,306,o),
(354,200,o),
(368,117,cs),
(370,108,o),
(371,99,o),
(371,92,c),
(349,72,o),
(318,63,o),
(282,63,cs)
);
}
);
width = 460;
}
);
note = uni0624;
unicode = 1572;
},
{
glyphname = uni0625;
layers = (
{
layerId = m01;
shapes = (
{
closed = 1;
nodes = (
(174,0,o),
(193,24,o),
(185,68,cs),
(100,548,ls),
(99,553,o),
(96,556,o),
(90,556,cs),
(83,556,ls),
(45,556,o),
(27,532,o),
(35,488,cs),
(120,8,ls),
(121,2,o),
(124,0,o),
(130,0,cs),
(136,0,ls)
);
},
{
closed = 1;
nodes = (
(286,-200,o),
(273,-187,o),
(249,-187,cs),
(211,-187,ls),
(194,-187,o),
(171,-173,o),
(167,-148,cs),
(163,-125,o),
(178,-113,o),
(199,-112,cs),
(209,-112,o),
(221,-114,o),
(233,-119,cs),
(238,-121,o),
(242,-123,o),
(246,-124,cs),
(252,-125,o),
(254,-121,o),
(252,-114,cs),
(246,-86,o),
(223,-68,o),
(192,-68,cs),
(145,-68,o),
(116,-102,o),
(120,-148,cs),
(121,-163,o),
(126,-178,o),
(136,-189,c),
(107,-193,o),
(96,-212,o),
(106,-237,c),
(109,-241,o),
(111,-243,o),
(114,-243,cs),
(118,-243,o),
(120,-241,o),
(126,-238,cs),
(142,-232,o),
(156,-232,o),
(178,-232,cs),
(282,-232,ls),
(289,-232,o),
(291,-229,o),
(290,-223,cs),
(289,-219,ls)
);
}
);
width = 212;
}
);
note = uni0625;
unicode = 1573;
},
{
glyphname = uni0626;
layers = (
{
layerId = m01;
shapes = (
{
closed = 1;
nodes = (
(252,320,o),
(254,322,o),
(253,328,cs),
(252,332,ls),
(250,352,o),
(236,364,o),
(212,364,cs),
(175,364,ls),
(157,364,o),
(134,378,o),
(130,403,cs),
(126,427,o),
(141,438,o),
(162,439,cs),
(172,440,o),
(185,438,o),
(196,433,cs),
(201,431,o),
(205,428,o),
(209,427,c),
(215,427,o),
(217,431,o),
(215,438,cs),
(210,466,o),
(186,483,o),
(155,483,cs),
(108,483,o),
(80,449,o),
(83,404,cs),
(84,388,o),
(90,374,o),
(99,362,c),
(70,358,o),
(59,340,o),
(70,315,cs),
(72,311,o),
(74,308,o),
(77,308,cs),
(81,308,o),
(83,311,o),
(90,313,cs),
(105,319,o),
(120,320,o),
(141,320,cs),
(245,320,ls)
);
},
{
closed = 1;
nodes = (
(432,126,o),
(386,153,o),
(378,203,cs),
(377,210,o),
(376,217,o),
(376,224,cs),
(376,277,o),
(416,306,o),
(468,306,cs),
(508,306,o),
(543,288,o),
(565,278,cs),
(570,276,o),
(575,274,o),
(578,274,cs),
(587,274,o),
(591,282,o),
(591,292,cs),
(591,295,o),
(591,298,o),
(590,302,cs),
(580,345,o),
(522,377,o),
(457,377,cs),
(369,377,o),
(299,322,o),
(299,228,cs),
(299,219,o),
(300,211,o),
(301,202,cs),
(313,107,o),
(383,66,o),
(465,47,cs),
(543,28,o),
(592,26,o),
(592,-12,cs),
(592,-13,o),
(592,-16,o),
(591,-18,c),
(580,-98,o),
(512,-143,o),
(418,-143,cs),
(295,-143,o),
(197,-69,o),
(174,56,cs),
(171,73,o),
(169,90,o),
(169,108,cs),
(169,143,o),
(176,179,o),
(190,215,cs),
(191,219,o),
(192,222,o),
(192,224,cs),
(192,235,o),
(184,238,o),
(177,238,cs),
(173,238,o),
(167,237,o),
(162,233,cs),
(148,223,o),
(133,206,o),
(123,187,cs),
(108,159,o),
(99,123,o),
(99,83,cs),
(99,69,o),
(100,56,o),
(102,41,cs),
(122,-96,o),
(221,-214,o),
(421,-214,cs),
(564,-214,o),
(670,-125,o),
(670,1,cs),
(670,80,o),
(583,91,o),
(485,113,cs)
);
}
);
width = 675;
}
);
note = uni0626;
unicode = 1574;
},
{
glyphname = uni0627;
layers = (
{
layerId = m01;
shapes = (
{
closed = 1;
nodes = (
(174,0,o),
(193,24,o),
(185,68,cs),
(100,548,ls),
(99,553,o),
(96,556,o),
(90,556,cs),
(83,556,ls),
(45,556,o),
(27,532,o),
(35,488,cs),
(120,8,ls),
(121,2,o),
(124,0,o),
(130,0,cs),
(136,0,ls)
);
}
);
width = 212;
}
);
note = uni0627;
unicode = 1575;
},
{
glyphname = uni0628;
layers = (
{
layerId = m01;
shapes = (
{
closed = 1;
nodes = (
(685,356,o),
(683,358,o),
(677,358,cs),
(669,358,ls),
(632,358,o),
(613,334,o),
(621,291,cs),
(642,169,ls),
(652,113,o),
(642,74,o),
(589,74,cs),
(287,74,ls),
(219,74,o),
(154,101,o),
(145,177,cs),
(140,214,o),
(145,242,o),
(166,276,cs),
(175,289,o),
(172,303,o),
(157,303,cs),
(153,303,o),
(148,302,o),
(141,298,cs),
(93,269,o),
(76,209,o),
(83,154,cs),
(94,49,o),
(179,0,o),
(288,0,cs),
(589,0,ls),
(688,0,o),
(738,62,o),
(719,168,cs),
(687,350,l)
);
},
{
closed = 1;
nodes = (
(419,-69,o),
(402,-91,o),
(407,-119,cs),
(412,-147,o),
(437,-169,o),
(465,-169,cs),
(492,-169,o),
(510,-147,o),
(505,-119,cs),
(500,-91,o),
(474,-69,o),
(447,-69,cs)
);
}
);
width = 763;
}
);
note = uni0628;
unicode = 1576;
},
{
glyphname = uni0629;
layers = (
{
layerId = m01;
shapes = (
{
closed = 1;
nodes = (
(117,596,o),
(94,615,o),
(69,615,cs),
(45,615,o),
(29,596,o),
(34,571,cs),
(38,544,o),
(61,525,o),
(85,525,cs),
(110,525,o),
(126,544,o),
(122,571,cs)
);
},
{
closed = 1;
nodes = (
(236,525,o),
(252,544,o),
(247,571,cs),
(242,596,o),
(220,615,o),
(196,615,cs),
(171,615,o),
(155,596,o),
(160,571,cs),
(164,544,o),
(187,525,o),
(212,525,cs)
);
},
{
closed = 1;
nodes = (
(417,232,o),
(392,279,o),
(332,329,cs),
(286,367,o),
(224,399,o),
(190,449,cs),
(186,456,o),
(183,460,o),
(178,458,cs),
(175,457,o),
(172,456,o),
(170,455,cs),
(147,443,o),
(137,421,o),
(151,395,cs),
(157,382,o),
(165,374,o),
(174,366,c),
(90,322,o),
(68,244,o),
(77,176,cs),
(92,54,o),
(183,-9,o),
(280,-9,cs),
(386,-9,o),
(440,67,o),
(425,172,cs)
);
},
{
closed = 1;
nodes = (
(221,62,o),
(166,109,o),
(156,173,cs),
(147,226,o),
(158,277,o),
(231,313,c),
(261,293,o),
(274,283,o),
(294,264,cs),
(327,234,o),
(340,204,o),
(345,177,cs),
(359,108,o),
(332,62,o),
(278,62,cs)
);
}
);
width = 461;
}
);
note = uni0629;
unicode = 1577;
},
{
glyphname = uni062A;
layers = (
{
layerId = m01;
shapes = (
{
closed = 1;
nodes = (
(333,377,o),
(349,396,o),
(345,422,cs),
(340,448,o),
(317,467,o),
(292,467,cs),
(268,467,o),
(252,448,o),
(257,422,cs),
(262,396,o),
(284,377,o),
(308,377,cs)
);
},
{
closed = 1;
nodes = (
(459,377,o),
(475,396,o),
(470,422,cs),
(465,448,o),
(443,467,o),
(419,467,cs),
(394,467,o),
(378,448,o),
(383,422,cs),
(387,396,o),
(410,377,o),
(435,377,cs)
);
},
{
closed = 1;
nodes = (
(685,356,o),
(683,358,o),
(677,358,cs),
(669,358,ls),
(632,358,o),
(613,334,o),
(621,291,cs),
(642,169,ls),
(652,113,o),
(642,74,o),
(589,74,cs),
(287,74,ls),
(219,74,o),
(154,101,o),
(145,177,cs),
(140,214,o),
(145,242,o),
(166,276,cs),
(175,289,o),
(172,303,o),
(157,303,cs),
(153,303,o),
(148,302,o),
(141,298,cs),
(93,269,o),
(76,209,o),
(83,154,cs),
(94,49,o),
(179,0,o),
(288,0,cs),
(589,0,ls),
(688,0,o),
(738,62,o),
(719,168,cs),
(687,350,l)
);
}
);
width = 763;
}
);
note = uni062A;
unicode = 1578;
},
{
glyphname = uni062B;
layers = (
{
layerId = m01;
shapes = (
{
closed = 1;
nodes = (
(382,472,o),
(398,491,o),
(393,516,cs),
(388,542,o),
(366,562,o),
(342,562,cs),
(317,562,o),
(300,542,o),
(305,516,cs),
(310,491,o),
(333,472,o),
(358,472,cs)
);
},
{
closed = 1;
nodes = (
(334,376,o),
(350,395,o),
(345,421,cs),
(341,447,o),
(318,466,o),
(293,466,cs),
(268,466,o),
(253,447,o),
(258,421,cs),
(262,395,o),
(284,376,o),
(309,376,cs)
);
},
{
closed = 1;
nodes = (
(388,395,o),
(410,376,o),
(435,376,cs),
(460,376,o),
(475,395,o),
(471,421,cs),
(467,447,o),
(444,466,o),
(419,466,cs),
(394,466,o),
(379,447,o),
(383,421,cs)
);
},
{
closed = 1;
nodes = (
(685,356,o),
(683,358,o),
(677,358,cs),
(669,358,ls),
(632,358,o),
(613,334,o),
(621,291,cs),
(642,169,ls),
(652,113,o),
(642,74,o),
(589,74,cs),
(287,74,ls),
(219,74,o),
(154,101,o),
(145,177,cs),
(140,214,o),
(145,242,o),
(166,276,cs),
(175,289,o),
(172,303,o),
(157,303,cs),
(153,303,o),
(148,302,o),
(141,298,cs),
(93,269,o),
(76,209,o),
(83,154,cs),
(94,49,o),
(179,0,o),
(288,0,cs),
(589,0,ls),
(688,0,o),
(738,62,o),
(719,168,cs),
(687,350,l)
);
}
);
width = 763;
}
);
note = uni062B;
unicode = 1579;
},
{
glyphname = uni062C;
layers = (
{
layerId = m01;
shapes = (
{
closed = 1;
nodes = (
(570,0,o),
(589,28,o),
(582,66,cs),
(580,73,o),
(578,74,o),
(572,75,cs),
(558,76,o),
(544,81,o),
(534,90,cs),
(508,113,o),
(492,144,o),
(463,207,cs),
(411,314,o),
(343,377,o),
(246,377,cs),
(166,378,o),
(109,330,o),
(100,276,cs),
(98,261,o),
(101,245,o),
(115,245,cs),
(125,245,o),
(130,251,o),
(136,258,cs),
(168,291,o),
(196,306,o),
(241,306,cs),
(305,306,o),
(350,264,o),
(385,194,cs),
(419,127,o),
(435,93,o),
(458,74,c),
(295,74,ls),
(158,74,o),
(92,-14,o),
(108,-127,cs),
(124,-238,o),
(216,-329,o),
(362,-331,cs),
(439,-332,o),
(519,-298,o),
(536,-238,cs),
(540,-224,o),
(529,-211,o),
(512,-221,cs),
(491,-233,o),
(474,-242,o),
(454,-248,cs),
(428,-257,o),
(400,-261,o),
(359,-260,cs),
(263,-257,o),
(202,-198,o),
(191,-130,cs),
(179,-64,o),
(207,0,o),
(299,0,cs),
(524,0,ls)
);
},
{
closed = 1;
nodes = (
(329,-71,o),
(311,-92,o),
(316,-121,cs),
(321,-148,o),
(346,-171,o),
(374,-171,cs),
(401,-171,o),
(419,-148,o),
(414,-121,cs),
(409,-92,o),
(384,-71,o),
(356,-71,cs)
);
}
);
width = 593;
}
);
note = uni062C;
unicode = 1580;
},
{
glyphname = uni062D;
layers = (
{
layerId = m01;
shapes = (
{
closed = 1;
nodes = (
(570,0,o),
(589,28,o),
(582,66,cs),
(580,73,o),
(578,74,o),
(572,75,cs),
(558,76,o),
(544,81,o),
(534,90,cs),
(508,113,o),
(492,144,o),
(463,207,cs),
(411,314,o),
(343,377,o),
(246,377,cs),
(166,378,o),
(109,330,o),
(100,276,cs),
(98,261,o),
(101,245,o),
(115,245,cs),
(125,245,o),
(130,251,o),
(136,258,cs),
(168,291,o),
(196,306,o),
(241,306,cs),
(305,306,o),
(350,264,o),
(385,194,cs),
(419,127,o),
(435,93,o),
(458,74,c),
(295,74,ls),
(158,74,o),
(92,-14,o),
(108,-127,cs),
(124,-238,o),
(216,-329,o),
(362,-331,cs),
(439,-332,o),
(519,-298,o),
(536,-238,cs),
(540,-224,o),
(529,-211,o),
(512,-221,cs),
(491,-233,o),
(474,-242,o),
(454,-248,cs),
(428,-257,o),
(400,-261,o),
(359,-260,cs),
(263,-257,o),
(202,-198,o),
(191,-130,cs),
(179,-64,o),
(207,0,o),
(299,0,cs),
(524,0,ls)
);
}
);
width = 593;
}
);
note = uni062D;
unicode = 1581;
},
{
glyphname = uni062E;
layers = (
{
layerId = m01;
shapes = (
{
closed = 1;
nodes = (
(188,539,o),
(170,518,o),
(175,489,cs),
(180,462,o),
(205,439,o),
(233,439,cs),
(260,439,o),
(278,462,o),
(273,489,cs),
(268,518,o),
(243,539,o),
(215,539,cs)
);
},
{
closed = 1;
nodes = (
(570,0,o),
(589,28,o),
(582,66,cs),
(580,73,o),
(578,74,o),
(572,75,cs),
(558,76,o),
(544,81,o),
(534,90,cs),
(508,113,o),
(492,144,o),
(463,207,cs),
(411,314,o),
(343,377,o),
(246,377,cs),
(166,378,o),
(109,330,o),
(100,276,cs),
(98,261,o),
(101,245,o),
(115,245,cs),
(125,245,o),
(130,251,o),
(136,258,cs),
(168,291,o),
(196,306,o),
(241,306,cs),
(305,306,o),
(350,264,o),
(385,194,cs),
(419,127,o),
(435,93,o),
(458,74,c),
(295,74,ls),
(158,74,o),
(92,-14,o),
(108,-127,cs),
(124,-238,o),
(216,-329,o),
(362,-331,cs),
(439,-332,o),
(519,-298,o),
(536,-238,cs),
(540,-224,o),
(529,-211,o),
(512,-221,cs),
(491,-233,o),
(474,-242,o),
(454,-248,cs),
(428,-257,o),
(400,-261,o),
(359,-260,cs),
(263,-257,o),
(202,-198,o),
(191,-130,cs),
(179,-64,o),
(207,0,o),
(299,0,cs),
(524,0,ls)
);
}
);
width = 593;
}
);
note = uni062E;
unicode = 1582;
},
{
glyphname = uni062F;
layers = (
{
layerId = m01;
shapes = (
{
closed = 1;
nodes = (
(355,0,o),
(411,86,o),
(393,196,cs),
(375,313,o),
(304,377,o),
(202,377,cs),
(142,377,o),
(106,339,o),
(110,307,cs),
(111,295,o),
(115,288,o),
(124,288,cs),
(129,288,o),
(132,290,o),
(137,293,c),
(156,301,o),
(170,306,o),
(196,306,cs),
(259,306,o),
(302,257,o),
(315,183,cs),
(326,118,o),
(298,74,o),
(242,74,cs),
(162,74,ls),
(120,74,o),
(99,50,o),
(104,19,cs),
(105,12,ls),
(107,2,o),
(111,0,o),
(121,0,cs),
(257,0,ls)
);
}
);
width = 434;
}
);
note = uni062F;
unicode = 1583;
},
{
glyphname = uni0630;
layers = (
{
layerId = m01;
shapes = (
{
closed = 1;
nodes = (
(95,533,o),
(77,512,o),
(82,483,cs),
(87,456,o),
(113,433,o),
(140,433,cs),
(168,433,o),
(185,456,o),
(180,483,cs),
(175,512,o),
(150,533,o),
(123,533,cs)
);
},
{
closed = 1;
nodes = (
(356,0,o),
(412,86,o),
(394,196,cs),
(376,313,o),
(305,377,o),
(203,377,cs),
(143,377,o),
(106,339,o),
(110,307,cs),
(112,295,o),
(115,288,o),
(125,288,cs),
(130,288,o),
(133,290,o),
(138,293,cs),
(156,301,o),
(171,306,o),
(197,306,cs),
(260,306,o),
(303,257,o),
(315,183,cs),
(327,118,o),
(299,74,o),
(243,74,cs),
(163,74,ls),
(120,74,o),
(100,50,o),
(105,19,cs),
(106,12,ls),
(108,2,o),
(111,0,o),
(122,0,cs),
(258,0,ls)
);
}
);
width = 434;
}
);
note = uni0630;
unicode = 1584;
},
{
glyphname = uni0631;
layers = (
{
layerId = m01;
shapes = (
{
closed = 1;
nodes = (
(194,-89,o),
(191,-141,o),
(104,-143,cs),
(76,-143,o),
(54,-138,o),
(23,-128,cs),
(19,-127,o),
(14,-125,o),
(9,-125,cs),
(-3,-125,o),
(-8,-134,o),
(-3,-146,cs),
(14,-186,o),
(77,-213,o),
(129,-214,cs),
(243,-216,o),
(276,-127,o),
(251,13,cs),
(192,350,ls),
(191,356,o),
(188,358,o),
(181,358,cs),
(175,358,ls),
(137,358,o),
(119,334,o),
(126,291,cs),
(179,-4,ls)
);
}
);
width = 271;
}
);
note = uni0631;
unicode = 1585;
},
{
glyphname = uni0632;
layers = (
{
layerId = m01;
shapes = (
{
closed = 1;
nodes = (
(90,528,o),
(73,507,o),
(78,478,cs),
(83,451,o),
(108,428,o),
(136,428,cs),
(163,428,o),
(181,451,o),
(176,478,cs),
(171,507,o),
(145,528,o),
(118,528,cs)
);
},
{
closed = 1;
nodes = (
(194,-89,o),
(191,-141,o),
(104,-143,cs),
(76,-143,o),
(54,-138,o),
(23,-128,cs),
(19,-127,o),
(14,-125,o),
(9,-125,cs),
(-3,-125,o),
(-8,-134,o),
(-3,-146,cs),
(14,-186,o),
(77,-213,o),
(129,-214,cs),
(243,-216,o),
(276,-127,o),
(251,13,cs),
(192,350,ls),
(191,356,o),
(188,358,o),
(181,358,cs),
(175,358,ls),
(137,358,o),
(119,334,o),
(126,291,cs),
(179,-4,ls)
);
}
);
width = 271;
}
);
note = uni0632;
unicode = 1586;
},
{
glyphname = uni0633;
layers = (
{
layerId = m01;
shapes = (
{
closed = 1;
nodes = (
(1027,356,o),
(1023,358,o),
(1017,358,cs),
(1011,358,ls),
(973,358,o),
(955,334,o),
(962,291,cs),
(985,159,ls),
(995,102,o),
(988,66,o),
(921,66,cs),
(867,66,o),
(833,107,o),
(823,162,cs),
(793,331,ls),
(792,336,o),
(789,338,o),
(783,338,cs),
(776,338,ls),
(738,338,o),
(720,315,o),
(728,271,cs),
(748,162,ls),
(758,104,o),
(751,66,o),
(683,66,cs),
(638,66,o),
(598,96,o),
(587,159,c),
(586,158,l),
(580,193,o),
(571,239,o),
(558,311,cs),
(557,316,o),
(555,319,o),
(549,319,cs),
(542,319,ls),
(505,319,o),
(486,295,o),
(493,251,cs),
(528,58,ls),
(553,-80,o),
(486,-143,o),
(390,-143,cs),
(300,-143,o),
(200,-82,o),
(178,55,cs),
(169,108,o),
(177,162,o),
(200,213,c),
(201,217,o),
(202,219,o),
(202,222,cs),
(202,233,o),
(194,236,o),
(187,236,cs),
(182,236,o),
(177,234,o),
(173,232,cs),
(122,199,o),
(94,124,o),
(106,40,cs),
(129,-118,o),
(240,-214,o),
(393,-214,cs),
(512,-214,o),
(613,-140,o),
(610,8,c),
(633,-3,o),
(661,-9,o),
(697,-9,cs),
(743,-9,o),
(783,7,o),
(805,36,c),
(836,6,o),
(879,-9,o),
(935,-9,cs),
(1032,-9,o),
(1080,53,o),
(1062,158,cs),
(1028,350,ls)
);
}
);
width = 1100;
}
);
note = uni0633;
unicode = 1587;
},
{
glyphname = uni0634;
layers = (
{
layerId = m01;
shapes = (
{
closed = 1;
nodes = (
(750,510,o),
(765,529,o),
(761,554,cs),
(756,581,o),
(733,600,o),
(709,600,cs),
(684,600,o),
(668,581,o),
(673,554,cs),
(677,529,o),
(700,510,o),
(725,510,cs)
);
},
{
closed = 1;
nodes = (
(701,414,o),
(717,433,o),
(713,459,cs),
(708,485,o),
(685,504,o),
(660,504,cs),
(636,504,o),
(621,485,o),
(625,459,cs),
(630,433,o),
(652,414,o),
(676,414,cs)
);
},
{
closed = 1;
nodes = (
(755,433,o),
(778,414,o),
(803,414,cs),
(827,414,o),
(843,433,o),
(838,459,cs),
(834,485,o),
(811,504,o),
(787,504,cs),
(762,504,o),
(746,485,o),
(751,459,cs)
);
},
{
closed = 1;
nodes = (
(1027,356,o),
(1023,358,o),
(1017,358,cs),
(1011,358,ls),
(973,358,o),
(955,334,o),
(962,291,cs),
(985,159,ls),
(995,102,o),
(988,66,o),
(921,66,cs),
(867,66,o),
(833,107,o),
(823,162,cs),
(793,331,ls),
(792,336,o),
(789,338,o),
(783,338,cs),
(776,338,ls),
(738,338,o),
(720,315,o),
(728,271,cs),
(748,162,ls),
(758,104,o),
(751,66,o),
(683,66,cs),
(638,66,o),
(598,96,o),
(587,159,c),
(586,158,l),
(580,193,o),
(571,239,o),
(558,311,cs),
(557,316,o),
(555,319,o),
(549,319,cs),
(542,319,ls),
(505,319,o),
(486,295,o),
(493,251,cs),
(528,58,ls),
(553,-80,o),
(486,-143,o),
(390,-143,cs),
(300,-143,o),
(200,-82,o),
(178,55,cs),
(169,108,o),
(177,162,o),
(200,213,c),
(201,217,o),
(202,219,o),
(202,222,cs),
(202,233,o),
(194,236,o),
(187,236,cs),
(182,236,o),
(177,234,o),
(173,232,cs),
(122,199,o),
(94,124,o),
(106,40,cs),
(129,-118,o),
(240,-214,o),
(393,-214,cs),
(512,-214,o),
(613,-140,o),
(610,8,c),
(633,-3,o),
(661,-9,o),
(697,-9,cs),
(743,-9,o),
(783,7,o),
(805,36,c),
(836,6,o),
(879,-9,o),
(935,-9,cs),
(1032,-9,o),
(1080,53,o),
(1062,158,cs),
(1028,350,ls)
);
}
);
width = 1100;
}
);
note = uni0634;
unicode = 1588;
},
{
glyphname = uni0635;
layers = (
{
layerId = m01;
shapes = (
{
closed = 1;
nodes = (
(1197,302,o),
(1102,377,o),
(973,377,cs),
(800,377,o),
(701,239,o),
(689,74,c),
(682,74,ls),
(637,74,o),
(597,104,o),
(585,167,cs),
(552,350,ls),
(551,356,o),
(548,358,o),
(543,358,cs),
(536,358,ls),
(498,358,o),
(480,334,o),
(487,291,cs),
(528,58,ls),
(553,-79,o),
(486,-143,o),
(390,-143,cs),
(300,-143,o),
(200,-82,o),
(178,55,cs),
(169,108,o),
(177,162,o),
(200,213,c),
(201,217,o),
(202,219,o),
(202,222,cs),
(202,233,o),
(194,236,o),
(187,236,cs),
(182,236,o),
(177,234,o),
(173,232,cs),
(122,199,o),
(94,124,o),
(106,40,cs),
(129,-118,o),
(248,-214,o),
(387,-214,cs),
(517,-214,o),
(617,-137,o),
(609,16,c),
(632,6,o),
(660,0,o),
(695,0,cs),
(1071,0,ls),
(1164,0,o),
(1219,67,o),
(1208,182,cs)
);
},
{
closed = 1;
nodes = (
(780,204,o),
(857,308,o),
(981,306,cs),
(1037,305,o),
(1112,269,o),
(1128,186,cs),
(1139,126,o),
(1122,74,o),
(1057,74,cs),
(767,74,l)
);
}
);
width = 1240;
}
);
note = uni0635;
unicode = 1589;
},
{
glyphname = uni0636;
layers = (
{
layerId = m01;
shapes = (
{
closed = 1;
nodes = (
(949,439,o),
(967,461,o),
(962,489,cs),
(957,517,o),
(931,539,o),
(904,539,cs),
(876,539,o),
(858,517,o),
(863,489,cs),
(868,461,o),
(894,439,o),
(922,439,cs)
);
},
{
closed = 1;
nodes = (
(1197,302,o),
(1102,377,o),
(973,377,cs),
(800,377,o),
(701,239,o),
(689,74,c),
(682,74,ls),
(637,74,o),
(597,104,o),
(585,167,cs),
(552,350,ls),
(551,356,o),
(548,358,o),
(543,358,cs),
(536,358,ls),
(498,358,o),
(480,334,o),
(487,291,cs),
(528,58,ls),
(553,-79,o),
(486,-143,o),
(390,-143,cs),
(300,-143,o),
(200,-82,o),
(178,55,cs),
(169,108,o),
(177,162,o),
(200,213,c),
(201,217,o),
(202,219,o),
(202,222,cs),
(202,233,o),
(194,236,o),
(187,236,cs),
(182,236,o),
(177,234,o),
(173,232,cs),
(122,199,o),
(94,124,o),
(106,40,cs),
(129,-118,o),
(248,-214,o),
(387,-214,cs),
(517,-214,o),
(617,-137,o),
(609,16,c),
(632,6,o),
(660,0,o),
(695,0,cs),
(1071,0,ls),
(1164,0,o),
(1219,67,o),
(1208,182,cs)
);
},
{
closed = 1;
nodes = (
(780,204,o),
(857,308,o),
(981,306,cs),
(1037,305,o),
(1112,269,o),
(1128,186,cs),
(1139,126,o),
(1122,74,o),
(1057,74,cs),
(767,74,l)
);
}
);
width = 1240;
}
);
note = uni0636;
unicode = 1590;
},
{
glyphname = uni0637;
layers = (
{
layerId = m01;
shapes = (
{
closed = 1;
nodes = (
(712,302,o),
(617,377,o),
(488,377,cs),
(378,377,o),
(298,321,o),
(251,238,c),
(196,548,ls),
(195,553,o),
(192,556,o),
(187,556,cs),
(180,556,ls),
(142,556,o),
(123,532,o),
(131,488,cs),
(204,74,l),
(161,74,ls),
(119,74,o),
(99,50,o),
(104,19,cs),
(105,12,ls),
(107,2,o),
(111,0,o),
(121,0,cs),
(586,0,ls),
(679,0,o),
(734,67,o),
(723,182,cs)
);
},
{
closed = 1;
nodes = (
(295,204,o),
(372,308,o),
(496,306,cs),
(552,305,o),
(627,269,o),
(643,186,cs),
(654,126,o),
(637,74,o),
(572,74,cs),
(282,74,l)
);
}
);
width = 761;
}
);
note = uni0637;
unicode = 1591;
},
{
glyphname = uni0638;
layers = (
{
layerId = m01;
shapes = (
{
closed = 1;
nodes = (
(712,302,o),
(617,377,o),
(488,377,cs),
(378,377,o),
(298,321,o),
(251,238,c),
(196,548,ls),
(195,553,o),
(192,556,o),
(187,556,cs),
(180,556,ls),
(142,556,o),
(123,532,o),
(131,488,cs),
(204,74,l),
(161,74,ls),
(119,74,o),
(99,50,o),
(104,19,cs),
(105,12,ls),
(107,2,o),
(111,0,o),
(121,0,cs),
(586,0,ls),
(679,0,o),
(734,67,o),
(723,182,cs)
);
},
{
closed = 1;
nodes = (
(473,439,o),
(491,461,o),
(486,489,cs),
(481,517,o),
(455,539,o),
(428,539,cs),
(400,539,o),
(382,517,o),
(387,489,cs),
(392,461,o),
(418,439,o),
(446,439,cs)
);
},
{
closed = 1;
nodes = (
(295,204,o),
(372,308,o),
(496,306,cs),
(552,305,o),
(627,269,o),
(643,186,cs),
(654,126,o),
(637,74,o),
(572,74,cs),
(282,74,l)
);
}
);
width = 761;
}
);
note = uni0638;
unicode = 1592;
},
{
glyphname = uni0639;
layers = (
{
layerId = m01;
shapes = (
{
closed = 1;
nodes = (
(495,-233,o),
(478,-242,o),
(458,-248,cs),
(431,-257,o),
(404,-261,o),
(363,-260,cs),
(267,-257,o),
(206,-198,o),
(195,-130,cs),
(183,-64,o),
(211,0,o),
(303,0,cs),
(490,0,ls),
(501,0,o),
(503,2,o),
(501,12,cs),
(500,18,ls),
(495,49,o),
(466,74,o),
(424,74,cs),
(306,74,ls),
(232,74,o),
(181,137,o),
(172,188,cs),
(159,263,o),
(202,306,o),
(275,306,cs),
(315,306,o),
(350,288,o),
(372,278,cs),
(393,268,o),
(401,281,o),
(397,302,cs),
(386,345,o),
(324,377,o),
(260,377,cs),
(158,377,o),
(82,306,o),
(95,188,cs),
(100,136,o),
(129,78,o),
(187,48,c),
(128,13,o),
(101,-52,o),
(112,-127,cs),
(128,-238,o),
(220,-329,o),
(366,-331,cs),
(443,-332,o),
(523,-298,o),
(540,-238,cs),
(544,-224,o),
(533,-211,o),
(516,-221,cs)
);
}
);
width = 504;
}
);
note = uni0639;
unicode = 1593;
},
{
glyphname = uni063A;
layers = (
{
layerId = m01;
shapes = (
{
closed = 1;
nodes = (
(259,439,o),
(277,462,o),
(272,489,cs),
(267,518,o),
(241,539,o),
(214,539,cs),
(186,539,o),
(169,518,o),
(174,489,cs),
(179,462,o),
(204,439,o),
(232,439,cs)
);
},
{
closed = 1;
nodes = (
(495,-233,o),
(478,-242,o),
(458,-248,cs),
(431,-257,o),
(404,-261,o),
(363,-260,cs),
(267,-257,o),
(206,-198,o),
(195,-130,cs),
(183,-64,o),
(211,0,o),
(303,0,cs),
(490,0,ls),
(501,0,o),
(503,2,o),
(501,12,cs),
(500,18,ls),
(495,49,o),
(466,74,o),
(424,74,cs),
(306,74,ls),
(232,74,o),
(181,137,o),
(172,188,cs),
(159,263,o),
(202,306,o),
(275,306,cs),
(315,306,o),
(350,288,o),
(372,278,cs),
(393,268,o),
(401,281,o),
(397,302,cs),
(386,345,o),
(324,377,o),
(260,377,cs),
(158,377,o),
(82,306,o),
(95,188,cs),
(100,136,o),
(129,78,o),
(187,48,c),
(128,13,o),
(101,-52,o),
(112,-127,cs),
(128,-238,o),
(220,-329,o),
(366,-331,cs),
(443,-332,o),
(523,-298,o),
(540,-238,cs),
(544,-224,o),
(533,-211,o),
(516,-221,cs)
);
}
);
width = 504;
}
);
note = uni063A;
unicode = 1594;
},
{
glyphname = uni0640;
layers = (
{
layerId = m01;
shapes = (
{
closed = 1;
nodes = (
(6,0,l),
(122,0,l),
(109,74,l),
(-7,74,l)
);
}
);
width = 97;
}
);
note = uni0640;
unicode = 1600;
},
{
glyphname = uni0641;
layers = (
{
layerId = m01;
shapes = (
{
closed = 1;
nodes = (
(654,439,o),
(672,462,o),
(667,489,cs),
(662,518,o),
(637,539,o),
(609,539,cs),
(582,539,o),
(564,518,o),
(569,489,cs),
(574,462,o),
(599,439,o),
(627,439,cs)
);
},
{
closed = 1;
nodes = (
(820,299,o),
(734,377,o),
(635,377,cs),
(536,377,o),
(482,299,o),
(495,188,cs),
(499,149,o),
(518,103,o),
(546,74,c),
(287,74,ls),
(219,74,o),
(154,101,o),
(145,177,cs),
(140,214,o),
(145,242,o),
(166,276,cs),
(175,289,o),
(172,303,o),
(157,303,cs),
(153,303,o),
(148,302,o),
(141,298,cs),
(93,269,o),
(76,209,o),
(83,154,cs),
(94,49,o),
(179,0,o),
(288,0,cs),
(706,0,ls),
(802,-1,o),
(859,78,o),
(839,188,cs)
);
},
{
closed = 1;
nodes = (
(628,74,o),
(584,134,o),
(575,190,cs),
(565,246,o),
(580,306,o),
(643,306,cs),
(704,306,o),
(752,246,o),
(762,190,cs),
(772,134,o),
(763,74,o),
(690,74,cs)
);
}
);
width = 876;
}
);
note = uni0641;
unicode = 1601;
},
{
glyphname = uni0642;
layers = (
{
layerId = m01;
shapes = (
{
closed = 1;
nodes = (
(386,444,o),
(403,463,o),
(400,489,cs),
(396,515,o),
(374,534,o),
(349,534,cs),
(324,534,o),
(308,515,o),
(312,489,cs),
(315,463,o),
(337,444,o),
(361,444,cs)
);
},
{
closed = 1;
nodes = (
(512,444,o),
(529,463,o),
(525,489,cs),
(521,515,o),
(500,534,o),
(475,534,cs),
(450,534,o),
(434,515,o),
(437,489,cs),
(441,463,o),
(463,444,o),
(488,444,cs)
);
},
{
closed = 1;
nodes = (
(648,245,o),
(590,379,o),
(444,377,cs),
(352,376,o),
(284,304,o),
(304,182,cs),
(322,73,o),
(397,-9,o),
(505,-9,cs),
(537,-9,o),
(566,-2,o),
(594,12,c),
(590,-87,o),
(534,-143,o),
(417,-143,cs),
(294,-143,o),
(196,-69,o),
(173,56,cs),
(163,106,o),
(167,162,o),
(189,215,c),
(190,219,o),
(191,222,o),
(191,224,cs),
(191,235,o),
(183,238,o),
(176,238,cs),
(172,238,o),
(166,237,o),
(161,233,cs),
(147,223,o),
(132,206,o),
(122,187,cs),
(101,149,o),
(93,98,o),
(101,41,cs),
(121,-95,o),
(219,-214,o),
(419,-214,cs),
(595,-215,o),
(690,-110,o),
(667,82,cs)
);
},
{
closed = 1;
nodes = (
(440,63,o),
(395,112,o),
(382,184,cs),
(370,253,o),
(394,306,o),
(452,306,cs),
(535,306,o),
(570,200,o),
(584,117,cs),
(586,108,o),
(587,99,o),
(587,92,c),
(565,72,o),
(534,63,o),
(499,63,cs)
);
}
);
width = 688;
}
);
note = uni0642;
unicode = 1602;
},
{
glyphname = uni0643;
layers = (
{
layerId = m01;
shapes = (
{
closed = 1;
nodes = (
(649,553,o),
(647,556,o),
(641,556,cs),
(634,556,ls),
(597,556,o),
(578,532,o),
(585,488,cs),
(642,169,ls),
(652,113,o),
(642,74,o),
(589,74,cs),
(287,74,ls),
(219,74,o),
(154,101,o),
(145,177,cs),
(140,214,o),
(145,242,o),
(166,276,cs),
(175,289,o),
(172,303,o),
(157,303,cs),
(153,303,o),
(148,302,o),
(141,298,cs),
(93,269,o),
(76,209,o),
(83,154,cs),
(94,49,o),
(179,0,o),
(288,0,cs),
(589,0,ls),
(688,0,o),
(738,62,o),
(719,168,cs),
(650,548,ls)
);
},
{
closed = 1;
nodes = (
(291,263,o),
(296,259,o),
(301,259,cs),
(304,259,o),
(307,260,o),
(309,261,cs),
(310,262,o),
(311,262,o),
(312,262,c),
(330,269,o),
(343,270,o),
(365,270,cs),
(480,270,ls),
(487,270,o),
(488,273,o),
(488,279,cs),
(488,283,ls),
(488,304,o),
(467,317,o),
(444,317,cs),
(399,317,ls),
(373,317,o),
(350,336,o),
(345,361,cs),
(340,387,o),
(354,402,o),
(383,402,cs),
(396,402,o),
(408,400,o),
(420,394,cs),
(427,391,ls),
(432,388,o),
(435,387,o),
(438,387,cs),
(444,387,o),
(446,393,o),
(445,401,c),
(438,428,o),
(405,449,o),
(368,449,cs),
(317,449,o),
(286,412,o),
(295,362,cs),
(298,342,o),
(308,326,o),
(319,313,c),
(298,307,o),
(287,289,o),
(290,268,cs)
);
}
);
width = 763;
}
);
note = uni0643;
unicode = 1603;
},
{
glyphname = uni0644;
layers = (
{
layerId = m01;
shapes = (
{
closed = 1;
nodes = (
(169,108,o),
(177,162,o),
(200,213,c),
(201,217,o),
(202,219,o),
(202,222,cs),
(202,233,o),
(194,236,o),
(187,236,cs),
(182,236,o),
(177,234,o),
(173,232,cs),
(122,199,o),
(94,124,o),
(106,40,cs),
(129,-118,o),
(248,-214,o),
(387,-214,cs),
(530,-214,o),
(636,-121,o),
(603,64,cs),
(517,548,ls),
(516,553,o),
(513,556,o),
(507,556,cs),
(501,556,ls),
(463,556,o),
(444,532,o),
(452,488,cs),
(528,58,ls),
(553,-79,o),
(486,-143,o),
(390,-143,cs),
(300,-143,o),
(200,-82,o),
(178,55,cs)
);
}
);
width = 625;
}
);
note = uni0644;
unicode = 1604;
},
{
glyphname = uni0645;
layers = (
{
layerId = m01;
shapes = (
{
closed = 1;
nodes = (
(563,271,o),
(498,377,o),
(380,377,cs),
(283,377,o),
(254,277,o),
(223,173,cs),
(216,148,o),
(210,129,o),
(203,114,c),
(129,103,o),
(92,48,o),
(110,-53,cs),
(150,-280,ls),
(151,-286,o),
(154,-288,o),
(160,-288,cs),
(167,-288,ls),
(204,-288,o),
(224,-264,o),
(216,-221,cs),
(186,-54,ls),
(175,9,o),
(195,39,o),
(242,42,cs),
(253,42,l),
(319,9,o),
(381,-9,o),
(449,-9,cs),
(538,-9,o),
(598,43,o),
(579,163,cs)
);
},
{
closed = 1;
nodes = (
(405,62,o),
(350,72,o),
(288,104,c),
(293,116,o),
(297,132,o),
(303,153,cs),
(325,239,o),
(347,306,o),
(390,306,cs),
(426,306,o),
(483,266,o),
(500,164,cs),
(515,82,o),
(488,63,o),
(439,63,cs)
);
}
);
width = 604;
}
);
note = uni0645;
unicode = 1605;
},
{
glyphname = uni0646;
layers = (
{
layerId = m01;
shapes = (
{
closed = 1;
nodes = (
(262,430,o),
(245,408,o),
(250,380,cs),
(255,352,o),
(280,330,o),
(308,330,cs),
(335,330,o),
(353,352,o),
(348,380,cs),
(343,408,o),
(317,430,o),
(290,430,cs)
);
},
{
closed = 1;
nodes = (
(530,-214,o),
(637,-121,o),
(603,64,cs),
(552,350,ls),
(551,356,o),
(548,358,o),
(543,358,cs),
(536,358,ls),
(498,358,o),
(480,334,o),
(487,291,cs),
(528,58,ls),
(553,-79,o),
(486,-143,o),
(390,-143,cs),
(300,-143,o),
(200,-82,o),
(178,55,cs),
(169,108,o),
(177,162,o),
(200,213,c),
(201,217,o),
(202,219,o),
(202,222,cs),
(202,233,o),
(194,236,o),
(187,236,cs),
(182,236,o),
(177,234,o),
(173,232,cs),
(122,199,o),
(94,124,o),
(106,40,cs),
(129,-118,o),
(248,-214,o),
(387,-214,cs)
);
}
);
width = 625;
}
);
note = uni0646;
unicode = 1606;
},
{
glyphname = uni0647;
layers = (
{
layerId = m01;
shapes = (
{
closed = 1;
nodes = (
(420,232,o),
(395,279,o),
(335,329,cs),
(289,367,o),
(227,399,o),
(193,449,cs),
(189,456,o),
(186,460,o),
(181,458,cs),
(178,457,o),
(175,456,o),
(173,455,cs),
(150,443,o),
(140,421,o),
(154,395,cs),
(160,382,o),
(168,374,o),
(177,366,c),
(93,322,o),
(71,244,o),
(80,176,cs),
(95,54,o),
(187,-9,o),
(283,-9,cs),
(389,-9,o),
(443,67,o),
(428,172,cs)
);
},
{
closed = 1;
nodes = (
(224,62,o),
(169,109,o),
(159,173,cs),
(150,226,o),
(162,277,o),
(234,313,c),
(264,293,o),
(277,283,o),
(297,264,cs),
(330,234,o),
(343,204,o),
(348,177,cs),
(362,108,o),
(335,62,o),
(281,62,cs)
);
}
);
width = 461;
}
);
note = uni0647;
unicode = 1607;
},
{
glyphname = uni0648;
layers = (
{
layerId = m01;
shapes = (
{
closed = 1;
nodes = (
(420,270,o),
(357,379,o),
(228,377,cs),
(136,376,o),
(68,304,o),
(88,182,cs),
(106,73,o),
(181,-9,o),
(289,-9,cs),
(324,-9,o),
(354,-2,o),
(384,15,c),
(396,-74,o),
(388,-141,o),
(289,-143,cs),
(241,-143,o),
(224,-138,o),
(194,-128,cs),
(191,-127,o),
(186,-126,o),
(181,-126,cs),
(169,-126,o),
(164,-135,o),
(169,-147,cs),
(189,-189,o),
(250,-214,o),
(307,-214,cs),
(382,-215,o),
(432,-182,o),
(450,-124,cs),
(472,-63,o),
(465,16,o),
(445,130,cs)
);
},
{
closed = 1;
nodes = (
(224,63,o),
(179,112,o),
(166,184,cs),
(154,253,o),
(178,306,o),
(236,306,cs),
(319,306,o),
(354,200,o),
(368,117,cs),
(370,108,o),
(371,99,o),
(371,92,c),
(349,72,o),
(318,63,o),
(282,63,cs)
);
}
);
width = 460;
}
);
note = uni0648;
unicode = 1608;
},
{
glyphname = uni0649;
layers = (
{
layerId = m01;
shapes = (
{
closed = 1;
nodes = (
(165,73,o),
(163,90,o),
(163,108,cs),
(163,143,o),
(170,179,o),
(184,215,cs),
(185,219,o),
(186,222,o),
(186,224,cs),
(186,235,o),
(178,238,o),
(171,238,cs),
(167,238,o),
(161,237,o),
(156,233,cs),
(142,223,o),
(127,206,o),
(117,187,cs),
(102,159,o),
(93,123,o),
(93,83,cs),
(93,69,o),
(94,56,o),
(96,41,cs),
(116,-96,o),
(215,-214,o),
(415,-214,cs),
(558,-214,o),
(664,-125,o),
(664,1,cs),
(664,80,o),
(577,91,o),
(479,113,cs),
(426,126,o),
(380,153,o),
(372,203,cs),
(371,210,o),
(370,217,o),
(370,224,cs),
(370,277,o),
(410,306,o),
(462,306,cs),
(502,306,o),
(537,288,o),
(559,278,cs),
(564,276,o),
(569,274,o),
(572,274,cs),
(581,274,o),
(585,282,o),
(585,292,cs),
(585,295,o),
(585,298,o),
(584,302,cs),
(574,345,o),
(516,377,o),
(451,377,cs),
(363,377,o),
(293,322,o),
(293,228,cs),
(293,219,o),
(294,211,o),
(295,202,cs),
(307,107,o),
(377,66,o),
(459,47,cs),
(537,28,o),
(586,26,o),
(586,-12,cs),
(586,-13,o),
(586,-16,o),
(585,-18,c),
(574,-98,o),
(506,-143,o),
(412,-143,cs),
(289,-143,o),
(191,-69,o),
(168,56,cs)
);
}
);
width = 675;
}
);
note = uni0649;
unicode = 1609;
},
{
glyphname = uni064A;
layers = (
{
layerId = m01;
shapes = (
{
closed = 1;
nodes = (
(165,73,o),
(163,90,o),
(163,108,cs),
(163,143,o),
(170,179,o),
(184,215,cs),
(185,219,o),
(186,222,o),
(186,224,cs),
(186,235,o),
(178,238,o),
(171,238,cs),
(167,238,o),
(161,237,o),
(156,233,cs),
(142,223,o),
(127,206,o),
(117,187,cs),
(102,159,o),
(93,123,o),
(93,83,cs),
(93,69,o),
(94,56,o),
(96,41,cs),
(116,-96,o),
(215,-214,o),
(415,-214,cs),
(558,-214,o),
(664,-125,o),
(664,1,cs),
(664,80,o),
(577,91,o),
(479,113,cs),
(426,126,o),
(380,153,o),
(372,203,cs),
(371,210,o),
(370,217,o),
(370,224,cs),
(370,277,o),
(410,306,o),
(462,306,cs),
(502,306,o),
(537,288,o),
(559,278,cs),
(564,276,o),
(569,274,o),
(572,274,cs),
(581,274,o),
(585,282,o),
(585,292,cs),
(585,295,o),
(585,298,o),
(584,302,cs),
(574,345,o),
(516,377,o),
(451,377,cs),
(363,377,o),
(293,322,o),
(293,228,cs),
(293,219,o),
(294,211,o),
(295,202,cs),
(307,107,o),
(377,66,o),
(459,47,cs),
(537,28,o),
(586,26,o),
(586,-12,cs),
(586,-13,o),
(586,-16,o),
(585,-18,c),
(574,-98,o),
(506,-143,o),
(412,-143,cs),
(289,-143,o),
(191,-69,o),
(168,56,cs)
);
},
{
closed = 1;
nodes = (
(413,-369,o),
(429,-349,o),
(425,-323,cs),
(420,-298,o),
(397,-279,o),
(372,-279,cs),
(347,-279,o),
(332,-298,o),
(337,-323,cs),
(341,-349,o),
(364,-369,o),
(388,-369,cs)
);
},
{
closed = 1;
nodes = (
(539,-369,o),
(555,-349,o),
(550,-323,cs),
(545,-298,o),
(523,-279,o),
(499,-279,cs),
(474,-279,o),
(457,-298,o),
(462,-323,cs),
(467,-349,o),
(490,-369,o),
(515,-369,cs)
);
}
);
width = 675;
}
);
note = uni064A;
unicode = 1610;
},
{
glyphname = uni064B;
layers = (
{
layerId = m01;
shapes = (
{
closed = 1;
nodes = (
(-14,757,o),
(-26,733,o),
(-15,708,cs),
(-13,704,o),
(-11,702,o),
(-8,702,cs),
(-4,702,o),
(-2,704,o),
(5,707,cs),
(20,713,o),
(35,713,o),
(56,713,cs),
(160,713,ls),
(167,713,o),
(169,716,o),
(168,722,cs),
(167,726,ls),
(165,745,o),
(151,758,o),
(127,758,cs),
(27,757,ls)
);
},
{
closed = 1;
nodes = (
(2,664,o),
(-10,641,o),
(1,616,cs),
(3,611,o),
(5,609,o),
(8,609,cs),
(12,609,o),
(15,612,o),
(21,614,cs),
(36,620,o),
(51,621,o),
(72,621,cs),
(176,621,ls),
(183,621,o),
(185,623,o),
(184,629,cs),
(183,633,ls),
(181,652,o),
(167,665,o),
(143,665,cs),
(43,664,ls)
);
}
);
width = 0;
}
);
note = uni064B;
unicode = 1611;
},
{
glyphname = uni064C;
layers = (
{
layerId = m01;
shapes = (
{
closed = 1;
nodes = (
(119,647,o),
(93,620,o),
(97,582,cs),
(100,558,o),
(120,539,o),
(137,527,c),
(126,516,ls),
(123,513,o),
(120,511,o),
(116,511,cs),
(112,511,o),
(105,515,o),
(97,521,cs),
(76,536,o),
(62,544,o),
(47,544,cs),
(16,544,o),
(6,507,o),
(23,481,cs),
(25,477,o),
(28,474,o),
(33,474,cs),
(37,474,o),
(39,481,o),
(42,487,cs),
(46,497,o),
(49,502,o),
(55,502,cs),
(61,502,o),
(69,494,o),
(76,489,cs),
(93,477,o),
(108,468,o),
(121,468,cs),
(131,468,o),
(139,471,o),
(148,479,cs),
(173,499,l),
(187,488,ls),
(192,483,o),
(195,483,o),
(199,487,cs),
(211,498,o),
(211,511,o),
(199,523,c),
(215,538,o),
(226,552,o),
(228,579,cs),
(230,617,o),
(203,647,o),
(159,647,cs)
);
},
{
closed = 1;
nodes = (
(151,561,o),
(140,572,o),
(137,583,cs),
(134,598,o),
(144,611,o),
(162,611,cs),
(177,611,o),
(188,600,o),
(188,583,cs),
(187,573,o),
(184,563,o),
(167,549,c)
);
}
);
width = 0;
}
);
note = uni064C;
unicode = 1612;
},
{
glyphname = uni064D;
layers = (
{
layerId = m01;
shapes = (
{
closed = 1;
nodes = (
(6,-72,o),
(-6,-96,o),
(5,-121,cs),
(7,-126,o),
(9,-128,o),
(12,-128,cs),
(16,-128,o),
(18,-125,o),
(25,-123,cs),
(40,-117,o),
(55,-116,o),
(76,-116,cs),
(180,-116,ls),
(187,-116,o),
(189,-114,o),
(188,-108,cs),
(187,-104,ls),
(185,-84,o),
(171,-72,o),
(147,-72,cs),
(47,-72,ls)
);
},
{
closed = 1;
nodes = (
(22,-165,o),
(10,-189,o),
(21,-214,cs),
(23,-218,o),
(25,-221,o),
(28,-221,cs),
(32,-221,o),
(35,-218,o),
(41,-216,cs),
(56,-209,o),
(71,-209,o),
(92,-209,cs),
(196,-209,ls),
(203,-209,o),
(205,-207,o),
(204,-201,cs),
(203,-197,ls),
(201,-177,o),
(187,-164,o),
(163,-164,cs),
(63,-165,ls)
);
}
);
width = 0;
}
);
note = uni064D;
unicode = 1613;
},
{
glyphname = uni064E;
layers = (
{
layerId = m01;
shapes = (
{
closed = 1;
nodes = (
(3,664,o),
(-9,641,o),
(2,616,cs),
(4,611,o),
(6,609,o),
(9,609,cs),
(13,609,o),
(15,612,o),
(22,614,cs),
(37,620,o),
(52,621,o),
(73,621,cs),
(177,621,ls),
(184,621,o),
(186,623,o),
(185,629,cs),
(184,633,ls),
(182,652,o),
(168,665,o),
(144,665,cs),
(44,664,ls)
);
}
);
width = 0;
}
);
note = uni064E;
unicode = 1614;
},
{
glyphname = uni064F;
layers = (
{
layerId = m01;
shapes = (
{
closed = 1;
nodes = (
(135,491,o),
(138,490,o),
(142,494,cs),
(154,505,o),
(154,518,o),
(142,531,c),
(158,546,o),
(169,559,o),
(171,587,cs),
(173,624,o),
(146,654,o),
(102,654,cs),
(62,654,o),
(36,627,o),
(40,589,cs),
(43,566,o),
(63,547,o),
(80,534,c),
(58,516,o),
(38,502,o),
(16,488,cs),
(13,486,o),
(14,483,o),
(16,481,cs),
(20,476,ls),
(28,467,o),
(38,464,o),
(48,464,cs),
(60,464,o),
(68,472,o),
(73,474,cs),
(81,478,o),
(97,491,o),
(116,507,c),
(130,495,ls)
);
},
{
closed = 1;
nodes = (
(94,568,o),
(83,579,o),
(80,591,cs),
(77,606,o),
(87,618,o),
(105,618,cs),
(120,618,o),
(131,607,o),
(131,591,cs),
(130,581,o),
(127,570,o),
(110,557,c)
);
}
);
width = 0;
}
);
note = uni064F;
unicode = 1615;
},
{
glyphname = uni0650;
layers = (
{
layerId = m01;
shapes = (
{
closed = 1;
nodes = (
(6,-72,o),
(-6,-96,o),
(5,-121,cs),
(7,-126,o),
(9,-128,o),
(12,-128,cs),
(16,-128,o),
(18,-125,o),
(25,-123,cs),
(40,-117,o),
(55,-116,o),
(76,-116,cs),
(180,-116,ls),
(187,-116,o),
(189,-114,o),
(188,-108,cs),
(187,-104,ls),
(185,-84,o),
(171,-72,o),
(147,-72,cs),
(47,-72,ls)
);
}
);
width = 0;
}
);
note = uni0650;
unicode = 1616;
},
{
glyphname = uni0651;
layers = (
{
layerId = m01;
shapes = (
{
closed = 1;
nodes = (
(235,627,o),
(233,629,o),
(229,629,cs),
(221,629,ls),
(199,629,o),
(189,612,o),
(194,582,cs),
(200,547,ls),
(204,523,o),
(195,510,o),
(178,510,cs),
(156,510,o),
(145,523,o),
(141,547,cs),
(128,623,ls),
(127,627,o),
(124,629,o),
(120,629,cs),
(114,629,ls),
(90,629,o),
(80,613,o),
(85,582,cs),
(91,547,ls),
(96,523,o),
(87,510,o),
(69,510,cs),
(50,510,o),
(37,523,o),
(33,547,cs),
(19,623,l),
(19,627,o),
(16,629,o),
(12,629,cs),
(5,629,ls),
(-18,629,o),
(-28,612,o),
(-22,582,cs),
(-17,552,ls),
(-6,497,o),
(26,466,o),
(77,466,cs),
(98,466,o),
(116,472,o),
(127,486,c),
(142,473,o),
(161,466,o),
(186,466,cs),
(234,466,o),
(259,498,o),
(249,552,cs),
(236,623,ls)
);
}
);
width = 0;
}
);
note = uni0651;
unicode = 1617;
},
{
glyphname = uni0652;
layers = (
{
layerId = m01;
shapes = (
{
closed = 1;
nodes = (
(-2,490,o),
(31,465,o),
(67,465,cs),
(103,465,o),
(127,491,o),
(120,531,cs),
(112,571,o),
(80,596,o),
(44,596,cs),
(7,596,o),
(-16,571,o),
(-9,531,cs)
);
},
{
closed = 1;
nodes = (
(85,514,o),
(77,501,o),
(61,501,cs),
(45,501,o),
(32,514,o),
(30,531,cs),
(27,547,o),
(33,561,o),
(50,561,cs),
(66,561,o),
(79,547,o),
(82,531,cs)
);
}
);
width = 0;
}
);
note = uni0652;
unicode = 1618;
},
{
glyphname = uni0653;
layers = (
{
layerId = m01;
shapes = (
{
closed = 1;
nodes = (
(93,687,o),
(75,693,o),
(57,694,cs),
(29,697,o),
(11,674,o),
(15,651,cs),
(17,643,o),
(19,635,o),
(25,627,cs),
(28,624,o),
(30,623,o),
(33,623,cs),
(34,623,o),
(35,623,o),
(37,624,c),
(39,626,o),
(42,632,o),
(45,638,c),
(51,646,o),
(56,651,o),
(64,651,cs),
(74,651,o),
(93,643,o),
(115,637,cs),
(139,629,o),
(157,623,o),
(175,622,cs),
(204,619,o),
(221,642,o),
(217,665,cs),
(215,673,o),
(213,681,o),
(207,689,cs),
(204,692,o),
(203,693,o),
(200,693,cs),
(198,693,o),
(197,693,o),
(195,692,c),
(193,690,o),
(190,684,o),
(187,678,cs),
(182,670,o),
(177,666,o),
(169,666,cs),
(158,666,o),
(139,673,o),
(118,679,cs)
);
}
);
width = 0;
}
);
note = uni0653;
unicode = 1619;
},
{
glyphname = uni0654;
layers = (
{
layerId = m01;
shapes = (
{
closed = 1;
nodes = (
(234,649,o),
(220,662,o),
(196,662,cs),
(159,662,ls),
(141,662,o),
(118,676,o),
(114,701,cs),
(110,724,o),
(125,736,o),
(146,737,cs),
(156,737,o),
(169,735,o),
(180,730,cs),
(185,728,o),
(189,726,o),
(193,724,c),
(199,724,o),
(201,728,o),
(199,735,cs),
(194,763,o),
(170,781,o),
(139,781,cs),
(92,781,o),
(64,747,o),
(67,701,cs),
(68,686,o),
(74,671,o),
(83,659,c),
(54,656,o),
(43,637,o),
(54,612,cs),
(56,608,o),
(58,606,o),
(61,606,cs),
(65,606,o),
(67,608,o),
(74,611,cs),
(89,617,o),
(104,617,o),
(125,617,cs),
(229,617,ls),
(236,617,o),
(238,619,o),
(237,626,cs),
(236,629,l)
);
}
);
width = 0;
}
);
note = uni0654;
unicode = 1620;
},
{
glyphname = uni0655;
layers = (
{
layerId = m01;
shapes = (
{
closed = 1;
nodes = (
(199,-203,o),
(185,-190,o),
(161,-190,cs),
(124,-190,ls),
(106,-190,o),
(83,-176,o),
(79,-151,cs),
(75,-128,o),
(90,-116,o),
(111,-115,cs),
(121,-114,o),
(134,-117,o),
(145,-122,cs),
(150,-124,o),
(154,-126,o),
(158,-127,cs),
(164,-128,o),
(166,-124,o),
(164,-117,cs),
(159,-88,o),
(135,-71,o),
(104,-71,cs),
(57,-71,o),
(29,-105,o),
(32,-151,cs),
(33,-166,o),
(39,-181,o),
(48,-192,c),
(19,-196,o),
(8,-214,o),
(19,-239,cs),
(21,-244,o),
(23,-246,o),
(26,-246,cs),
(30,-246,o),
(32,-243,o),
(39,-241,cs),
(54,-235,o),
(69,-234,o),
(90,-234,cs),
(194,-234,ls),
(201,-234,o),
(203,-232,o),
(202,-226,cs),
(201,-222,ls)
);
}
);
width = 0;
}
);
note = uni0655;
unicode = 1621;
},
{
glyphname = uni065A;
layers = (
{
layerId = m01;
shapes = (
{
closed = 1;
nodes = (
(218,483,o),
(206,474,o),
(200,451,cs),
(189,404,l),
(161,451,ls),
(147,474,o),
(131,483,o),
(107,483,cs),
(96,483,o),
(89,481,o),
(93,472,c),
(162,355,ls),
(166,348,o),
(173,344,o),
(180,344,cs),
(213,344,ls),
(220,344,o),
(225,348,o),
(227,355,cs),
(254,472,ls),
(256,481,o),
(253,483,o),
(243,483,cs)
);
}
);
width = 333;
}
);
note = uni065A;
unicode = 1626;
},
{
glyphname = zero.ar;
layers = (
{
layerId = m01;
shapes = (
{
closed = 1;
nodes = (
(180,59,o),
(106,195,o),
(106,365,cs),
(106,449,o),
(141,496,o),
(208,496,cs),
(310,496,o),
(378,377,o),
(378,194,cs),
(378,106,o),
(349,59,o),
(280,59,cs)
);
},
{
closed = 1;
nodes = (
(394,-11,o),
(455,69,o),
(455,194,cs),
(455,421,o),
(353,567,o),
(203,567,cs),
(97,567,o),
(30,492,o),
(30,362,cs),
(30,145,o),
(136,-11,o),
(285,-11,cs)
);
}
);
width = 502;
}
);
note = zero.ar;
unicode = 1632;
},
{
glyphname = one.ar;
layers = (
{
layerId = m01;
shapes = (
{
closed = 1;
nodes = (
(88,69,ls),
(82,69,o),
(79,67,o),
(80,61,cs),
(89,9,ls),
(90,3,o),
(93,0,o),
(99,0,cs),
(375,0,ls),
(383,0,o),
(385,4,o),
(384,11,cs),
(380,26,ls),
(375,54,o),
(359,69,o),
(329,69,cs),
(264,69,l),
(188,501,ls),
(182,537,o),
(162,556,o),
(129,556,cs),
(113,556,ls),
(98,556,o),
(83,553,o),
(67,547,cs),
(10,524,ls),
(3,521,o),
(1,517,o),
(2,510,cs),
(13,455,ls),
(14,450,o),
(18,447,o),
(23,449,cs),
(114,486,l),
(188,69,l)
);
}
);
width = 358;
}
);
note = one.ar;
unicode = 1633;
},
{
glyphname = two.ar;
layers = (
{
layerId = m01;
shapes = (
{
closed = 1;
nodes = (
(143,195,o),
(366,219,o),
(366,393,cs),
(366,508,o),
(283,567,o),
(162,567,cs),
(110,567,o),
(70,553,o),
(33,537,cs),
(3,522,o),
(-6,505,o),
(8,477,cs),
(18,457,ls),
(21,451,o),
(23,449,o),
(27,449,cs),
(31,449,o),
(35,451,o),
(38,454,c),
(76,481,o),
(119,498,o),
(171,498,cs),
(241,498,o),
(288,462,o),
(288,393,cs),
(288,258,o),
(70,247,o),
(70,59,cs),
(70,44,o),
(70,27,o),
(75,9,c),
(75,3,o),
(78,0,o),
(85,0,cs),
(427,0,ls),
(435,0,o),
(437,4,o),
(436,11,cs),
(433,27,ls),
(428,54,o),
(411,69,o),
(381,69,cs),
(153,69,l)
);
}
);
width = 449;
}
);
note = two.ar;
unicode = 1634;
},
